STARTFONT 2.1
FONT -HP-Mincho-Bold-R-Normal--24-173-100-100-C-240-JISX0208.1990-0
SIZE 17 100 100
FONTBOUNDINGBOX 24 24 0 -2

STARTPROPERTIES 23
FONTNAME_REGISTRY ""
FOUNDRY "HP"
FAMILY_NAME "Mincho"
WEIGHT_NAME "Bold"
SLANT "R"
SETWIDTH_NAME "Normal"
ADD_STYLE_NAME ""
PIXEL_SIZE 24
POINT_SIZE 173
RESOLUTION_X 100
RESOLUTION_Y 100
SPACING "C"
AVERAGE_WIDTH 240
CHARSET_REGISTRY "JISX0208.1990"
CHARSET_ENCODING "0"
COPYRIGHT "Copyright (c) 1994 Hewlett-Packard Company. Copyright 1994 by Bridge Inc."
_HP_ASXVERSION "@(#) ASX 3.00 $Revision: 13.9 $ minB24k"
WEIGHT 10
X_HEIGHT 22
QUAD_WIDTH 24
DEFAULT_CHAR 8751
FONT_DESCENT 2
FONT_ASCENT 22
ENDPROPERTIES

CHARS 6963

STARTCHAR jisx0208_2121
ENCODING 8481
SWIDTH 960 0
DWIDTH 24 0
BBX 24 24 0 -2
BITMAP
000000
000000
000000
000000
000000
000000
000000
000000
000000
000000
000000
000000
000000
000000
000000
000000
000000
000000
000000
000000
000000
000000
000000
000000
ENDCHAR

STARTCHAR jisx0208_2122
ENCODING 8482
SWIDTH 960 0
DWIDTH 24 0
BBX 24 24 0 -2
BITMAP
000000
000000
000000
000000
000000
000000
000000
000000
000000
000000
000000
000000
000000
000000
000000
000000
000000
380000
3C0000
1E0000
0F0000
0F0000
070000
000000
ENDCHAR

STARTCHAR jisx0208_2123
ENCODING 8483
SWIDTH 960 0
DWIDTH 24 0
BBX 24 24 0 -2
BITMAP
000000
000000
000000
000000
000000
000000
000000
000000
000000
000000
000000
000000
000000
000000
000000
000000
1F0000
3F8000
3B8000
318000
3B8000
3F8000
1F0000
000000
ENDCHAR

STARTCHAR jisx0208_2124
ENCODING 8484
SWIDTH 960 0
DWIDTH 24 0
BBX 24 24 0 -2
BITMAP
000000
000000
000000
000000
000000
000000
000000
000000
000000
000000
000000
000000
000000
000000
000000
000000
180000
3C0000
3C0000
3C0000
1C0000
380000
300000
000000
ENDCHAR

STARTCHAR jisx0208_2125
ENCODING 8485
SWIDTH 960 0
DWIDTH 24 0
BBX 24 24 0 -2
BITMAP
000000
000000
000000
000000
000000
000000
000000
000000
000000
000000
000000
000000
000000
000000
000000
000000
000000
1C0000
3E0000
3E0000
1C0000
000000
000000
000000
ENDCHAR

STARTCHAR jisx0208_2126
ENCODING 8486
SWIDTH 960 0
DWIDTH 24 0
BBX 24 24 0 -2
BITMAP
000000
000000
000000
000000
000000
000000
000000
000000
000000
001C00
003E00
003E00
003E00
001C00
000000
000000
000000
000000
000000
000000
000000
000000
000000
000000
ENDCHAR

STARTCHAR jisx0208_2127
ENCODING 8487
SWIDTH 960 0
DWIDTH 24 0
BBX 24 24 0 -2
BITMAP
000000
000000
000000
000000
000000
001C00
003E00
003E00
001C00
000000
000000
000000
000000
000000
001C00
003E00
003E00
001C00
000000
000000
000000
000000
000000
000000
ENDCHAR

STARTCHAR jisx0208_2128
ENCODING 8488
SWIDTH 960 0
DWIDTH 24 0
BBX 24 24 0 -2
BITMAP
000000
000000
000000
000000
000000
001C00
003E00
003E00
001C00
000000
000000
000000
000000
000000
001C00
003E00
003E00
001E00
000C00
003800
003000
000000
000000
000000
ENDCHAR

STARTCHAR jisx0208_2129
ENCODING 8489
SWIDTH 960 0
DWIDTH 24 0
BBX 24 24 0 -2
BITMAP
000000
000000
00FF00
01FF80
03C3C0
0381C0
03C1C0
03C1C0
03C3C0
018780
000F00
001E00
001C00
001800
001800
001800
000000
001C00
003E00
003E00
001C00
000000
000000
000000
ENDCHAR

STARTCHAR jisx0208_212A
ENCODING 8490
SWIDTH 960 0
DWIDTH 24 0
BBX 24 24 0 -2
BITMAP
000000
000000
001800
003C00
003C00
003C00
003C00
003C00
003C00
003C00
003C00
001800
001800
001800
001800
001800
000000
001C00
003E00
003E00
001C00
000000
000000
000000
ENDCHAR

STARTCHAR jisx0208_212B
ENCODING 8491
SWIDTH 960 0
DWIDTH 24 0
BBX 24 24 0 -2
BITMAP
1C0000
7E0000
6E0000
360000
180000
000000
000000
000000
000000
000000
000000
000000
000000
000000
000000
000000
000000
000000
000000
000000
000000
000000
000000
000000
ENDCHAR

STARTCHAR jisx0208_212C
ENCODING 8492
SWIDTH 960 0
DWIDTH 24 0
BBX 24 24 0 -2
BITMAP
000000
3C0000
7E0000
660000
660000
7E0000
3C0000
000000
000000
000000
000000
000000
000000
000000
000000
000000
000000
000000
000000
000000
000000
000000
000000
000000
ENDCHAR

STARTCHAR jisx0208_212D
ENCODING 8493
SWIDTH 960 0
DWIDTH 24 0
BBX 24 24 0 -2
BITMAP
000700
003F80
00FF80
00F800
000000
000000
000000
000000
000000
000000
000000
000000
000000
000000
000000
000000
000000
000000
000000
000000
000000
000000
000000
000000
ENDCHAR

STARTCHAR jisx0208_212E
ENCODING 8494
SWIDTH 960 0
DWIDTH 24 0
BBX 24 24 0 -2
BITMAP
007000
00FE00
00FF80
000F80
000000
000000
000000
000000
000000
000000
000000
000000
000000
000000
000000
000000
000000
000000
000000
000000
000000
000000
000000
000000
ENDCHAR

STARTCHAR jisx0208_212F
ENCODING 8495
SWIDTH 960 0
DWIDTH 24 0
BBX 24 24 0 -2
BITMAP
00E380
01F7C0
01F7C0
00E380
000000
000000
000000
000000
000000
000000
000000
000000
000000
000000
000000
000000
000000
000000
000000
000000
000000
000000
000000
000000
ENDCHAR

STARTCHAR jisx0208_2130
ENCODING 8496
SWIDTH 960 0
DWIDTH 24 0
BBX 24 24 0 -2
BITMAP
001C00
003E00
00FF80
01F7C0
01C1C0
000000
000000
000000
000000
000000
000000
000000
000000
000000
000000
000000
000000
000000
000000
000000
000000
000000
000000
000000
ENDCHAR

STARTCHAR jisx0208_2131
ENCODING 8497
SWIDTH 960 0
DWIDTH 24 0
BBX 24 24 0 -2
BITMAP
7FFFFF
7FFFFF
000000
000000
000000
000000
000000
000000
000000
000000
000000
000000
000000
000000
000000
000000
000000
000000
000000
000000
000000
000000
000000
000000
ENDCHAR

STARTCHAR jisx0208_2132
ENCODING 8498
SWIDTH 960 0
DWIDTH 24 0
BBX 24 24 0 -2
BITMAP
000000
000000
000000
000000
000000
000000
000000
000000
000000
000000
000000
000000
000000
000000
000000
000000
000000
000000
000000
000000
000000
7FFFFF
7FFFFF
000000
ENDCHAR

STARTCHAR jisx0208_2133
ENCODING 8499
SWIDTH 960 0
DWIDTH 24 0
BBX 24 24 0 -2
BITMAP
000000
000000
000000
000000
000000
000000
01C000
01F000
00FC00
003E00
001F00
000F80
000780
0003C0
0003C0
0001C0
0001C0
000000
000000
000000
000000
000000
000000
000000
ENDCHAR

STARTCHAR jisx0208_2134
ENCODING 8500
SWIDTH 960 0
DWIDTH 24 0
BBX 24 24 0 -2
BITMAP
000000
000000
000380
0003C0
000DC0
000EC0
01C700
01F300
00FC00
003E00
001F00
000F80
000780
0003C0
0003C0
0001C0
0001C0
000000
000000
000000
000000
000000
000000
000000
ENDCHAR

STARTCHAR jisx0208_2135
ENCODING 8501
SWIDTH 960 0
DWIDTH 24 0
BBX 24 24 0 -2
BITMAP
000000
000000
000000
000000
000000
038000
03E000
01F800
007C00
003E00
001F00
000F00
000780
000780
003B80
003F80
000380
000000
000000
000000
000000
000000
000000
000000
ENDCHAR

STARTCHAR jisx0208_2136
ENCODING 8502
SWIDTH 960 0
DWIDTH 24 0
BBX 24 24 0 -2
BITMAP
000000
000000
0001C0
0001E0
0006E0
038760
03E380
01F980
007C00
003E00
001F00
000F00
000780
000780
003B80
003F80
000380
000000
000000
000000
000000
000000
000000
000000
ENDCHAR

STARTCHAR jisx0208_2137
ENCODING 8503
SWIDTH 960 0
DWIDTH 24 0
BBX 24 24 0 -2
BITMAP
000000
000000
000000
000000
000000
006300
007BC0
007BC0
007380
00F780
00E700
00E700
01EF00
01CE00
01CE00
039C00
039C00
031800
000000
000000
000000
000000
000000
000000
ENDCHAR

STARTCHAR jisx0208_2138
ENCODING 8504
SWIDTH 960 0
DWIDTH 24 0
BBX 24 24 0 -2
BITMAP
003E00
003E00
007C00
007E00
00F700
01F780
03E3C0
07C1F0
0F80FC
3E007F
7C003F
7000CE
07FFF0
07FFF0
001C00
001C00
001C00
001C00
001C00
001C1C
3FFFFE
3FFFFE
000000
000000
ENDCHAR

STARTCHAR jisx0208_2139
ENCODING 8505
SWIDTH 960 0
DWIDTH 24 0
BBX 24 24 0 -2
BITMAP
000000
006000
007800
007800
007000
00F070
00EFF8
01FFF8
01C070
03C0E0
0381E0
0701C0
0F03C0
1EE380
1CF700
007F00
001E00
000F80
000780
000380
000380
000000
000000
000000
ENDCHAR

STARTCHAR jisx0208_213A
ENCODING 8506
SWIDTH 960 0
DWIDTH 24 0
BBX 24 24 0 -2
BITMAP
000000
000000
000038
00003C
00001E
00007E
0000F8
0001E0
01FBC0
03FF80
079F00
070FC0
0E3BE0
0E79F0
0CF0F0
1CE070
1DC000
1FC000
1B8000
1F0000
1F0000
0E0000
000000
000000
ENDCHAR

STARTCHAR jisx0208_213B
ENCODING 8507
SWIDTH 960 0
DWIDTH 24 0
BBX 24 24 0 -2
BITMAP
000000
00FF80
03FFE0
07C1F0
0F0078
1E003C
1C001C
38000E
38000E
300006
300006
300006
300006
300006
38000E
38000E
1C001C
1E003C
0F0078
07C1F0
03FFE0
00FF80
000000
000000
ENDCHAR

STARTCHAR jisx0208_213C
ENCODING 8508
SWIDTH 960 0
DWIDTH 24 0
BBX 24 24 0 -2
BITMAP
000000
000000
000000
000000
000000
000000
000000
000000
000000
30007C
3FFFFE
3FFFFE
1F000E
000000
000000
000000
000000
000000
000000
000000
000000
000000
000000
000000
ENDCHAR

STARTCHAR jisx0208_213D
ENCODING 8509
SWIDTH 960 0
DWIDTH 24 0
BBX 24 24 0 -2
BITMAP
000000
000000
000000
000000
000000
000000
000000
000000
000000
000000
7FFFFF
7FFFFF
7FFFFF
000000
000000
000000
000000
000000
000000
000000
000000
000000
000000
000000
ENDCHAR

STARTCHAR jisx0208_213E
ENCODING 8510
SWIDTH 960 0
DWIDTH 24 0
BBX 24 24 0 -2
BITMAP
000000
000000
000000
000000
000000
000000
000000
000000
000000
000000
007F00
007F00
007F00
000000
000000
000000
000000
000000
000000
000000
000000
000000
000000
000000
ENDCHAR

STARTCHAR jisx0208_213F
ENCODING 8511
SWIDTH 960 0
DWIDTH 24 0
BBX 24 24 0 -2
BITMAP
000007
00000F
00001E
00003C
000078
0000F0
0001E0
0003C0
000780
000F00
001E00
003C00
007800
00F000
01E000
03C000
078000
0F0000
1E0000
3C0000
780000
700000
600000
000000
ENDCHAR

STARTCHAR jisx0208_2140
ENCODING 8512
SWIDTH 960 0
DWIDTH 24 0
BBX 24 24 0 -2
BITMAP
700000
780000
3C0000
1E0000
0F0000
078000
03C000
01E000
00F000
007800
003C00
001E00
000F00
000780
0003C0
0001E0
0000F0
000078
00003C
00001E
00000F
000007
000003
000000
ENDCHAR

STARTCHAR jisx0208_2141
ENCODING 8513
SWIDTH 960 0
DWIDTH 24 0
BBX 24 24 0 -2
BITMAP
000000
000000
000000
000000
000000
000000
000000
000000
03E000
0FF806
1FFC0E
3E3E3E
381FFC
300FF8
0003E0
000000
000000
000000
000000
000000
000000
000000
000000
000000
ENDCHAR

STARTCHAR jisx0208_2142
ENCODING 8514
SWIDTH 960 0
DWIDTH 24 0
BBX 24 24 0 -2
BITMAP
01C1C0
01C1C0
01C1C0
01C1C0
01C1C0
01C1C0
01C1C0
01C1C0
01C1C0
01C1C0
01C1C0
01C1C0
01C1C0
01C1C0
01C1C0
01C1C0
01C1C0
01C1C0
01C1C0
01C1C0
01C1C0
01C1C0
01C1C0
000000
ENDCHAR

STARTCHAR jisx0208_2143
ENCODING 8515
SWIDTH 960 0
DWIDTH 24 0
BBX 24 24 0 -2
BITMAP
001C00
001C00
001C00
001C00
001C00
001C00
001C00
001C00
001C00
001C00
001C00
001C00
001C00
001C00
001C00
001C00
001C00
001C00
001C00
001C00
001C00
001C00
001C00
000000
ENDCHAR

STARTCHAR jisx0208_2144
ENCODING 8516
SWIDTH 960 0
DWIDTH 24 0
BBX 24 24 0 -2
BITMAP
000000
000000
000000
000000
000000
000000
000000
000000
000000
0E1C38
1F3E7C
1F3E7C
0E1C38
000000
000000
000000
000000
000000
000000
000000
000000
000000
000000
000000
ENDCHAR

STARTCHAR jisx0208_2145
ENCODING 8517
SWIDTH 960 0
DWIDTH 24 0
BBX 24 24 0 -2
BITMAP
000000
000000
000000
000000
000000
000000
000000
000000
000000
070070
0F80F8
0F80F8
070070
000000
000000
000000
000000
000000
000000
000000
000000
000000
000000
000000
ENDCHAR

STARTCHAR jisx0208_2146
ENCODING 8518
SWIDTH 960 0
DWIDTH 24 0
BBX 24 24 0 -2
BITMAP
000006
00000E
00001C
00001E
00001E
00001E
00000C
000000
000000
000000
000000
000000
000000
000000
000000
000000
000000
000000
000000
000000
000000
000000
000000
000000
ENDCHAR

STARTCHAR jisx0208_2147
ENCODING 8519
SWIDTH 960 0
DWIDTH 24 0
BBX 24 24 0 -2
BITMAP
180000
3C0000
3C0000
3C0000
1C0000
380000
300000
000000
000000
000000
000000
000000
000000
000000
000000
000000
000000
000000
000000
000000
000000
000000
000000
000000
ENDCHAR

STARTCHAR jisx0208_2148
ENCODING 8520
SWIDTH 960 0
DWIDTH 24 0
BBX 24 24 0 -2
BITMAP
000066
0000EE
0001DC
0001DE
0001DE
0001DE
0000CC
000000
000000
000000
000000
000000
000000
000000
000000
000000
000000
000000
000000
000000
000000
000000
000000
000000
ENDCHAR

STARTCHAR jisx0208_2149
ENCODING 8521
SWIDTH 960 0
DWIDTH 24 0
BBX 24 24 0 -2
BITMAP
198000
3BC000
3BC000
3FC000
1DC000
3B8000
330000
000000
000000
000000
000000
000000
000000
000000
000000
000000
000000
000000
000000
000000
000000
000000
000000
000000
ENDCHAR

STARTCHAR jisx0208_214A
ENCODING 8522
SWIDTH 960 0
DWIDTH 24 0
BBX 24 24 0 -2
BITMAP
00000E
00001E
00003C
000038
000078
000070
000070
0000F0
0000E0
0000E0
0000E0
0000E0
0000E0
0000E0
0000E0
0000F0
000070
000070
000078
000038
00003C
00001E
00000E
000000
ENDCHAR

STARTCHAR jisx0208_214B
ENCODING 8523
SWIDTH 960 0
DWIDTH 24 0
BBX 24 24 0 -2
BITMAP
380000
3C0000
1E0000
0E0000
0F0000
070000
070000
078000
038000
038000
038000
038000
038000
038000
038000
078000
070000
070000
0F0000
0E0000
1E0000
3C0000
380000
000000
ENDCHAR

STARTCHAR jisx0208_214C
ENCODING 8524
SWIDTH 960 0
DWIDTH 24 0
BBX 24 24 0 -2
BITMAP
00000C
00003E
0000FE
0000F8
0000E0
0000E0
0000E0
0000E0
0000E0
0000E0
0000E0
0000E0
0000E0
0000E0
0000E0
0000E0
0000E0
0000E0
0000E0
0000F8
0000FE
00003E
00000C
000000
ENDCHAR

STARTCHAR jisx0208_214D
ENCODING 8525
SWIDTH 960 0
DWIDTH 24 0
BBX 24 24 0 -2
BITMAP
180000
3E0000
3F8000
0F8000
038000
038000
038000
038000
038000
038000
038000
038000
038000
038000
038000
038000
038000
038000
038000
0F8000
3F8000
3E0000
180000
000000
ENDCHAR

STARTCHAR jisx0208_214E
ENCODING 8526
SWIDTH 960 0
DWIDTH 24 0
BBX 24 24 0 -2
BITMAP
0000FE
0000FE
0000FE
0000E0
0000E0
0000E0
0000E0
0000E0
0000E0
0000E0
0000E0
0000E0
0000E0
0000E0
0000E0
0000E0
0000E0
0000E0
0000E0
0000E0
0000FE
0000FE
0000FE
000000
ENDCHAR

STARTCHAR jisx0208_214F
ENCODING 8527
SWIDTH 960 0
DWIDTH 24 0
BBX 24 24 0 -2
BITMAP
3F8000
3F8000
3F8000
038000
038000
038000
038000
038000
038000
038000
038000
038000
038000
038000
038000
038000
038000
038000
038000
038000
3F8000
3F8000
3F8000
000000
ENDCHAR

STARTCHAR jisx0208_2150
ENCODING 8528
SWIDTH 960 0
DWIDTH 24 0
BBX 24 24 0 -2
BITMAP
00000E
00001E
00003C
000038
000038
000038
000038
000038
000038
000078
0000F0
0000E0
000078
000038
000038
000038
000038
000038
000038
000038
00003C
00001E
00000E
000000
ENDCHAR

STARTCHAR jisx0208_2151
ENCODING 8529
SWIDTH 960 0
DWIDTH 24 0
BBX 24 24 0 -2
BITMAP
380000
3C0000
1E0000
0E0000
0E0000
0E0000
0E0000
0E0000
0E0000
0F0000
078000
038000
0F0000
0E0000
0E0000
0E0000
0E0000
0E0000
0E0000
0E0000
1E0000
3C0000
380000
000000
ENDCHAR

STARTCHAR jisx0208_2152
ENCODING 8530
SWIDTH 960 0
DWIDTH 24 0
BBX 24 24 0 -2
BITMAP
00000C
00000E
00001E
00001C
00003C
000038
000078
000070
0000F0
0000E0
0001E0
0001C0
0001E0
0000E0
0000F0
000070
000078
000038
00003C
00001C
00001E
00000E
00000C
000000
ENDCHAR

STARTCHAR jisx0208_2153
ENCODING 8531
SWIDTH 960 0
DWIDTH 24 0
BBX 24 24 0 -2
BITMAP
180000
380000
3C0000
1C0000
1E0000
0E0000
0F0000
070000
078000
038000
03C000
01C000
03C000
038000
078000
070000
0F0000
0E0000
1E0000
1C0000
3C0000
380000
180000
000000
ENDCHAR

STARTCHAR jisx0208_2154
ENCODING 8532
SWIDTH 960 0
DWIDTH 24 0
BBX 24 24 0 -2
BITMAP
00006E
00006E
0000FC
0000DC
0001F8
0001B8
0003F0
000370
0007E0
0006E0
000FC0
000DC0
000FC0
0006E0
0007E0
000370
0003F0
0001B8
0001F8
0000DC
0000FC
00006E
00006E
000000
ENDCHAR

STARTCHAR jisx0208_2155
ENCODING 8533
SWIDTH 960 0
DWIDTH 24 0
BBX 24 24 0 -2
BITMAP
370000
3F0000
1B8000
1F8000
0DC000
0FC000
06E000
07E000
037000
03F000
01B800
01B800
01B800
03F000
037000
07E000
06E000
0FC000
0DC000
1F8000
1B8000
3F0000
370000
000000
ENDCHAR

STARTCHAR jisx0208_2156
ENCODING 8534
SWIDTH 960 0
DWIDTH 24 0
BBX 24 24 0 -2
BITMAP
0001FE
0001FE
0001FE
0001C0
0001C0
0001C0
0001C0
0001C0
0001C0
0001C0
0001C0
0001C0
0001C0
0001C0
0001C0
0001C0
0001C0
0001C0
0001C0
0001C0
0001C0
0001C0
0001C0
000000
ENDCHAR

STARTCHAR jisx0208_2157
ENCODING 8535
SWIDTH 960 0
DWIDTH 24 0
BBX 24 24 0 -2
BITMAP
01C000
01C000
01C000
01C000
01C000
01C000
01C000
01C000
01C000
01C000
01C000
01C000
01C000
01C000
01C000
01C000
01C000
01C000
01C000
01C000
3FC000
3FC000
3FC000
000000
ENDCHAR

STARTCHAR jisx0208_2158
ENCODING 8536
SWIDTH 960 0
DWIDTH 24 0
BBX 24 24 0 -2
BITMAP
0001FE
0001FE
000186
0001BE
0001BE
0001B0
0001B0
0001B0
0001B0
0001B0
0001B0
0001B0
0001B0
0001B0
0001B0
0001B0
0001B0
0001B0
0001B0
0001B0
0001B0
0001F0
0001F0
000000
ENDCHAR

STARTCHAR jisx0208_2159
ENCODING 8537
SWIDTH 960 0
DWIDTH 24 0
BBX 24 24 0 -2
BITMAP
07C000
07C000
06C000
06C000
06C000
06C000
06C000
06C000
06C000
06C000
06C000
06C000
06C000
06C000
06C000
06C000
06C000
06C000
3EC000
3EC000
30C000
3FC000
3FC000
000000
ENDCHAR

STARTCHAR jisx0208_215A
ENCODING 8538
SWIDTH 960 0
DWIDTH 24 0
BBX 24 24 0 -2
BITMAP
0000FE
0000FE
0000FC
0000F8
0000F8
0000F0
0000F0
0000F0
0000E0
0000E0
0000E0
0000E0
0000E0
0000E0
0000E0
0000F0
0000F0
0000F0
0000F8
0000F8
0000FC
0000FE
0000FE
000000
ENDCHAR

STARTCHAR jisx0208_215B
ENCODING 8539
SWIDTH 960 0
DWIDTH 24 0
BBX 24 24 0 -2
BITMAP
3F8000
3F8000
1F8000
0F8000
0F8000
078000
078000
078000
038000
038000
038000
038000
038000
038000
038000
078000
078000
078000
0F8000
0F8000
1F8000
3F8000
3F8000
000000
ENDCHAR

STARTCHAR jisx0208_215C
ENCODING 8540
SWIDTH 960 0
DWIDTH 24 0
BBX 24 24 0 -2
BITMAP
000000
000000
000000
001C00
001C00
001C00
001C00
001C00
001C00
001C00
0FFFF8
0FFFF8
0FFFF8
001C00
001C00
001C00
001C00
001C00
001C00
001C00
000000
000000
000000
000000
ENDCHAR

STARTCHAR jisx0208_215D
ENCODING 8541
SWIDTH 960 0
DWIDTH 24 0
BBX 24 24 0 -2
BITMAP
000000
000000
000000
000000
000000
000000
000000
000000
000000
000000
0FFFF8
0FFFF8
0FFFF8
000000
000000
000000
000000
000000
000000
000000
000000
000000
000000
000000
ENDCHAR

STARTCHAR jisx0208_215E
ENCODING 8542
SWIDTH 960 0
DWIDTH 24 0
BBX 24 24 0 -2
BITMAP
000000
000000
000000
001C00
001C00
001C00
001C00
001C00
0FFFF8
0FFFF8
0FFFF8
001C00
001C00
001C00
001C00
001C00
000000
0FFFF8
0FFFF8
0FFFF8
000000
000000
000000
000000
ENDCHAR

STARTCHAR jisx0208_215F
ENCODING 8543
SWIDTH 960 0
DWIDTH 24 0
BBX 24 24 0 -2
BITMAP
000000
000000
000000
000000
030060
0780F0
07C1F0
03E3E0
01F7C0
00FF80
007F00
003E00
007F00
00FF80
01F7C0
03E3E0
07C1F0
0780F0
030060
000000
000000
000000
000000
000000
ENDCHAR

STARTCHAR jisx0208_2160
ENCODING 8544
SWIDTH 960 0
DWIDTH 24 0
BBX 24 24 0 -2
BITMAP
000000
000000
000000
000000
001C00
003E00
003E00
001C00
000000
000000
0FFFF8
0FFFF8
0FFFF8
000000
000000
001C00
003E00
003E00
001C00
000000
000000
000000
000000
000000
ENDCHAR

STARTCHAR jisx0208_2161
ENCODING 8545
SWIDTH 960 0
DWIDTH 24 0
BBX 24 24 0 -2
BITMAP
000000
000000
000000
000000
000000
000000
0FFFF8
0FFFF8
0FFFF8
000000
000000
000000
000000
0FFFF8
0FFFF8
0FFFF8
000000
000000
000000
000000
000000
000000
000000
000000
ENDCHAR

STARTCHAR jisx0208_2162
ENCODING 8546
SWIDTH 960 0
DWIDTH 24 0
BBX 24 24 0 -2
BITMAP
000000
000000
0000C0
0001C0
0001C0
000380
0FFFF8
0FFFF8
0FFFF8
000E00
001C00
001C00
003800
0FFFF8
0FFFF8
0FFFF8
00E000
01C000
01C000
018000
000000
000000
000000
000000
ENDCHAR

STARTCHAR jisx0208_2163
ENCODING 8547
SWIDTH 960 0
DWIDTH 24 0
BBX 24 24 0 -2
BITMAP
000000
000000
000000
000030
0000F8
0003F8
000FE0
003F80
00FE00
03F800
0FE000
0F8000
0FE000
03F800
00FE00
003F80
000FE0
0003F8
0000F8
000030
000000
000000
000000
000000
ENDCHAR

STARTCHAR jisx0208_2164
ENCODING 8548
SWIDTH 960 0
DWIDTH 24 0
BBX 24 24 0 -2
BITMAP
000000
000000
000000
060000
0F8000
0FE000
03F800
00FE00
003F80
000FE0
0003F8
0000F8
0003F8
000FE0
003F80
00FE00
03F800
0FE000
0F8000
060000
000000
000000
000000
000000
ENDCHAR

STARTCHAR jisx0208_2165
ENCODING 8549
SWIDTH 960 0
DWIDTH 24 0
BBX 24 24 0 -2
BITMAP
000000
000000
000070
0003F8
001FF8
00FFC0
07FE00
1FF000
1F8000
07FE00
00FFC0
001FF8
0003F8
000070
1FFF88
1FFFF8
1FFFF8
000000
1FFFF8
1FFFF8
1FFFF8
000000
000000
000000
ENDCHAR

STARTCHAR jisx0208_2166
ENCODING 8550
SWIDTH 960 0
DWIDTH 24 0
BBX 24 24 0 -2
BITMAP
000000
000000
0E0000
1FC000
1FF800
03FF00
007FE0
000FF8
0001F8
007FE0
03FF00
1FF800
1FC000
0E0000
11FFF8
1FFFF8
1FFFF8
000000
1FFFF8
1FFFF8
1FFFF8
000000
000000
000000
ENDCHAR

STARTCHAR jisx0208_2167
ENCODING 8551
SWIDTH 960 0
DWIDTH 24 0
BBX 24 24 0 -2
BITMAP
000000
000000
000000
000000
000000
000000
07C1F0
1FE3FC
1FF7FC
3C7F1E
383E0E
381C0E
383E0E
3C7F1E
1FF7FC
1FE3FC
07C1F0
000000
000000
000000
000000
000000
000000
000000
ENDCHAR

STARTCHAR jisx0208_2168
ENCODING 8552
SWIDTH 960 0
DWIDTH 24 0
BBX 24 24 0 -2
BITMAP
000000
000000
000000
000000
001C00
003E00
003E00
001C00
000000
000000
000000
000000
000000
000000
000000
070070
0F80F8
0F80F8
070070
000000
000000
000000
000000
000000
ENDCHAR

STARTCHAR jisx0208_2169
ENCODING 8553
SWIDTH 960 0
DWIDTH 24 0
BBX 24 24 0 -2
BITMAP
000000
000000
000FFC
000FFC
000FFC
00007C
0001FC
0003DC
0007DC
03EF9C
0FFF1C
0FFE1C
1E1C00
1C0E00
1C0E00
1C0E00
1C0E00
1E1E00
0FFC00
0FFC00
03F000
000000
000000
000000
ENDCHAR

STARTCHAR jisx0208_216A
ENCODING 8554
SWIDTH 960 0
DWIDTH 24 0
BBX 24 24 0 -2
BITMAP
000000
003E00
00FF80
01FFC0
01E3C0
03C1E0
0380E0
0380E0
0380E0
03C1E0
01E3C0
01FFC0
00FF80
003E00
001C00
07FFF0
07FFF0
07FFF0
001C00
001C00
001C00
001C00
000000
000000
ENDCHAR

STARTCHAR jisx0208_216B
ENCODING 8555
SWIDTH 960 0
DWIDTH 24 0
BBX 24 24 0 -2
BITMAP
3C0000
7E0000
660000
660000
7E0000
3C0000
000000
000000
000000
000000
000000
000000
000000
000000
000000
000000
000000
000000
000000
000000
000000
000000
000000
000000
ENDCHAR

STARTCHAR jisx0208_216C
ENCODING 8556
SWIDTH 960 0
DWIDTH 24 0
BBX 24 24 0 -2
BITMAP
1C0000
1C0000
3C0000
380000
780000
700000
600000
000000
000000
000000
000000
000000
000000
000000
000000
000000
000000
000000
000000
000000
000000
000000
000000
000000
ENDCHAR

STARTCHAR jisx0208_216D
ENCODING 8557
SWIDTH 960 0
DWIDTH 24 0
BBX 24 24 0 -2
BITMAP
1DC000
1DC000
3FC000
3B8000
7F8000
770000
660000
000000
000000
000000
000000
000000
000000
000000
000000
000000
000000
000000
000000
000000
000000
000000
000000
000000
ENDCHAR

STARTCHAR jisx0208_216E
ENCODING 8558
SWIDTH 960 0
DWIDTH 24 0
BBX 24 24 0 -2
BITMAP
1E0000
3F0000
331FD8
337FF8
3FF8F8
1EE03C
01C01C
03C00C
03800C
038000
038000
038000
038000
038000
03800C
03C00C
01C01C
01E03C
00F8F8
007FF0
001FC0
000000
000000
000000
ENDCHAR

STARTCHAR jisx0208_216F
ENCODING 8559
SWIDTH 960 0
DWIDTH 24 0
BBX 24 24 0 -2
BITMAP
000000
000000
0FE1F8
0FE1F8
038060
03C0E0
01C1C0
01E1C0
00E380
00F380
007700
07F7F0
07FFF0
003E00
07DDF0
07FFF0
001C00
001C00
001C00
007F00
007F00
000000
000000
000000
ENDCHAR

STARTCHAR jisx0208_2170
ENCODING 8560
SWIDTH 960 0
DWIDTH 24 0
BBX 24 24 0 -2
BITMAP
001800
001800
01FEC0
07FFC0
0797E0
0F19E0
0E18E0
0E1860
0F1860
07D800
07FE00
01FFC0
003FE0
0C1BF0
0C18F0
0E1870
0E1870
0718F0
07D9E0
07FFE0
06FF80
001800
001800
000000
ENDCHAR

STARTCHAR jisx0208_2171
ENCODING 8561
SWIDTH 960 0
DWIDTH 24 0
BBX 24 24 0 -2
BITMAP
000000
000000
000000
000000
000000
000300
000300
007F80
01FFC0
01E5E0
03CEE0
038DE0
038DE0
039CC0
039C00
039800
03B860
03B8E0
01F1E0
01FFC0
007F80
006000
006000
000000
ENDCHAR

STARTCHAR jisx0208_2172
ENCODING 8562
SWIDTH 960 0
DWIDTH 24 0
BBX 24 24 0 -2
BITMAP
000000
000000
001F80
003FC0
0078E0
0071E0
0071E0
0070C0
007000
007800
07BFE0
07FFE0
003800
003800
003800
07B800
0FF818
0EFE38
0C3FF8
0FEFF0
07E3E0
000000
000000
000000
ENDCHAR

STARTCHAR jisx0208_2173
ENCODING 8563
SWIDTH 960 0
DWIDTH 24 0
BBX 24 24 0 -2
BITMAP
000000
000000
0F8060
1FC0F0
3DE1F0
38E1E0
38E3C0
38E780
38E780
3DEF00
1FDE00
0FBEF8
003DFC
007BDE
00F38E
00F38E
01E38E
03C38E
07C3DE
0781FC
0300F8
000000
000000
000000
ENDCHAR

STARTCHAR jisx0208_2174
ENCODING 8564
SWIDTH 960 0
DWIDTH 24 0
BBX 24 24 0 -2
BITMAP
000000
000000
0060C0
0060C0
0060C0
0060C0
07FFF8
07FFF8
07FFF8
07FFF8
00C180
00C180
00C180
0FFFF0
0FFFF0
0FFFF0
0FFFF0
018300
018300
018300
018300
000000
000000
000000
ENDCHAR

STARTCHAR jisx0208_2175
ENCODING 8565
SWIDTH 960 0
DWIDTH 24 0
BBX 24 24 0 -2
BITMAP
000000
000000
00FC00
01FE00
01EE00
01C600
01CE00
01DE00
01FC00
00F800
01F000
03FBF0
07BFF0
0F3CC0
0E1EC0
0E0FC0
0E0FD8
0F0798
0783F8
07FFF8
01FEF0
000000
000000
000000
ENDCHAR

STARTCHAR jisx0208_2176
ENCODING 8566
SWIDTH 960 0
DWIDTH 24 0
BBX 24 24 0 -2
BITMAP
000000
000000
000000
001800
003C00
003C00
03BDC0
03FFC0
03DBC0
01F780
007E00
003C00
01FF80
03D7C0
03FBC0
03BDC0
003C00
003C00
001800
000000
000000
000000
000000
000000
ENDCHAR

STARTCHAR jisx0208_2177
ENCODING 8567
SWIDTH 960 0
DWIDTH 24 0
BBX 24 24 0 -2
BITMAP
000000
000000
00FF80
03FFE0
07C1F0
0F0078
0E3EB8
1C7FDC
1CF3DC
18E1CC
19E1CC
19C3CC
19C38C
19C39C
1DE7BC
1CFFF8
0E7DF0
0F0000
07C1F0
03FFE0
00FF80
000000
000000
000000
ENDCHAR

STARTCHAR jisx0208_2178
ENCODING 8568
SWIDTH 960 0
DWIDTH 24 0
BBX 24 24 0 -2
BITMAP
000000
007E00
00FF00
01E380
01C780
01C780
01E300
00F800
007E00
01DF00
01C780
01C380
01E380
00F780
007F00
001E00
00C780
01E380
01E380
01E780
00DF00
007E00
000000
000000
ENDCHAR

STARTCHAR jisx0208_2179
ENCODING 8569
SWIDTH 960 0
DWIDTH 24 0
BBX 24 24 0 -2
BITMAP
000000
001C00
001C00
003E00
003E00
003E00
007F00
007700
3FF7FE
3FE3FE
1FE3FC
0F0078
03C1E0
01C1C0
01DDC0
03FFE0
03BEE0
0377E0
07E3F0
07C1F0
070070
060030
000000
000000
ENDCHAR

STARTCHAR jisx0208_217A
ENCODING 8570
SWIDTH 960 0
DWIDTH 24 0
BBX 24 24 0 -2
BITMAP
000000
001C00
001C00
003E00
003E00
003E00
007F00
007F00
3FFFFE
3FFFFE
1FFFFC
0FFFF8
03FFE0
01FFC0
01FFC0
03FFE0
03FFE0
03F7E0
07E3F0
07C1F0
070070
060030
000000
000000
ENDCHAR

STARTCHAR jisx0208_217B
ENCODING 8571
SWIDTH 960 0
DWIDTH 24 0
BBX 24 24 0 -2
BITMAP
000000
00FF80
03FFE0
07FFF0
0FC1F8
1F007C
1E003C
3C001E
3C001E
38000E
38000E
38000E
38000E
38000E
3C001E
3C001E
1E003C
1F007C
0FC1F8
07FFF0
03FFE0
00FF80
000000
000000
ENDCHAR

STARTCHAR jisx0208_217C
ENCODING 8572
SWIDTH 960 0
DWIDTH 24 0
BBX 24 24 0 -2
BITMAP
000000
00FF80
03FFE0
07FFF0
0FFFF8
1FFFFC
1FFFFC
3FFFFE
3FFFFE
3FFFFE
3FFFFE
3FFFFE
3FFFFE
3FFFFE
3FFFFE
3FFFFE
1FFFFC
1FFFFC
0FFFF8
07FFF0
03FFE0
00FF80
000000
000000
ENDCHAR

STARTCHAR jisx0208_217D
ENCODING 8573
SWIDTH 960 0
DWIDTH 24 0
BBX 24 24 0 -2
BITMAP
000000
00FF80
03FFE0
07FFF0
0FC1F8
1F3E7C
1EFFBC
3DFFDE
3DE3DE
3BC1EE
3B80EE
3B80EE
3B80EE
3BC1EE
3DE3DE
3DFFDE
1EFFBC
1F3E7C
0FC1F8
07FFF0
03FFE0
00FF80
000000
000000
ENDCHAR

STARTCHAR jisx0208_217E
ENCODING 8574
SWIDTH 960 0
DWIDTH 24 0
BBX 24 24 0 -2
BITMAP
001C00
003E00
007F00
00FF80
01F7C0
03E3E0
07C1F0
0F80F8
1F007C
3E003E
7C001F
78000F
7C001F
3E003E
1F007C
0F80F8
07C1F0
03E3E0
01F7C0
00FF80
007F00
003E00
001C00
000000
ENDCHAR

STARTCHAR jisx0208_2221
ENCODING 8737
SWIDTH 960 0
DWIDTH 24 0
BBX 24 24 0 -2
BITMAP
001C00
003E00
007F00
00FF80
01FFC0
03FFE0
07FFF0
0FFFF8
1FFFFC
3FFFFE
7FFFFF
7FFFFF
7FFFFF
3FFFFE
1FFFFC
0FFFF8
07FFF0
03FFE0
01FFC0
00FF80
007F00
003E00
001C00
000000
ENDCHAR

STARTCHAR jisx0208_2222
ENCODING 8738
SWIDTH 960 0
DWIDTH 24 0
BBX 24 24 0 -2
BITMAP
000000
000000
1FFFFC
1FFFFC
1FFFFC
1C001C
1C001C
1C001C
1C001C
1C001C
1C001C
1C001C
1C001C
1C001C
1C001C
1C001C
1C001C
1C001C
1FFFFC
1FFFFC
1FFFFC
000000
000000
000000
ENDCHAR

STARTCHAR jisx0208_2223
ENCODING 8739
SWIDTH 960 0
DWIDTH 24 0
BBX 24 24 0 -2
BITMAP
000000
000000
1FFFFC
1FFFFC
1FFFFC
1FFFFC
1FFFFC
1FFFFC
1FFFFC
1FFFFC
1FFFFC
1FFFFC
1FFFFC
1FFFFC
1FFFFC
1FFFFC
1FFFFC
1FFFFC
1FFFFC
1FFFFC
1FFFFC
000000
000000
000000
ENDCHAR

STARTCHAR jisx0208_2224
ENCODING 8740
SWIDTH 960 0
DWIDTH 24 0
BBX 24 24 0 -2
BITMAP
000000
000000
001C00
001C00
003E00
007F00
007F00
00F780
00E380
01E3C0
03C1E0
03C1E0
0780F0
070070
0F0078
1E003C
1E003C
3DFFDE
3FFFFE
3FFFFE
000000
000000
000000
000000
ENDCHAR

STARTCHAR jisx0208_2225
ENCODING 8741
SWIDTH 960 0
DWIDTH 24 0
BBX 24 24 0 -2
BITMAP
000000
000000
001C00
001C00
003E00
007F00
007F00
00FF80
00FF80
01FFC0
03FFE0
03FFE0
07FFF0
07FFF0
0FFFF8
1FFFFC
1FFFFC
3FFFFE
3FFFFE
3FFFFE
000000
000000
000000
000000
ENDCHAR

STARTCHAR jisx0208_2226
ENCODING 8742
SWIDTH 960 0
DWIDTH 24 0
BBX 24 24 0 -2
BITMAP
000000
000000
000000
3FFFFE
3FFFFE
3FFFFE
1C001C
1E003C
0F0078
070070
0780F0
03C1E0
03C1E0
01E3C0
00E380
00F780
007F00
007F00
003E00
001C00
001C00
000000
000000
000000
ENDCHAR

STARTCHAR jisx0208_2227
ENCODING 8743
SWIDTH 960 0
DWIDTH 24 0
BBX 24 24 0 -2
BITMAP
000000
000000
000000
3FFFFE
3FFFFE
3FFFFE
1FFFFC
1FFFFC
0FFFF8
07FFF0
07FFF0
03FFE0
03FFE0
01FFC0
00FF80
00FF80
007F00
007F00
003E00
001C00
001C00
000000
000000
000000
ENDCHAR

STARTCHAR jisx0208_2228
ENCODING 8744
SWIDTH 960 0
DWIDTH 24 0
BBX 24 24 0 -2
BITMAP
000000
000000
0C1C18
1E3E3C
1F3E7C
0FBEF8
07DDF0
03E3E0
01F7C0
0EFFB8
1F7F7C
1F3E7C
1F7F7C
0EFFB8
01F7C0
03E3E0
07DDF0
0FBEF8
1F3E7C
1E3E3C
0C1C18
000000
000000
000000
ENDCHAR

STARTCHAR jisx0208_2229
ENCODING 8745
SWIDTH 960 0
DWIDTH 24 0
BBX 24 24 0 -2
BITMAP
000000
000000
1FFFF8
1FFFF8
1FFFF8
1FFFF8
000000
1FFFF8
1FFFF8
1FFFF8
1FFFF8
003C00
003C00
003C00
003C00
003C00
003C00
003C00
003C00
003C00
003C00
000000
000000
000000
ENDCHAR

STARTCHAR jisx0208_222A
ENCODING 8746
SWIDTH 960 0
DWIDTH 24 0
BBX 24 24 0 -2
BITMAP
000000
000000
000000
000000
000000
000000
000000
0000C0
0000F0
00007C
7FFFBF
7FFFFF
7FFFFF
00003C
0000F0
0000C0
000000
000000
000000
000000
000000
000000
000000
000000
ENDCHAR

STARTCHAR jisx0208_222B
ENCODING 8747
SWIDTH 960 0
DWIDTH 24 0
BBX 24 24 0 -2
BITMAP
000000
000000
000000
000000
000000
000000
000000
018000
078000
1F0000
7EFFFF
7FFFFF
7FFFFF
1E0000
078000
018000
000000
000000
000000
000000
000000
000000
000000
000000
ENDCHAR

STARTCHAR jisx0208_222C
ENCODING 8748
SWIDTH 960 0
DWIDTH 24 0
BBX 24 24 0 -2
BITMAP
001C00
001C00
003E00
003E00
007F00
007F00
00DB80
00DD80
001C00
001C00
001C00
001C00
001C00
001C00
001C00
001C00
001C00
001C00
001C00
001C00
001C00
001C00
001C00
000000
ENDCHAR

STARTCHAR jisx0208_222D
ENCODING 8749
SWIDTH 960 0
DWIDTH 24 0
BBX 24 24 0 -2
BITMAP
001C00
001C00
001C00
001C00
001C00
001C00
001C00
001C00
001C00
001C00
001C00
001C00
001C00
001C00
001C00
00DD80
00DF80
007B00
007F00
003E00
003E00
001C00
001C00
000000
ENDCHAR

STARTCHAR jisx0208_222E
ENCODING 8750
SWIDTH 960 0
DWIDTH 24 0
BBX 24 24 0 -2
BITMAP
000000
000000
000000
000000
000000
000000
0FFFF8
0FFFF8
0FFFF8
0FFFF8
000000
000000
000000
0FFFF8
0FFFF8
0FFFF8
0FFFF8
000000
000000
000000
000000
000000
000000
000000
ENDCHAR

STARTCHAR jisx0208_222F
ENCODING 8751
SWIDTH 960 0
DWIDTH 24 0
BBX 24 24 0 -2
BITMAP
000000
300006
300006
000000
000000
000000
000000
000000
000000
000000
000000
000000
000000
000000
000000
000000
000000
000000
000000
000000
300006
300006
000000
000000
ENDCHAR

STARTCHAR jisx0208_223A
ENCODING 8762
SWIDTH 960 0
DWIDTH 24 0
BBX 24 24 0 -2
BITMAP
000000
000000
000000
000000
01FFF8
07FFF8
0FFFF8
0F0000
1E0000
1C0000
1FFFF8
1FFFF8
1FFFF8
1C0000
1E0000
0F0000
0FFFF8
07FFF8
01FFF8
000000
000000
000000
000000
000000
ENDCHAR

STARTCHAR jisx0208_223B
ENCODING 8763
SWIDTH 960 0
DWIDTH 24 0
BBX 24 24 0 -2
BITMAP
000000
000000
000000
000000
0FFFC0
0FFFF0
0FFFF8
000078
00003C
00001C
0FFFFC
0FFFFC
0FFFFC
00001C
00003C
000078
0FFFF8
0FFFF0
0FFFC0
000000
000000
000000
000000
000000
ENDCHAR

STARTCHAR jisx0208_223C
ENCODING 8764
SWIDTH 960 0
DWIDTH 24 0
BBX 24 24 0 -2
BITMAP
000000
000000
000000
00FFF8
03FFF8
07FFF8
078000
0F0000
0E0000
0E0000
0E0000
0F0000
078000
07FFF8
03FFF8
00FFF8
000000
0FFFF8
0FFFF8
0FFFF8
000000
000000
000000
000000
ENDCHAR

STARTCHAR jisx0208_223D
ENCODING 8765
SWIDTH 960 0
DWIDTH 24 0
BBX 24 24 0 -2
BITMAP
000000
000000
000000
0FFF80
0FFFE0
0FFFF0
0000F0
000078
000038
000038
000038
000078
0000F0
0FFFF0
0FFFE0
0FFF80
000000
0FFFF8
0FFFF8
0FFFF8
000000
000000
000000
000000
ENDCHAR

STARTCHAR jisx0208_223E
ENCODING 8766
SWIDTH 960 0
DWIDTH 24 0
BBX 24 24 0 -2
BITMAP
000000
000000
000000
000000
00FFF8
03FFF8
07FFF8
078000
0F0000
0E0000
0E0000
0E0000
0E0000
0E0000
0F0000
078000
07FFF8
03FFF8
00FFF8
000000
000000
000000
000000
000000
ENDCHAR

STARTCHAR jisx0208_223F
ENCODING 8767
SWIDTH 960 0
DWIDTH 24 0
BBX 24 24 0 -2
BITMAP
000000
000000
000000
000000
0FFF80
0FFFE0
0FFFF0
0000F0
000078
000038
000038
000038
000038
000038
000078
0000F0
0FFFF0
0FFFE0
0FFF80
000000
000000
000000
000000
000000
ENDCHAR

STARTCHAR jisx0208_2240
ENCODING 8768
SWIDTH 960 0
DWIDTH 24 0
BBX 24 24 0 -2
BITMAP
000000
000000
000000
070070
070070
070070
070070
070070
070070
070070
070070
070070
070070
070070
070070
0780F0
03C1E0
03FFE0
01FFC0
007F00
000000
000000
000000
000000
ENDCHAR

STARTCHAR jisx0208_2241
ENCODING 8769
SWIDTH 960 0
DWIDTH 24 0
BBX 24 24 0 -2
BITMAP
000000
000000
000000
007F00
01FFC0
03FFE0
03C1E0
0780F0
070070
070070
070070
070070
070070
070070
070070
070070
070070
070070
070070
070070
000000
000000
000000
000000
ENDCHAR

STARTCHAR jisx0208_224A
ENCODING 8778
SWIDTH 960 0
DWIDTH 24 0
BBX 24 24 0 -2
BITMAP
000000
000000
000000
001C00
001C00
003E00
003E00
007F00
007700
00F780
00E380
01E3C0
01C1C0
03C1E0
0380E0
0780F0
070070
0F0078
0E0038
060030
000000
000000
000000
000000
ENDCHAR

STARTCHAR jisx0208_224B
ENCODING 8779
SWIDTH 960 0
DWIDTH 24 0
BBX 24 24 0 -2
BITMAP
000000
000000
000000
060030
0E0038
0F0078
070070
0780F0
0380E0
03C1E0
01C1C0
01E3C0
00E380
00F780
007700
007F00
003E00
003E00
001C00
001C00
000000
000000
000000
000000
ENDCHAR

STARTCHAR jisx0208_224C
ENCODING 8780
SWIDTH 960 0
DWIDTH 24 0
BBX 24 24 0 -2
BITMAP
000000
000000
000000
000000
000000
000000
000000
000000
3FFFFC
3FFFFC
3FFFFC
00001C
00001C
00001C
00001C
00001C
000000
000000
000000
000000
000000
000000
000000
000000
ENDCHAR

STARTCHAR jisx0208_224D
ENCODING 8781
SWIDTH 960 0
DWIDTH 24 0
BBX 24 24 0 -2
BITMAP
000000
000000
000000
000180
0003C0
0003E0
0001F0
7FFEF8
7FFFFC
7FFFFE
00001F
00000F
7FFFFE
7FFFFC
7FFFF8
0000F0
0003E0
0003C0
000180
000000
000000
000000
000000
000000
ENDCHAR

STARTCHAR jisx0208_224E
ENCODING 8782
SWIDTH 960 0
DWIDTH 24 0
BBX 24 24 0 -2
BITMAP
000000
000000
000000
00C180
01E3C0
03E3E0
07C1F0
0FBEF8
1FFFFC
3FFFFE
7C001F
78000F
3FFFFE
1FFFFC
0FFFF8
0780F0
03E3E0
01E3C0
00C180
000000
000000
000000
000000
000000
ENDCHAR

STARTCHAR jisx0208_224F
ENCODING 8783
SWIDTH 960 0
DWIDTH 24 0
BBX 24 24 0 -2
BITMAP
000000
000000
000000
060030
0E0038
0F0078
070070
07FFF0
03FFE0
03FFE0
01C1C0
01E3C0
00E380
00F780
007700
007F00
003E00
003E00
001C00
001C00
000000
000000
000000
000000
ENDCHAR

STARTCHAR jisx0208_2250
ENCODING 8784
SWIDTH 960 0
DWIDTH 24 0
BBX 24 24 0 -2
BITMAP
000000
000000
000000
07FFE0
07FFE0
07FFE0
0000E0
0000E0
0000E0
0000E0
07FFE0
07FFE0
07FFE0
0000E0
0000E0
0000E0
0000E0
07FFE0
07FFE0
07FFE0
000000
000000
000000
000000
ENDCHAR

STARTCHAR jisx0208_225C
ENCODING 8796
SWIDTH 960 0
DWIDTH 24 0
BBX 24 24 0 -2
BITMAP
000000
000000
000000
000030
000070
0000F0
0001F0
0003E0
0007C0
000F80
001F00
003E00
007C00
00F800
01F000
03E000
07C000
0FBFF0
0FFFF0
0FFFF0
000000
000000
000000
000000
ENDCHAR

STARTCHAR jisx0208_225D
ENCODING 8797
SWIDTH 960 0
DWIDTH 24 0
BBX 24 24 0 -2
BITMAP
000000
000000
000000
001C00
001C00
001C00
001C00
001C00
001C00
001C00
001C00
001C00
001C00
001C00
001C00
001C00
001C00
0FFFF8
0FFFF8
0FFFF8
000000
000000
000000
000000
ENDCHAR

STARTCHAR jisx0208_225E
ENCODING 8798
SWIDTH 960 0
DWIDTH 24 0
BBX 24 24 0 -2
BITMAP
007F00
03FFE0
0FFFF8
1FC1FC
3E003E
38000E
300006
000000
000000
000000
000000
000000
000000
000000
000000
000000
000000
000000
000000
000000
000000
000000
000000
000000
ENDCHAR

STARTCHAR jisx0208_225F
ENCODING 8799
SWIDTH 960 0
DWIDTH 24 0
BBX 24 24 0 -2
BITMAP
000000
000000
007F00
00FF80
01E3C0
01C1C0
0181E0
001EE0
007FE0
00F9E0
01E0E0
01C0E0
03C0E0
0380E0
0380E0
0381E0
0381C0
03C3C0
01E780
01FF00
007E00
000000
000000
000000
ENDCHAR

STARTCHAR jisx0208_2260
ENCODING 8800
SWIDTH 960 0
DWIDTH 24 0
BBX 24 24 0 -2
BITMAP
000000
000000
000000
3FFFFE
3FFFFE
3FFFFE
1C000C
1E003C
0F0038
078070
0780F0
03C0E0
01E1C0
01E3C0
00F380
007700
007F00
003E00
001C00
001C00
000000
000000
000000
000000
ENDCHAR

STARTCHAR jisx0208_2261
ENCODING 8801
SWIDTH 960 0
DWIDTH 24 0
BBX 24 24 0 -2
BITMAP
000000
000000
000000
000000
000000
000000
0FFFF8
0FFFF8
0FFFF8
000000
0FFFF8
0FFFF8
0FFFF8
000000
0FFFF8
0FFFF8
0FFFF8
000000
000000
000000
000000
000000
000000
000000
ENDCHAR

STARTCHAR jisx0208_2262
ENCODING 8802
SWIDTH 960 0
DWIDTH 24 0
BBX 24 24 0 -2
BITMAP
000000
000000
000000
01C000
03E000
03E000
01C000
000000
0FFFF8
0FFFF8
0FFFF8
000000
0FFFF8
0FFFF8
0FFFF8
000000
0001C0
0003E0
0003E0
0001C0
000000
000000
000000
000000
ENDCHAR

STARTCHAR jisx0208_2263
ENCODING 8803
SWIDTH 960 0
DWIDTH 24 0
BBX 24 24 0 -2
BITMAP
000000
000000
000C30
001E78
003EF8
007DF0
00FBE0
01F7C0
03EF80
07DF00
0FBE00
0F3C00
07DF00
03EF80
01F7C0
00FBE0
007DF0
003EF8
001E78
000C30
000000
000000
000000
000000
ENDCHAR

STARTCHAR jisx0208_2264
ENCODING 8804
SWIDTH 960 0
DWIDTH 24 0
BBX 24 24 0 -2
BITMAP
000000
000000
061800
0F3C00
0FBE00
07DF00
03EF80
01F7C0
00FBE0
007DF0
003EF8
001E78
007DF0
00FBE0
01F7C0
03EF80
07DF00
0FBE00
0F3C00
061800
000000
000000
000000
000000
ENDCHAR

STARTCHAR jisx0208_2265
ENCODING 8805
SWIDTH 960 0
DWIDTH 24 0
BBX 24 24 0 -2
BITMAP
0007FF
0007FF
000600
000E00
000E00
000C00
001C00
001C00
001800
003800
003800
003000
0C7000
1E7000
3E6000
7EE000
76E000
67C000
03C000
03C000
018000
018000
000000
000000
ENDCHAR

STARTCHAR jisx0208_2266
ENCODING 8806
SWIDTH 960 0
DWIDTH 24 0
BBX 24 24 0 -2
BITMAP
000000
000000
000000
000000
000000
000000
0781F0
1FE3FC
1FE7FC
3CEF1E
381E0E
381C0E
383C0E
3C7B9E
1FF3FC
1FE3FC
07C0F0
000000
000000
000000
000000
000000
000000
000000
ENDCHAR

STARTCHAR jisx0208_2267
ENCODING 8807
SWIDTH 960 0
DWIDTH 24 0
BBX 24 24 0 -2
BITMAP
000000
000000
000000
000000
000000
000000
07C1F0
1FE3FC
1FF7FC
3C7F1C
383E00
381C00
383E00
3C7F1C
1FF7FC
1FE3FC
07C1F0
000000
000000
000000
000000
000000
000000
000000
ENDCHAR

STARTCHAR jisx0208_2268
ENCODING 8808
SWIDTH 960 0
DWIDTH 24 0
BBX 24 24 0 -2
BITMAP
000000
000000
000000
000000
070070
0F80F8
0F80F8
070070
000000
000000
000000
000000
000000
000000
000000
001C00
003E00
003E00
001C00
000000
000000
000000
000000
000000
ENDCHAR

STARTCHAR jisx0208_2269
ENCODING 8809
SWIDTH 960 0
DWIDTH 24 0
BBX 24 24 0 -2
BITMAP
000F00
001F80
003980
003780
003F80
003B00
003800
003800
003C00
001C00
001C00
001C00
001C00
001C00
001E00
000E00
000E00
006E00
00EE00
00EE00
00EE00
00DC00
007800
000000
ENDCHAR

STARTCHAR jisx0208_226A
ENCODING 8810
SWIDTH 960 0
DWIDTH 24 0
BBX 24 24 0 -2
BITMAP
00F0F0
01F9F8
039B98
037B78
03FBF8
03B3B0
038380
038380
03C3C0
01C1C0
01C1C0
01C1C0
01C1C0
01C1C0
01E1E0
00E0E0
00E0E0
06E6E0
0EEEE0
0EEEE0
0EEEE0
0DCDC0
078780
000000
ENDCHAR

STARTCHAR jisx0208_2272
ENCODING 8818
SWIDTH 960 0
DWIDTH 24 0
BBX 24 24 0 -2
BITMAP
001C00
003E00
003600
003E00
001C00
000000
001C00
003E00
003E00
006F00
007700
00E780
00E380
01C3C0
01C1C0
03BFE0
03FFE0
0700F0
070070
1E81FC
1F81FC
000000
000000
000000
ENDCHAR

STARTCHAR jisx0208_2273
ENCODING 8819
SWIDTH 960 0
DWIDTH 24 0
BBX 24 24 0 -2
BITMAP
000000
000000
3E1800
7F1C00
773C00
773800
777800
777000
77F000
7EE000
3FE000
01C000
03FE7C
03BEFE
0776EE
0776EE
0F76EE
0E76EE
1E76EE
1C7EFE
0C3E7C
000000
000000
000000
ENDCHAR

STARTCHAR jisx0208_2274
ENCODING 8820
SWIDTH 960 0
DWIDTH 24 0
BBX 24 24 0 -2
BITMAP
000000
000000
000300
00C300
00C300
00C3F0
00FFF0
0FFFF0
0FFF00
0FC300
00C300
00C300
00C3F0
00FFF0
0FFFF0
0FFF00
0FC300
00C300
00C300
00C000
000000
000000
000000
000000
ENDCHAR

STARTCHAR jisx0208_2275
ENCODING 8821
SWIDTH 960 0
DWIDTH 24 0
BBX 24 24 0 -2
BITMAP
000000
00C000
00C000
00C000
00C000
00C000
00C000
00C000
00FF00
00BF80
00F3C0
00E1C0
00C1C0
00C1C0
00C3C0
00C380
00C780
00CF00
00DE00
00FC00
00F800
00E000
000000
000000
ENDCHAR

STARTCHAR jisx0208_2276
ENCODING 8822
SWIDTH 960 0
DWIDTH 24 0
BBX 24 24 0 -2
BITMAP
000000
001800
001C00
001F00
001F80
001FC0
001BE0
0019E0
0018F0
001870
001870
001870
001870
0018E0
0019E0
0019C0
007980
01F800
03F800
03F800
03F000
01E000
000000
000000
ENDCHAR

STARTCHAR jisx0208_2277
ENCODING 8823
SWIDTH 960 0
DWIDTH 24 0
BBX 24 24 0 -2
BITMAP
001800
003C00
003C00
003C00
01DB80
03FFC0
03FFC0
01DB80
003C00
003C00
003C00
003C00
001800
001800
001800
001800
001800
001800
001800
003C00
003C00
003C00
003C00
000000
ENDCHAR

STARTCHAR jisx0208_2278
ENCODING 8824
SWIDTH 960 0
DWIDTH 24 0
BBX 24 24 0 -2
BITMAP
001800
003C00
003C00
003C00
01DB80
03FFC0
03FFC0
01DB80
003C00
003C00
003C00
001800
003C00
003C00
003C00
01DB80
03FFC0
03FFC0
01DB80
003C00
003C00
003C00
001800
000000
ENDCHAR

STARTCHAR jisx0208_2279
ENCODING 8825
SWIDTH 960 0
DWIDTH 24 0
BBX 24 24 0 -2
BITMAP
007FE0
01FFE0
01FFE0
03FDC0
03FDC0
03FDC0
03FDC0
03FDC0
01FDC0
01FDC0
007DC0
001DC0
001DC0
001DC0
001DC0
001DC0
001DC0
001DC0
001DC0
001DC0
001DC0
001DC0
000000
000000
ENDCHAR

STARTCHAR jisx0208_227E
ENCODING 8830
SWIDTH 960 0
DWIDTH 24 0
BBX 24 24 0 -2
BITMAP
00FF80
03FFE0
07C1F0
0F0078
1E003C
3C001E
38000E
700007
700007
600003
600003
600003
600003
600003
700007
700007
38000E
3C001E
1E003C
0F0078
07C1F0
03FFE0
00FF80
000000
ENDCHAR

STARTCHAR jisx0208_2330
ENCODING 9008
SWIDTH 960 0
DWIDTH 24 0
BBX 24 24 0 -2
BITMAP
000000
000000
007F00
01FFC0
03E3E0
0380E0
0780F0
070070
070070
070070
070070
070070
070070
070070
070070
070070
0780F0
0380E0
03E3E0
01FFC0
007F00
000000
000000
000000
ENDCHAR

STARTCHAR jisx0208_2331
ENCODING 9009
SWIDTH 960 0
DWIDTH 24 0
BBX 24 24 0 -2
BITMAP
000000
000000
001C00
003C00
007C00
00FC00
01DC00
01DC00
001C00
001C00
001C00
001C00
001C00
001C00
001C00
001C00
001C00
001C00
001C00
01FFC0
01FFC0
000000
000000
000000
ENDCHAR

STARTCHAR jisx0208_2332
ENCODING 9010
SWIDTH 960 0
DWIDTH 24 0
BBX 24 24 0 -2
BITMAP
000000
000000
00FF00
03FFC0
03C3C0
0781E0
0700E0
0780E0
0780E0
0301E0
0007C0
001F80
003E00
00F800
01F000
03C030
038030
070070
07FFF0
07FFE0
07FFE0
000000
000000
000000
ENDCHAR

STARTCHAR jisx0208_2333
ENCODING 9011
SWIDTH 960 0
DWIDTH 24 0
BBX 24 24 0 -2
BITMAP
000000
000000
00FF00
03FFC0
03C3C0
0701E0
0780E0
0780E0
0300E0
0001E0
007FC0
007F80
0001E0
0600F0
0F0070
0F0070
0F0070
0E00F0
07C3E0
03FFC0
00FF00
000000
000000
000000
ENDCHAR

STARTCHAR jisx0208_2334
ENCODING 9012
SWIDTH 960 0
DWIDTH 24 0
BBX 24 24 0 -2
BITMAP
000000
000000
000700
000F00
001F00
001F00
003700
007700
007700
00E700
01E700
01C700
038700
078730
0F0770
0EFFF0
0FFFF0
000700
000700
001FC0
001FC0
000000
000000
000000
ENDCHAR

STARTCHAR jisx0208_2335
ENCODING 9013
SWIDTH 960 0
DWIDTH 24 0
BBX 24 24 0 -2
BITMAP
000000
000000
01FFE0
01FFE0
01FFC0
018000
038000
038000
037F00
03FFC0
03E3E0
0380E0
0300F0
000070
038070
07C070
07C0F0
0780E0
03E3E0
01FFC0
007F00
000000
000000
000000
ENDCHAR

STARTCHAR jisx0208_2336
ENCODING 9014
SWIDTH 960 0
DWIDTH 24 0
BBX 24 24 0 -2
BITMAP
000000
000000
007F00
01FFC0
03E3E0
0381E0
0783E0
0701C0
077E00
07FFC0
07E3E0
0780E0
0700F0
070070
070070
070070
0780F0
0380E0
03E3E0
01FFC0
007F00
000000
000000
000000
ENDCHAR

STARTCHAR jisx0208_2337
ENCODING 9015
SWIDTH 960 0
DWIDTH 24 0
BBX 24 24 0 -2
BITMAP
000000
000000
03FFF0
03FFF0
07FFF0
0700E0
0601C0
060380
000380
000700
000700
000E00
000E00
000E00
001E00
001C00
001C00
001C00
001C00
001C00
001C00
000000
000000
000000
ENDCHAR

STARTCHAR jisx0208_2338
ENCODING 9016
SWIDTH 960 0
DWIDTH 24 0
BBX 24 24 0 -2
BITMAP
000000
000000
00FF00
03FFC0
07C3E0
0780E0
070060
070060
0780E0
07F3E0
03FFC0
00FF00
07DFE0
0F01F0
0E00F0
0C0070
0E0070
0F00F0
07C3E0
03FFC0
00FF00
000000
000000
000000
ENDCHAR

STARTCHAR jisx0208_2339
ENCODING 9017
SWIDTH 960 0
DWIDTH 24 0
BBX 24 24 0 -2
BITMAP
000000
000000
007F00
01FFC0
03E3E0
0380E0
0780F0
070070
070070
070070
078070
0380F0
03E3F0
01FFF0
007F70
018070
03E0F0
03E0E0
03C3E0
01FFC0
007F00
000000
000000
000000
ENDCHAR

STARTCHAR jisx0208_2341
ENCODING 9025
SWIDTH 960 0
DWIDTH 24 0
BBX 24 24 0 -2
BITMAP
000000
000000
001C00
001C00
003E00
003E00
002E00
007F00
007700
00E780
00E380
00C380
01C3C0
01C1C0
0381E0
03FEE0
03FFE0
0700F0
070070
1E81FC
1F81FC
000000
000000
000000
ENDCHAR

STARTCHAR jisx0208_2342
ENCODING 9026
SWIDTH 960 0
DWIDTH 24 0
BBX 24 24 0 -2
BITMAP
000000
000000
0FFFC0
0FFFE0
0380F0
038070
038070
038070
038070
0380F0
03FFE0
03FFD0
0380F0
038078
038038
038038
038038
038078
0380F0
0FFFF0
0FFFC0
000000
000000
000000
ENDCHAR

STARTCHAR jisx0208_2343
ENCODING 9027
SWIDTH 960 0
DWIDTH 24 0
BBX 24 24 0 -2
BITMAP
000000
000000
007F60
01FFE0
03E3E0
0780F0
070070
0F0030
0E0030
0E0000
0E0000
0E0000
0E0000
0E0000
0E0030
0F0030
070070
0780F0
03E3E0
01FFC0
007F00
000000
000000
000000
ENDCHAR

STARTCHAR jisx0208_2344
ENCODING 9028
SWIDTH 960 0
DWIDTH 24 0
BBX 24 24 0 -2
BITMAP
000000
000000
0FFF00
0FFFC0
0383E0
0380F0
038070
038078
038038
038038
038038
038038
038038
038038
038038
038078
038070
0380F0
0383E0
0FFFC0
0FFF00
000000
000000
000000
ENDCHAR

STARTCHAR jisx0208_2345
ENCODING 9029
SWIDTH 960 0
DWIDTH 24 0
BBX 24 24 0 -2
BITMAP
000000
000000
0FFFC0
0FFFC0
0381E0
0380E0
038060
038360
038300
038700
03FF00
03FF00
038700
038300
038300
038030
038030
038070
0380F0
0FFFE0
0FFFE0
000000
000000
000000
ENDCHAR

STARTCHAR jisx0208_2346
ENCODING 9030
SWIDTH 960 0
DWIDTH 24 0
BBX 24 24 0 -2
BITMAP
000000
000000
0FFFE0
0FFFE0
0380F0
038070
038030
0381B0
038180
038380
03FF80
03FF80
038380
038180
038180
038000
038000
038000
038000
0FF000
0FF000
000000
000000
000000
ENDCHAR

STARTCHAR jisx0208_2347
ENCODING 9031
SWIDTH 960 0
DWIDTH 24 0
BBX 24 24 0 -2
BITMAP
000000
000000
007F60
01FFE0
03E3E0
0780F0
070070
0F0030
0E0030
0E0000
0E0000
0E0FFC
0E0FFC
0E0070
0E0070
0F0070
070070
0780F0
03E3F0
01FFF0
007F30
000000
000000
000000
ENDCHAR

STARTCHAR jisx0208_2348
ENCODING 9032
SWIDTH 960 0
DWIDTH 24 0
BBX 24 24 0 -2
BITMAP
000000
000000
1FC1FC
1FC1FC
070070
070070
070070
070070
070070
070070
07FFF0
07FFF0
070070
070070
070070
070070
070070
070070
070070
1FC1FC
1FC1FC
000000
000000
000000
ENDCHAR

STARTCHAR jisx0208_2349
ENCODING 9033
SWIDTH 960 0
DWIDTH 24 0
BBX 24 24 0 -2
BITMAP
000000
000000
007F00
007F00
001C00
001C00
001C00
001C00
001C00
001C00
001C00
001C00
001C00
001C00
001C00
001C00
001C00
001C00
001C00
007F00
007F00
000000
000000
000000
ENDCHAR

STARTCHAR jisx0208_234A
ENCODING 9034
SWIDTH 960 0
DWIDTH 24 0
BBX 24 24 0 -2
BITMAP
000000
000000
000FE0
000FE0
000380
000380
000380
000380
000380
000380
000380
000380
000380
000380
018380
03C380
03C380
03C380
038700
01FF00
00FE00
000000
000000
000000
ENDCHAR

STARTCHAR jisx0208_234B
ENCODING 9035
SWIDTH 960 0
DWIDTH 24 0
BBX 24 24 0 -2
BITMAP
000000
000000
1FC7F0
1FC7F0
0701C0
070780
070F00
071E00
073C00
077800
07FC00
06DC00
07DE00
078F00
070700
070780
0703C0
0701C0
0701E0
1FC2F8
1FC3F8
000000
000000
000000
ENDCHAR

STARTCHAR jisx0208_234C
ENCODING 9036
SWIDTH 960 0
DWIDTH 24 0
BBX 24 24 0 -2
BITMAP
000000
000000
07F000
07F000
01C000
01C000
01C000
01C000
01C000
01C000
01C000
01C000
01C000
01C000
01C000
01C018
01C018
01C038
01C078
07FFF0
07FFF0
000000
000000
000000
ENDCHAR

STARTCHAR jisx0208_234D
ENCODING 9037
SWIDTH 960 0
DWIDTH 24 0
BBX 24 24 0 -2
BITMAP
000000
000000
3F00FC
3F00FC
0F01F0
0F81F0
0B8170
0B8370
0FC370
0DC370
0DC770
0DE770
0CE670
0CEE70
0CEE70
0C6C70
0C7C70
0C7C70
0C3870
3F39FC
3F39FC
000000
000000
000000
ENDCHAR

STARTCHAR jisx0208_234E
ENCODING 9038
SWIDTH 960 0
DWIDTH 24 0
BBX 24 24 0 -2
BITMAP
000000
000000
1F00FC
1F80FC
07C030
07C030
05E030
06F030
06F030
067830
063C30
063E30
061E30
060F30
0607B0
0607B0
0603B0
0601F0
0601F0
1F80F0
1F8070
000000
000000
000000
ENDCHAR

STARTCHAR jisx0208_234F
ENCODING 9039
SWIDTH 960 0
DWIDTH 24 0
BBX 24 24 0 -2
BITMAP
000000
000000
007F00
01FFC0
03E3E0
0780F0
070070
0F0078
0E0038
0E0038
0E0038
0E0038
0E0038
0E0038
0E0038
0F0078
070070
0780F0
03E3E0
01FFC0
007F00
000000
000000
000000
ENDCHAR

STARTCHAR jisx0208_2350
ENCODING 9040
SWIDTH 960 0
DWIDTH 24 0
BBX 24 24 0 -2
BITMAP
000000
000000
0FFF80
0FFFE0
0381E0
0380F0
038070
038070
038070
038070
0380F0
0381E0
03FFE0
03FF80
038000
038000
038000
038000
038000
0FF000
0FF000
000000
000000
000000
ENDCHAR

STARTCHAR jisx0208_2351
ENCODING 9041
SWIDTH 960 0
DWIDTH 24 0
BBX 24 24 0 -2
BITMAP
000000
000000
007F00
01FFC0
03E3E0
0780F0
070070
0F0078
0E0038
0E0038
0E0038
0E0038
0E0038
0E0038
0E0038
0F7C78
07FF70
06EFFC
0387EC
01FBDC
007EF8
000000
000000
000000
ENDCHAR

STARTCHAR jisx0208_2352
ENCODING 9042
SWIDTH 960 0
DWIDTH 24 0
BBX 24 24 0 -2
BITMAP
000000
000000
1FFF00
1FFFC0
0703C0
0701E0
0700E0
0700E0
0700E0
0701E0
0703C0
07FFC0
07FF00
0703C0
0701C0
0701C0
0701C0
0701CC
0701DC
1FC1FC
1FC0F8
000000
000000
000000
ENDCHAR

STARTCHAR jisx0208_2353
ENCODING 9043
SWIDTH 960 0
DWIDTH 24 0
BBX 24 24 0 -2
BITMAP
000000
000000
01FEC0
07FFC0
0787C0
0F01E0
0E00E0
0F0060
0F8060
07F000
03FE00
00FFC0
001FE0
0C03F0
0C00F0
0E0070
0E0070
0700F0
07C1E0
07FFE0
06FF80
000000
000000
000000
ENDCHAR

STARTCHAR jisx0208_2354
ENCODING 9044
SWIDTH 960 0
DWIDTH 24 0
BBX 24 24 0 -2
BITMAP
000000
000000
07FFF0
07FFF0
0F1C78
0E1C38
0C1C18
0C1C18
001C00
001C00
001C00
001C00
001C00
001C00
001C00
001C00
001C00
001C00
001C00
007F00
007F00
000000
000000
000000
ENDCHAR

STARTCHAR jisx0208_2355
ENCODING 9045
SWIDTH 960 0
DWIDTH 24 0
BBX 24 24 0 -2
BITMAP
000000
000000
1FC0FC
1FC0FC
070030
070030
070030
070030
070030
070030
070030
070030
070030
070030
070030
070070
078070
0380E0
03E3E0
01FFC0
007F00
000000
000000
000000
ENDCHAR

STARTCHAR jisx0208_2356
ENCODING 9046
SWIDTH 960 0
DWIDTH 24 0
BBX 24 24 0 -2
BITMAP
000000
000000
1FC0FC
1FC0FC
070030
078070
038060
0380E0
03C0E0
01C1C0
01E1C0
00E180
00E380
00F380
007700
007700
003600
003E00
003E00
001C00
001C00
000000
000000
000000
ENDCHAR

STARTCHAR jisx0208_2357
ENCODING 9047
SWIDTH 960 0
DWIDTH 24 0
BBX 24 24 0 -2
BITMAP
000000
000000
7F0C3F
7F0C3F
1C0C0C
1E1E1C
0E1E1C
0E1E18
0E1E18
0F3F38
073738
073730
073730
077770
037370
036360
03E3E0
03E3E0
01C1C0
01C1C0
01C1C0
000000
000000
000000
ENDCHAR

STARTCHAR jisx0208_2358
ENCODING 9048
SWIDTH 960 0
DWIDTH 24 0
BBX 24 24 0 -2
BITMAP
000000
000000
1FE3F8
1FE3F8
0780E0
03C1C0
01E380
00F780
00F700
007E00
003E00
003C00
007E00
006F00
00E780
01E780
01C3C0
0381E0
0781F0
1F42FC
1FC3FC
000000
000000
000000
ENDCHAR

STARTCHAR jisx0208_2359
ENCODING 9049
SWIDTH 960 0
DWIDTH 24 0
BBX 24 24 0 -2
BITMAP
000000
000000
0FE1F8
0FE1F8
038060
03C0E0
01C1C0
01E1C0
00E380
00F380
007700
007700
003E00
003E00
001C00
001C00
001C00
001C00
001C00
007F00
007F00
000000
000000
000000
ENDCHAR

STARTCHAR jisx0208_235A
ENCODING 9050
SWIDTH 960 0
DWIDTH 24 0
BBX 24 24 0 -2
BITMAP
000000
000000
03FFE0
03FFE0
0781E0
0703C0
060780
060F80
000F00
001E00
003C00
007C00
007800
00F000
01E000
03E030
03C030
078070
0F00F0
0FFFE0
0FFFE0
000000
000000
000000
ENDCHAR

STARTCHAR jisx0208_2361
ENCODING 9057
SWIDTH 960 0
DWIDTH 24 0
BBX 24 24 0 -2
BITMAP
000000
000000
000000
000000
000000
000000
000000
00FF00
01FF80
01E3C0
01E1C0
00C7C0
003FC0
00FDC0
01F1C0
03C1C0
0381C0
0383F0
03C7B0
01FFF0
00FEE0
000000
000000
000000
ENDCHAR

STARTCHAR jisx0208_2362
ENCODING 9058
SWIDTH 960 0
DWIDTH 24 0
BBX 24 24 0 -2
BITMAP
000000
000000
01C000
07C000
07C000
01C000
01C000
01FF80
01BFE0
01F1E0
01E0F0
01C070
01C070
01C070
01C070
01C070
01C070
01E0F0
01F1E0
07FFE0
07BF80
000000
000000
000000
ENDCHAR

STARTCHAR jisx0208_2363
ENCODING 9059
SWIDTH 960 0
DWIDTH 24 0
BBX 24 24 0 -2
BITMAP
000000
000000
000000
000000
000000
000000
000000
007F80
01FFC0
01E1E0
03C0E0
0381E0
0381E0
0380C0
038000
038000
038060
03C0E0
01E1E0
01FFC0
007F80
000000
000000
000000
ENDCHAR

STARTCHAR jisx0208_2364
ENCODING 9060
SWIDTH 960 0
DWIDTH 24 0
BBX 24 24 0 -2
BITMAP
000000
000000
0001C0
0007C0
0007C0
0001C0
0001C0
00FDC0
03FFC0
03C7C0
0783C0
0701C0
0701C0
0701C0
0701C0
0701C0
0701C0
0783C0
03C7C0
03FFF0
00FDF0
000000
000000
000000
ENDCHAR

STARTCHAR jisx0208_2365
ENCODING 9061
SWIDTH 960 0
DWIDTH 24 0
BBX 24 24 0 -2
BITMAP
000000
000000
000000
000000
000000
000000
000000
007F00
01FFC0
01E3C0
03C1E0
0380E0
0380E0
03FFE0
03FFE0
038000
038060
03C0E0
01E1E0
01FFC0
007F80
000000
000000
000000
ENDCHAR

STARTCHAR jisx0208_2366
ENCODING 9062
SWIDTH 960 0
DWIDTH 24 0
BBX 24 24 0 -2
BITMAP
000000
000000
001F80
003FC0
003BC0
003BC0
003980
01FE00
01FF00
003800
003800
003800
003800
003800
003800
003800
003800
003800
003800
00FE00
00FE00
000000
000000
000000
ENDCHAR

STARTCHAR jisx0208_2367
ENCODING 9063
SWIDTH 960 0
DWIDTH 24 0
BBX 24 24 0 -2
BITMAP
000000
000000
000000
000000
000000
000000
000000
007DE0
00FFF0
01E770
01C3F0
01C380
01C380
01E780
00FF00
01FE00
01C100
00FFC0
03FFE0
0381E0
0300E0
03FFC0
01FF80
000000
ENDCHAR

STARTCHAR jisx0208_2368
ENCODING 9064
SWIDTH 960 0
DWIDTH 24 0
BBX 24 24 0 -2
BITMAP
000000
000000
038000
0F8000
0F8000
038000
038000
03FF00
037F80
03E3C0
03C1C0
0381C0
0381C0
0381C0
0381C0
0381C0
0381C0
0381C0
0381C0
0FE7F0
0FE7F0
000000
000000
000000
ENDCHAR

STARTCHAR jisx0208_2369
ENCODING 9065
SWIDTH 960 0
DWIDTH 24 0
BBX 24 24 0 -2
BITMAP
000000
000000
001C00
003E00
003E00
001C00
000000
001C00
007C00
007C00
001C00
001C00
001C00
001C00
001C00
001C00
001C00
001C00
001C00
007F00
007F00
000000
000000
000000
ENDCHAR

STARTCHAR jisx0208_236A
ENCODING 9066
SWIDTH 960 0
DWIDTH 24 0
BBX 24 24 0 -2
BITMAP
000000
000000
000E00
001F00
001F00
000E00
000000
000E00
003E00
003E00
000E00
000E00
000E00
000E00
000E00
000E00
000E00
000E00
00CE00
01EE00
01FE00
01DC00
00F800
000000
ENDCHAR

STARTCHAR jisx0208_236B
ENCODING 9067
SWIDTH 960 0
DWIDTH 24 0
BBX 24 24 0 -2
BITMAP
000000
000000
01C000
07C000
07C000
01C000
01C000
01CFE0
01CFE0
01C380
01CF00
01DE00
01FC00
01BE00
01EE00
01EF00
01C780
01C380
01C3C0
07F5F0
07F7F0
000000
000000
000000
ENDCHAR

STARTCHAR jisx0208_236C
ENCODING 9068
SWIDTH 960 0
DWIDTH 24 0
BBX 24 24 0 -2
BITMAP
000000
000000
001C00
007C00
007C00
001C00
001C00
001C00
001C00
001C00
001C00
001C00
001C00
001C00
001C00
001C00
001C00
001C00
001C00
007F00
007F00
000000
000000
000000
ENDCHAR

STARTCHAR jisx0208_236D
ENCODING 9069
SWIDTH 960 0
DWIDTH 24 0
BBX 24 24 0 -2
BITMAP
000000
000000
000000
000000
000000
000000
000000
0DF3E0
3FF7F0
3FBF78
0F1E38
0E1C38
0E1C38
0E1C38
0E1C38
0E1C38
0E1C38
0E1C38
0E1C38
3F7EFE
3F7EFE
000000
000000
000000
ENDCHAR

STARTCHAR jisx0208_236E
ENCODING 9070
SWIDTH 960 0
DWIDTH 24 0
BBX 24 24 0 -2
BITMAP
000000
000000
000000
000000
000000
000000
000000
037F00
0FFF80
0FE3C0
03C1C0
0381C0
0381C0
0381C0
0381C0
0381C0
0381C0
0381C0
0381C0
0FE7F0
0FE7F0
000000
000000
000000
ENDCHAR

STARTCHAR jisx0208_236F
ENCODING 9071
SWIDTH 960 0
DWIDTH 24 0
BBX 24 24 0 -2
BITMAP
000000
000000
000000
000000
000000
000000
000000
007F00
01FFC0
01E3C0
03C1E0
0380E0
0380E0
0380E0
0380E0
0380E0
0380E0
03C1E0
01E3C0
01FFC0
007F00
000000
000000
000000
ENDCHAR

STARTCHAR jisx0208_2370
ENCODING 9072
SWIDTH 960 0
DWIDTH 24 0
BBX 24 24 0 -2
BITMAP
000000
000000
000000
000000
000000
000000
000000
01BF80
07FFE0
07F1E0
01E0F0
01C070
01C070
01C070
01C070
01C070
01E0F0
01F1E0
01FFE0
01BF80
01C000
07F000
07F000
000000
ENDCHAR

STARTCHAR jisx0208_2371
ENCODING 9073
SWIDTH 960 0
DWIDTH 24 0
BBX 24 24 0 -2
BITMAP
000000
000000
000000
000000
000000
000000
000000
00FEC0
03FFC0
03C7C0
0783C0
0701C0
0701C0
0701C0
0701C0
0701C0
0783C0
03C7C0
03FFC0
00FDC0
0001C0
0007F0
0007F0
000000
ENDCHAR

STARTCHAR jisx0208_2372
ENCODING 9074
SWIDTH 960 0
DWIDTH 24 0
BBX 24 24 0 -2
BITMAP
000000
000000
000000
000000
000000
000000
000000
007780
01FFC0
01EFC0
007BC0
007980
007000
007000
007000
007000
007000
007000
007000
01FC00
01FC00
000000
000000
000000
ENDCHAR

STARTCHAR jisx0208_2373
ENCODING 9075
SWIDTH 960 0
DWIDTH 24 0
BBX 24 24 0 -2
BITMAP
000000
000000
000000
000000
000000
000000
000000
00FD80
01FF80
03C780
038380
03C180
03F980
01FE00
007F80
030FC0
0303C0
0381C0
03E3C0
03FF80
037F00
000000
000000
000000
ENDCHAR

STARTCHAR jisx0208_2374
ENCODING 9076
SWIDTH 960 0
DWIDTH 24 0
BBX 24 24 0 -2
BITMAP
000000
000000
001800
003800
003800
003800
003800
00FF00
00FF00
003800
003800
003800
003800
003800
003800
003800
003800
003980
003B80
003F80
001F00
000000
000000
000000
ENDCHAR

STARTCHAR jisx0208_2375
ENCODING 9077
SWIDTH 960 0
DWIDTH 24 0
BBX 24 24 0 -2
BITMAP
000000
000000
000000
000000
000000
000000
000000
0381C0
0F87C0
0F87C0
0381C0
0381C0
0381C0
0381C0
0381C0
0381C0
0381C0
0383C0
03C7C0
01FFF0
00FDF0
000000
000000
000000
ENDCHAR

STARTCHAR jisx0208_2376
ENCODING 9078
SWIDTH 960 0
DWIDTH 24 0
BBX 24 24 0 -2
BITMAP
000000
000000
000000
000000
000000
000000
000000
0FF3F8
0FF3F8
03C0E0
01C1C0
01E1C0
00E180
00E380
00F380
007700
007700
003E00
003E00
001C00
001C00
000000
000000
000000
ENDCHAR

STARTCHAR jisx0208_2377
ENCODING 9079
SWIDTH 960 0
DWIDTH 24 0
BBX 24 24 0 -2
BITMAP
000000
000000
000000
000000
000000
000000
000000
3F9CFC
3F9CFC
0E1C30
0E3C70
0F3E70
072E60
076EE0
076EE0
0366C0
03E7C0
03E7C0
01C380
01C380
01C380
000000
000000
000000
ENDCHAR

STARTCHAR jisx0208_2378
ENCODING 9080
SWIDTH 960 0
DWIDTH 24 0
BBX 24 24 0 -2
BITMAP
000000
000000
000000
000000
000000
000000
000000
0FEFE0
0FEFE0
03C380
01E700
00EE00
007E00
007C00
003E00
007E00
00EF00
01E780
03C7C0
0FABF0
0FEFF0
000000
000000
000000
ENDCHAR

STARTCHAR jisx0208_2379
ENCODING 9081
SWIDTH 960 0
DWIDTH 24 0
BBX 24 24 0 -2
BITMAP
000000
000000
000000
000000
000000
000000
000000
07F3F0
07F3F0
01C0C0
01E1C0
00E380
00F380
007700
007700
003E00
003E00
001C00
019C00
03B800
03F800
03F000
01E000
000000
ENDCHAR

STARTCHAR jisx0208_237A
ENCODING 9082
SWIDTH 960 0
DWIDTH 24 0
BBX 24 24 0 -2
BITMAP
000000
000000
000000
000000
000000
000000
000000
01FFC0
01FFC0
01C3C0
018F80
018F00
001E00
003C00
007C00
007800
00F0C0
01E0C0
03E1C0
03DFC0
03FFC0
000000
000000
000000
ENDCHAR

STARTCHAR jisx0208_2421
ENCODING 9249
SWIDTH 960 0
DWIDTH 24 0
BBX 24 24 0 -2
BITMAP
000000
000000
000000
000000
000000
00F000
00F800
007F00
033700
03FF00
01FC00
007700
00FFC0
01F7E0
03FEF0
076E70
077C70
0E7C70
0E3870
0FF8F0
0FDBE0
0787C0
000F00
000000
ENDCHAR

STARTCHAR jisx0208_2422
ENCODING 9250
SWIDTH 960 0
DWIDTH 24 0
BBX 24 24 0 -2
BITMAP
00F800
00FC00
003C00
003B80
073780
07EF80
03FE00
007100
007FE0
01FFF8
03F37C
07771E
0F771E
1E7E0E
1C6E0E
3C7C0E
38381E
38FC1E
3FDC3C
1FC078
0F01F0
000FE0
000F80
000000
ENDCHAR

STARTCHAR jisx0208_2423
ENCODING 9251
SWIDTH 960 0
DWIDTH 24 0
BBX 24 24 0 -2
BITMAP
000000
000000
000000
000000
000000
000000
000000
070000
078000
038180
0381E0
0780F0
070070
070038
070038
0731F8
0731F8
077038
03E000
03E000
01E000
00E000
000000
000000
ENDCHAR

STARTCHAR jisx0208_2424
ENCODING 9252
SWIDTH 960 0
DWIDTH 24 0
BBX 24 24 0 -2
BITMAP
000000
000000
300000
380000
3C0000
1C0180
1C01E0
3C00F0
380078
38003C
38001C
38001E
38600E
38E00E
39C0FE
3DC0FE
3F801E
1B800C
1F0000
0F8000
078000
038000
000000
000000
ENDCHAR

STARTCHAR jisx0208_2425
ENCODING 9253
SWIDTH 960 0
DWIDTH 24 0
BBX 24 24 0 -2
BITMAP
000000
000000
000000
000000
000000
007000
007F00
003F00
000F00
003800
030780
03FFC0
03F1E0
01C0E0
0000E0
0000E0
0001E0
0001C0
0003C0
000780
001F00
007E00
007800
000000
ENDCHAR

STARTCHAR jisx0208_2426
ENCODING 9254
SWIDTH 960 0
DWIDTH 24 0
BBX 24 24 0 -2
BITMAP
00C000
00E300
00FF80
007F80
00BF80
00E000
001FC0
0C7FF0
0FF8F0
0FE078
078038
030038
000038
000038
000078
000070
0000F0
0001E0
0003C0
000780
001F00
007E00
007800
000000
ENDCHAR

STARTCHAR jisx0208_2427
ENCODING 9255
SWIDTH 960 0
DWIDTH 24 0
BBX 24 24 0 -2
BITMAP
000000
000000
000000
000000
000000
00E000
00FE00
007E00
003E00
006100
019F80
01FF80
01F700
01CE00
003C00
007800
00FE00
01EE00
03CE60
078FF0
078FF0
0707F0
000000
000000
ENDCHAR

STARTCHAR jisx0208_2428
ENCODING 9256
SWIDTH 960 0
DWIDTH 24 0
BBX 24 24 0 -2
BITMAP
00C000
00E600
00FF00
007F00
003F00
006080
061FC0
07FFC0
07F3C0
03CF00
019E00
003C00
007800
00F400
01FE00
03CE00
078E00
0F0E00
1E0E18
1E0FFC
1C0FFC
1C07FC
000000
000000
ENDCHAR

STARTCHAR jisx0208_2429
ENCODING 9257
SWIDTH 960 0
DWIDTH 24 0
BBX 24 24 0 -2
BITMAP
000000
000000
000000
000000
000000
000000
03C000
03E000
01E000
01DBC0
0DFFF0
0FFCF0
07F170
01CE80
01FFE0
01F8F0
0BE070
0FC070
0FC070
0DDCF0
03DFE0
01CFC0
018000
000000
ENDCHAR

STARTCHAR jisx0208_242A
ENCODING 9258
SWIDTH 960 0
DWIDTH 24 0
BBX 24 24 0 -2
BITMAP
000000
07C000
07E000
01E000
01C0F0
01DEFC
39FE3E
3FFE5E
1FF07E
038F8E
03BFF0
03FC3C
03F01E
37C00E
3F800E
2F800E
3B980E
3B9C1E
0F9FFC
078FFC
0383F0
038000
030000
000000
ENDCHAR

STARTCHAR jisx0208_242B
ENCODING 9259
SWIDTH 960 0
DWIDTH 24 0
BBX 24 24 0 -2
BITMAP
01C000
01E000
00F000
00F000
00E000
00C0C0
31FEF0
3FFF78
3FC73C
3D871E
1B870E
03070F
070707
07071F
0E0F3F
0E0E37
1E0E00
1D9E00
3DFC00
3CFC00
387800
387000
000000
000000
ENDCHAR

STARTCHAR jisx0208_242C
ENCODING 9260
SWIDTH 960 0
DWIDTH 24 0
BBX 24 24 0 -2
BITMAP
01C000
01E00E
00F00F
00F037
00E03B
00C0DC
31FEEC
3FFF70
3FC73C
3D871E
1B870E
03070F
070707
07071F
0E0F3F
0E0E37
1E0E00
1D9E00
3DFC00
3CFC00
387800
387000
000000
000000
ENDCHAR

STARTCHAR jisx0208_242D
ENCODING 9261
SWIDTH 960 0
DWIDTH 24 0
BBX 24 24 0 -2
BITMAP
007800
007C00
003C00
001CE0
070FE0
07FBE0
03FF80
00FE38
0E07F8
0FFAF8
07FFE0
01FF80
0001C0
00FFE0
03FEF0
07C3F0
0700F0
070070
070000
07C180
03FFC0
01FFC0
007FC0
000000
ENDCHAR

STARTCHAR jisx0208_242E
ENCODING 9262
SWIDTH 960 0
DWIDTH 24 0
BBX 24 24 0 -2
BITMAP
00780E
007C3F
003C37
001CDB
070FEC
07FBE0
03FF80
00FE38
0E07F8
0FFAF8
07FFE0
01FF80
0001C0
00FFE0
03FEF0
07C3F0
0700F0
070070
070000
07C180
03FFC0
01FFC0
007FC0
000000
ENDCHAR

STARTCHAR jisx0208_242F
ENCODING 9263
SWIDTH 960 0
DWIDTH 24 0
BBX 24 24 0 -2
BITMAP
001C00
001E00
000F00
001F00
001E00
003C00
007800
00F000
01E000
03C000
038000
030000
03C000
01E000
00F000
007800
003C00
001E00
000F00
000780
000780
000380
000380
000000
ENDCHAR

STARTCHAR jisx0208_2430
ENCODING 9264
SWIDTH 960 0
DWIDTH 24 0
BBX 24 24 0 -2
BITMAP
001C00
001E00
000F00
001F00
001E70
003C78
0079B8
00F1D8
01E0E0
03C060
038000
030000
03C000
01E000
00F000
007800
003C00
001E00
000F00
000780
000780
000380
000380
000000
ENDCHAR

STARTCHAR jisx0208_2431
ENCODING 9265
SWIDTH 960 0
DWIDTH 24 0
BBX 24 24 0 -2
BITMAP
000000
0001F0
1C01F8
1E0078
0F0070
0F0077
0E387F
1E3FFF
1C1FFC
1C07F0
1C0070
1C0070
1C0070
1D8070
1D8070
1F8070
1B0070
1F00F0
1E00E0
0F01E0
0F07C0
071F80
001E00
000000
ENDCHAR

STARTCHAR jisx0208_2432
ENCODING 9266
SWIDTH 960 0
DWIDTH 24 0
BBX 24 24 0 -2
BITMAP
00000E
0001EF
1C01F7
1E007B
0F006E
0F0077
0E387F
1E3FFF
1C1FFC
1C07F0
1C0070
1C0070
1C0070
1D8070
1D8070
1F8070
1B0070
1F00F0
1E00E0
0F01E0
0F07C0
071F80
001E00
000000
ENDCHAR

STARTCHAR jisx0208_2433
ENCODING 9267
SWIDTH 960 0
DWIDTH 24 0
BBX 24 24 0 -2
BITMAP
000000
000000
030000
03C180
01FFC0
00FFC0
003FC0
00F000
01C000
018000
000000
000000
000000
000000
0C0000
0C0000
0C0000
0E0030
0F80F8
07FFF8
03FFF8
00FFC0
000000
000000
ENDCHAR

STARTCHAR jisx0208_2434
ENCODING 9268
SWIDTH 960 0
DWIDTH 24 0
BBX 24 24 0 -2
BITMAP
00000E
00000F
030037
03C1BB
01FFDC
00FFCC
003FC0
00F000
01C000
018000
000000
000000
000000
000000
0C0000
0C0000
0C0000
0E0030
0F80F8
07FFF8
03FFF8
00FFC0
000000
000000
ENDCHAR

STARTCHAR jisx0208_2435
ENCODING 9269
SWIDTH 960 0
DWIDTH 24 0
BBX 24 24 0 -2
BITMAP
007800
007C00
003C00
001C00
000E38
1C0EF8
1FF7F8
0FFFE0
03FF00
000380
000380
0001C0
01FFE0
07FEF0
0F83F0
0E00F0
0E0070
0E0000
0E0000
0F8180
07FFC0
03FFC0
00FFC0
000000
ENDCHAR

STARTCHAR jisx0208_2436
ENCODING 9270
SWIDTH 960 0
DWIDTH 24 0
BBX 24 24 0 -2
BITMAP
00780E
007C0F
003C17
001C1B
000E2E
1C0EF6
1FF7F8
0FFFE0
03FF00
000380
000380
0001C0
01FFE0
07FEF0
0F83F0
0E00F0
0E0070
0E0000
0E0000
0F8180
07FFC0
03FFC0
00FFC0
000000
ENDCHAR

STARTCHAR jisx0208_2437
ENCODING 9271
SWIDTH 960 0
DWIDTH 24 0
BBX 24 24 0 -2
BITMAP
000000
0F8000
0FC000
03C000
038000
038000
038000
038000
038000
038000
078000
070000
070000
07000C
07000C
07001C
070038
070078
0780F0
03C3E0
03FFC0
01FF80
007E00
000000
ENDCHAR

STARTCHAR jisx0208_2438
ENCODING 9272
SWIDTH 960 0
DWIDTH 24 0
BBX 24 24 0 -2
BITMAP
000000
0F8000
0FC070
03C078
0381B8
0381D8
0380E0
038060
038000
038000
078000
070000
070000
07000C
07000C
07001C
070038
070078
0780F0
03C3E0
03FFC0
01FF80
007E00
000000
ENDCHAR

STARTCHAR jisx0208_2439
ENCODING 9273
SWIDTH 960 0
DWIDTH 24 0
BBX 24 24 0 -2
BITMAP
003E00
003F00
000F00
000E00
000E3C
60FFFE
7FFFFE
7FCE0E
3C0E00
00FE00
01FE00
01DF00
018F00
018F00
01DF00
01FF00
00F700
000F00
000E00
001E00
007C00
01F800
01E000
000000
ENDCHAR

STARTCHAR jisx0208_243A
ENCODING 9274
SWIDTH 960 0
DWIDTH 24 0
BBX 24 24 0 -2
BITMAP
003E0E
003F3F
000F37
000E1B
000E2C
60FFFE
7FFFFE
7FCE0E
3C0E00
00FE00
01FE00
01DF00
018F00
018F00
01DF00
01FF00
00F700
000F00
000E00
001E00
007C00
01F800
01E000
000000
ENDCHAR

STARTCHAR jisx0208_243B
ENCODING 9275
SWIDTH 960 0
DWIDTH 24 0
BBX 24 24 0 -2
BITMAP
000000
0007C0
0F87E0
0FC1E0
03C1C0
0381C0
0381DE
038FFF
63FFFF
7FFDC7
7F81C0
7B81C0
338DC0
038FC0
0387C0
038380
038300
038000
0380F0
03FFF0
01FFF0
00FF80
000000
000000
ENDCHAR

STARTCHAR jisx0208_243C
ENCODING 9276
SWIDTH 960 0
DWIDTH 24 0
BBX 24 24 0 -2
BITMAP
00000E
0007CF
0F87F7
0FC1FB
03C1DC
0381CC
0381D2
038FFF
63FFFF
7FFDC7
7F81C0
7B81C0
338DC0
038FC0
0387C0
038380
038300
038000
0380F0
03FFF0
01FFF0
00FF80
000000
000000
ENDCHAR

STARTCHAR jisx0208_243D
ENCODING 9277
SWIDTH 960 0
DWIDTH 24 0
BBX 24 24 0 -2
BITMAP
000000
000380
073FC0
07FFC0
03F3C0
01CF00
003E00
00F800
01F03C
07C3FE
0FBFFE
3E7F0E
3FDC00
3E3800
18F000
00E000
00E000
00E000
00F000
00F8C0
007FE0
003FE0
000FE0
000000
ENDCHAR

STARTCHAR jisx0208_243E
ENCODING 9278
SWIDTH 960 0
DWIDTH 24 0
BBX 24 24 0 -2
BITMAP
000000
00038E
073FCF
07FFF7
03F3BB
01CF1C
003E0C
00F800
01F03C
07C3FE
0FBFFE
3E7F0E
3FDC00
3E3800
18F000
00E000
00E000
00E000
00F000
00F8C0
007FE0
003FE0
000FE0
000000
ENDCHAR

STARTCHAR jisx0208_243F
ENCODING 9279
SWIDTH 960 0
DWIDTH 24 0
BBX 24 24 0 -2
BITMAP
000000
0F8000
0FC000
03C000
03B800
3B7800
3EF800
1FE430
030FF8
0707F8
0701F8
060780
0E0600
0E0000
0E0000
1C3000
1C3000
1C3000
3C3818
383FFC
381FFC
380FFC
000000
000000
ENDCHAR

STARTCHAR jisx0208_2440
ENCODING 9280
SWIDTH 960 0
DWIDTH 24 0
BBX 24 24 0 -2
BITMAP
000000
0F801C
0FC01E
03C06E
03B876
3B7838
3EF818
1FE420
030FF8
0707F8
0701F8
060780
0E0600
0E0000
0E0000
1C3000
1C3000
1C3000
3C3818
383FFC
381FFC
380FFC
000000
000000
ENDCHAR

STARTCHAR jisx0208_2441
ENCODING 9281
SWIDTH 960 0
DWIDTH 24 0
BBX 24 24 0 -2
BITMAP
01C000
01E000
00F000
00F1C0
1CEFC0
1FDFC0
0FFF00
07F800
018000
018000
039FE0
03FFF8
037878
06E03C
07C01C
07801C
07001C
00003C
000078
0000F8
0007F0
003FC0
003E00
000000
ENDCHAR

STARTCHAR jisx0208_2442
ENCODING 9282
SWIDTH 960 0
DWIDTH 24 0
BBX 24 24 0 -2
BITMAP
01C01C
01E01E
00F06E
00F1F6
1CEFB8
1FDFD8
0FFF00
07F800
018000
018000
039FE0
03FFF8
037878
06E03C
07C01C
07801C
07001C
00003C
000078
0000F8
0007F0
003FC0
003E00
000000
ENDCHAR

STARTCHAR jisx0208_2443
ENCODING 9283
SWIDTH 960 0
DWIDTH 24 0
BBX 24 24 0 -2
BITMAP
000000
000000
000000
000000
000000
000000
000000
000000
001FC0
0CFFF0
0FF8F0
0FC078
0F0038
060038
000038
000078
000070
0000F0
0003E0
003FC0
003E00
000000
000000
000000
ENDCHAR

STARTCHAR jisx0208_2444
ENCODING 9284
SWIDTH 960 0
DWIDTH 24 0
BBX 24 24 0 -2
BITMAP
000000
000000
000000
000000
000000
001FF8
61FFFE
7FF81E
7FC00F
3E0007
180007
000007
000007
00000F
00000E
00001E
00003C
0000F8
0007F0
003FC0
003E00
000000
000000
000000
ENDCHAR

STARTCHAR jisx0208_2445
ENCODING 9285
SWIDTH 960 0
DWIDTH 24 0
BBX 24 24 0 -2
BITMAP
00000E
00000F
000037
00003B
00001C
001FEC
61FFFA
7FF81E
7FC00F
3E0007
180007
000007
000007
00000F
00000E
00001E
00003C
0000F8
0007F0
003FC0
003E00
000000
000000
000000
ENDCHAR

STARTCHAR jisx0208_2446
ENCODING 9286
SWIDTH 960 0
DWIDTH 24 0
BBX 24 24 0 -2
BITMAP
000000
000000
00007C
000FFE
30FFFE
3FFBCE
3FC700
1F1E00
0C3C00
007800
007000
00F000
00E000
00E000
00E000
00E000
00F000
007000
007C60
003FF0
001FF0
0007F0
000000
000000
ENDCHAR

STARTCHAR jisx0208_2447
ENCODING 9287
SWIDTH 960 0
DWIDTH 24 0
BBX 24 24 0 -2
BITMAP
000000
000000
00007C
000FFE
30FFFE
3FFBCE
3FC710
1F1E1E
0C3C6E
007876
007038
00F018
00E000
00E000
00E000
00E000
00F000
007000
007C60
003FF0
001FF0
0007F0
000000
000000
ENDCHAR

STARTCHAR jisx0208_2448
ENCODING 9288
SWIDTH 960 0
DWIDTH 24 0
BBX 24 24 0 -2
BITMAP
01F000
01F800
007800
007000
007000
007000
007060
0071F0
0077F0
007FF0
003F00
01F800
03E000
078000
0F0000
0E0000
0E0000
0E0030
0F80F8
07FFF8
03FFF8
00FFC0
000000
000000
ENDCHAR

STARTCHAR jisx0208_2449
ENCODING 9289
SWIDTH 960 0
DWIDTH 24 0
BBX 24 24 0 -2
BITMAP
01F000
01F80E
00780F
007037
00703B
00701C
00706C
0071F0
0077F0
007FF0
003F00
01F800
03E000
078000
0F0000
0E0000
0E0000
0E0030
0F80F8
07FFF8
03FFF8
00FFC0
000000
000000
ENDCHAR

STARTCHAR jisx0208_244A
ENCODING 9290
SWIDTH 960 0
DWIDTH 24 0
BBX 24 24 0 -2
BITMAP
000000
07C000
07E000
01E000
01DC00
39BC00
3F7DF0
1FF1FC
03003E
0701FE
0701CE
070180
0E0180
0E0180
1E01C0
1C7FC0
3CFFE0
3CE1F8
38C1FC
38E1BE
00FFDE
007F8E
001F00
000000
ENDCHAR

STARTCHAR jisx0208_244B
ENCODING 9291
SWIDTH 960 0
DWIDTH 24 0
BBX 24 24 0 -2
BITMAP
000000
1C0000
1E0000
0F3818
0F3FFC
0E1FFC
0E07FC
1E0F00
1C1C00
1C1800
1C0000
1C0000
1C0000
1D8000
1DB000
1FB000
1B3000
1F380C
1E3FFE
0F1FFE
0F0FFE
070000
000000
000000
ENDCHAR

STARTCHAR jisx0208_244C
ENCODING 9292
SWIDTH 960 0
DWIDTH 24 0
BBX 24 24 0 -2
BITMAP
000000
007C00
007E00
001E00
001C00
3C3FC0
3EFFF0
1FFCF8
0DD83C
07B81C
0F381E
0F300E
1B700E
1B700E
3B700E
3BE7EE
39EFFE
39CE3C
3BEC1F
3F6FFF
3F07F7
1E03F0
000000
000000
ENDCHAR

STARTCHAR jisx0208_244D
ENCODING 9293
SWIDTH 960 0
DWIDTH 24 0
BBX 24 24 0 -2
BITMAP
000000
0F8000
0FC000
03C000
038000
0387F0
33DFFC
3FFE3C
3FB81E
3B700E
03E00E
07C00E
07800E
0F800E
0F800E
1B87EE
3B8FFE
3B8E3C
3F8C1F
378FFF
0387F7
0383E0
030000
000000
ENDCHAR

STARTCHAR jisx0208_244E
ENCODING 9294
SWIDTH 960 0
DWIDTH 24 0
BBX 24 24 0 -2
BITMAP
000000
000000
000000
007F80
01FFE0
03D9F0
079C78
0F1C3C
1E1C1C
1C181E
3C380E
38380E
38380E
38300E
38700E
38701E
3CE01C
1CE03C
1FC078
0FC1F0
0787E0
000780
000000
000000
ENDCHAR

STARTCHAR jisx0208_244F
ENCODING 9295
SWIDTH 960 0
DWIDTH 24 0
BBX 24 24 0 -2
BITMAP
000000
3803E0
3C03F0
1E00F0
1E00EE
1C70FE
1C7FFE
3C3FF8
380FE0
3800E0
3800E0
3800E0
3800E0
3B00E0
3B3FE0
3F7FF0
3670F8
3E60FC
3C70DE
1E7FDE
1E3FCE
0E1F80
000000
000000
ENDCHAR

STARTCHAR jisx0208_2450
ENCODING 9296
SWIDTH 960 0
DWIDTH 24 0
BBX 24 24 0 -2
BITMAP
00000E
3803FF
3C03F7
1E00DB
1E00EC
1C70FE
1C7FFE
3C3FF8
380FE0
3800E0
3800E0
3800E0
3800E0
3B00E0
3B3FE0
3F7FF0
3670F8
3E60FC
3C70DE
1E7FDE
1E3FCE
0E1F80
000000
000000
ENDCHAR

STARTCHAR jisx0208_2451
ENCODING 9297
SWIDTH 960 0
DWIDTH 24 0
BBX 24 24 0 -2
BITMAP
00001E
3803FF
3C03F3
1E00F3
1E00FF
1C70DE
1C7FFE
3C3FF8
380FE0
3800E0
3800E0
3800E0
3800E0
3B00E0
3B3FE0
3F7FF0
3670F8
3E60FC
3C70DE
1E7FDE
1E3FCE
0E1F80
000000
000000
ENDCHAR

STARTCHAR jisx0208_2452
ENCODING 9298
SWIDTH 960 0
DWIDTH 24 0
BBX 24 24 0 -2
BITMAP
000000
000000
1C38E0
1FF8E0
0FF8E0
07E0F0
01C070
078078
07007C
0E005E
0E007F
1C006F
1C0067
1C0060
1C00E0
1C00E0
1C01C0
1E03C0
0F0F80
0FFF00
07FE00
01F800
000000
000000
ENDCHAR

STARTCHAR jisx0208_2453
ENCODING 9299
SWIDTH 960 0
DWIDTH 24 0
BBX 24 24 0 -2
BITMAP
000000
00000E
1C38EF
1FF8F7
0FF8DB
07E0EE
01C076
078078
07007C
0E005E
0E007F
1C006F
1C0067
1C0060
1C00E0
1C00E0
1C01C0
1E03C0
0F0F80
0FFF00
07FE00
01F800
000000
000000
ENDCHAR

STARTCHAR jisx0208_2454
ENCODING 9300
SWIDTH 960 0
DWIDTH 24 0
BBX 24 24 0 -2
BITMAP
00001E
00003F
1C38F3
1FF8F3
0FF8FF
07E0DE
01C070
078078
07007C
0E005E
0E007F
1C006F
1C0067
1C0060
1C00E0
1C00E0
1C01C0
1E03C0
0F0F80
0FFF00
07FE00
01F800
000000
000000
ENDCHAR

STARTCHAR jisx0208_2455
ENCODING 9301
SWIDTH 960 0
DWIDTH 24 0
BBX 24 24 0 -2
BITMAP
000000
00E000
00F000
007C00
003F80
001F80
003F80
007800
007000
006000
007000
007800
003C00
001EE0
018FF8
37873C
7F071E
6E072E
7F8F7E
7BFF6E
31FE00
007C00
000000
000000
ENDCHAR

STARTCHAR jisx0208_2456
ENCODING 9302
SWIDTH 960 0
DWIDTH 24 0
BBX 24 24 0 -2
BITMAP
000000
00E000
00F00E
007C0F
003FB7
001FBB
003F9C
00780C
007000
006000
007000
007800
003C00
001EE0
018FF8
37873C
7F071E
6E072E
7F8F7E
7BFF6E
31FE00
007C00
000000
000000
ENDCHAR

STARTCHAR jisx0208_2457
ENCODING 9303
SWIDTH 960 0
DWIDTH 24 0
BBX 24 24 0 -2
BITMAP
000000
00E03C
00F07E
007C66
003F66
001FFE
003FBC
007800
007000
006000
007000
007800
003C00
001EE0
018FF8
37873C
7F071E
6E072E
7F8F7E
7BFF6E
31FE00
007C00
000000
000000
ENDCHAR

STARTCHAR jisx0208_2458
ENCODING 9304
SWIDTH 960 0
DWIDTH 24 0
BBX 24 24 0 -2
BITMAP
000000
000000
000000
000000
000000
000000
00F000
01F800
03FC00
079E00
6F0F00
7E0780
7E03E0
3C01F0
1800FC
00007E
00003F
00000F
000007
000000
000000
000000
000000
000000
ENDCHAR

STARTCHAR jisx0208_2459
ENCODING 9305
SWIDTH 960 0
DWIDTH 24 0
BBX 24 24 0 -2
BITMAP
000000
000000
000000
000038
00003C
0000DC
00F0EC
01F870
03FC30
079E00
6F0F00
7E0780
7E03E0
3C01F0
1800FC
00007E
00003F
00000F
000007
000000
000000
000000
000000
000000
ENDCHAR

STARTCHAR jisx0208_245A
ENCODING 9306
SWIDTH 960 0
DWIDTH 24 0
BBX 24 24 0 -2
BITMAP
000000
000000
000000
0000F0
0001F8
000198
00F198
01F9F8
03FCF0
079E00
6F0F00
7E0780
7E03E0
3C01F0
1800FC
00007E
00003F
00000F
000007
000000
000000
000000
000000
000000
ENDCHAR

STARTCHAR jisx0208_245B
ENCODING 9307
SWIDTH 960 0
DWIDTH 24 0
BBX 24 24 0 -2
BITMAP
000000
380000
3C703C
1E7FFC
1E3FFC
1C1FE0
1C00F8
3C70DE
387FEE
383FFE
381FF8
3800E0
3800E0
3B00E0
3B3FE0
3F7FF0
3670F8
3E60FC
3C70DE
1E7FDE
1E3FCE
0E1F80
000000
000000
ENDCHAR

STARTCHAR jisx0208_245C
ENCODING 9308
SWIDTH 960 0
DWIDTH 24 0
BBX 24 24 0 -2
BITMAP
00000E
38000F
3C7077
1E7FFB
1E3FEE
1C1FF6
1C00F8
3C70DE
387FEE
383FFE
381FF8
3800E0
3800E0
3B00E0
3B3FE0
3F7FF0
3670F8
3E60FC
3C70DE
1E7FDE
1E3FCE
0E1F80
000000
000000
ENDCHAR

STARTCHAR jisx0208_245D
ENCODING 9309
SWIDTH 960 0
DWIDTH 24 0
BBX 24 24 0 -2
BITMAP
00001E
38003F
3C7073
1E7FF3
1E3FFF
1C1FDE
1C00F0
3C70DE
387FEE
383FFE
381FF8
3800E0
3800E0
3B00E0
3B3FE0
3F7FF0
3670F8
3E60FC
3C70DE
1E7FDE
1E3FCE
0E1F80
000000
000000
ENDCHAR

STARTCHAR jisx0208_245E
ENCODING 9310
SWIDTH 960 0
DWIDTH 24 0
BBX 24 24 0 -2
BITMAP
007C00
007E00
001E00
001C38
381DF8
3FFFF8
1FFFE0
07FF00
001C38
1C1DF8
1FFFF8
0FFFE0
03FF00
001C00
001C00
07FC00
0FFF00
1E1FC0
1C1BF0
1E3CF8
0FFC78
07F838
01F000
000000
ENDCHAR

STARTCHAR jisx0208_245F
ENCODING 9311
SWIDTH 960 0
DWIDTH 24 0
BBX 24 24 0 -2
BITMAP
000000
000600
073F00
07FF00
03EF00
01CE00
001E00
001C00
001C70
003878
00383C
03F63C
0FFFB8
1F67F8
1CE0FE
39C03F
39C07F
3B8077
3F80F0
3F01E0
1E07C0
000F80
000E00
000000
ENDCHAR

STARTCHAR jisx0208_2460
ENCODING 9312
SWIDTH 960 0
DWIDTH 24 0
BBX 24 24 0 -2
BITMAP
07C000
07E000
01E000
01DC00
39FC00
3F7DE0
1FF1F8
01807C
0F801E
1FC02E
3DC07E
39C06E
3B8000
3B8060
3F0060
1F0060
060060
0E0070
0E00F8
0FFFF8
07FFF0
03FFC0
000000
000000
ENDCHAR

STARTCHAR jisx0208_2461
ENCODING 9313
SWIDTH 960 0
DWIDTH 24 0
BBX 24 24 0 -2
BITMAP
000000
003E00
003F00
000F00
3C0E00
3E7FC0
1FFFF0
0DEEF8
078C3C
0F1C1C
0F1C1E
1B980E
1BB80E
39B80E
39F00E
39F01E
38E01C
39F03C
3FB078
3F81F0
1E07E0
000780
000000
000000
ENDCHAR

STARTCHAR jisx0208_2462
ENCODING 9314
SWIDTH 960 0
DWIDTH 24 0
BBX 24 24 0 -2
BITMAP
00E000
00F000
007800
007800
187000
1E6800
0FDC00
07FC00
03FC00
1EC000
19C180
1DCDC0
1FBEE0
0FFE70
03FE70
038038
038038
038038
038038
03C078
01FFF0
01FFF0
007FC0
000000
ENDCHAR

STARTCHAR jisx0208_2463
ENCODING 9315
SWIDTH 960 0
DWIDTH 24 0
BBX 24 24 0 -2
BITMAP
000000
000000
000000
000000
000000
003C00
003E00
01CF00
03DFE0
0387F0
03FE78
0D7838
0FE038
0FC038
0EE778
06E7F0
0073E0
007000
007000
003800
003800
003800
003800
000000
ENDCHAR

STARTCHAR jisx0208_2464
ENCODING 9316
SWIDTH 960 0
DWIDTH 24 0
BBX 24 24 0 -2
BITMAP
000000
003C00
03BF00
078F80
0F3FF0
0F03FC
077F3C
07F81E
6BE00E
7F800E
7D800E
79C01E
31CE3C
00EFFC
00E7F8
00E1E0
007000
007000
007000
007800
003800
003800
003800
000000
ENDCHAR

STARTCHAR jisx0208_2465
ENCODING 9317
SWIDTH 960 0
DWIDTH 24 0
BBX 24 24 0 -2
BITMAP
000000
000000
000000
000000
000000
003800
007C00
0E5C00
0F2F80
077FE0
07EDE0
0EEEF0
0DCE70
0F8E70
0B8E70
0B4E70
0EEEF0
0FEFE0
0F7DE0
073F80
070E00
007C00
007800
000000
ENDCHAR

STARTCHAR jisx0208_2466
ENCODING 9318
SWIDTH 960 0
DWIDTH 24 0
BBX 24 24 0 -2
BITMAP
003800
007C00
00FE00
38EE00
3CDFC0
1E3FF0
1EF6F8
1DE73C
3FC71C
3B871E
3F070E
37070E
36870E
3DC70E
3DC71E
3CE71C
3CF73C
1C7FF8
1C3EF0
1C0FC0
003E00
00FC00
00F000
000000
ENDCHAR

STARTCHAR jisx0208_2467
ENCODING 9319
SWIDTH 960 0
DWIDTH 24 0
BBX 24 24 0 -2
BITMAP
000000
000000
000000
000000
000000
003C00
003E00
001E00
001C00
001CC0
001FE0
001FE0
001BE0
001C00
001C00
001C00
03FC00
07FF80
071FE0
061BF0
07FCF0
03F870
01F000
000000
ENDCHAR

STARTCHAR jisx0208_2468
ENCODING 9320
SWIDTH 960 0
DWIDTH 24 0
BBX 24 24 0 -2
BITMAP
007C00
007E00
001E00
001C00
001C00
001C00
001C70
001FF8
001FF8
001BE0
001C00
001C00
001C00
001C00
001C00
07FC00
0FFF00
1E1FE0
1C1BF8
1E3CFC
0FFC3C
07F81C
03F000
000000
ENDCHAR

STARTCHAR jisx0208_2469
ENCODING 9321
SWIDTH 960 0
DWIDTH 24 0
BBX 24 24 0 -2
BITMAP
000000
01C000
01E300
00FF80
017F80
03FF80
070000
078000
070000
070000
063FE0
06FFF8
07F078
0DC03C
0F801C
0F001C
0E001C
00003C
00007C
0000F8
0007F0
007FC0
007E00
000000
ENDCHAR

STARTCHAR jisx0208_246A
ENCODING 9322
SWIDTH 960 0
DWIDTH 24 0
BBX 24 24 0 -2
BITMAP
070000
078000
039F80
03BFC0
03F9E0
0770E0
06E0F0
07C070
05C070
058070
078070
078070
078070
078070
038070
0380F0
0000E0
0001E0
0003C0
000780
001F00
007E00
007800
000000
ENDCHAR

STARTCHAR jisx0208_246B
ENCODING 9323
SWIDTH 960 0
DWIDTH 24 0
BBX 24 24 0 -2
BITMAP
000000
000380
039FC0
03FFC0
01FBC0
00E700
001E00
003C00
007800
00F000
01EFC0
03FFF0
07E0F8
0F803C
1F001C
1E001C
1CF81C
01FE1C
019F3C
01CF78
01F7F0
00FBE0
003F80
000000
ENDCHAR

STARTCHAR jisx0208_246C
ENCODING 9324
SWIDTH 960 0
DWIDTH 24 0
BBX 24 24 0 -2
BITMAP
000000
0F8000
0FC000
03C000
038000
0387E0
33DFF0
3FFE78
3FB838
3B7038
03E038
07C038
078038
0F8078
0F8070
1B8073
3B8073
3B8077
3F807F
37807E
03803C
038000
030000
000000
ENDCHAR

STARTCHAR jisx0208_246D
ENCODING 9325
SWIDTH 960 0
DWIDTH 24 0
BBX 24 24 0 -2
BITMAP
000000
000380
039FC0
03FFC0
01FBC0
00E700
001E00
003C00
007800
00F000
01EFC0
03FFF0
07E0F8
0F803C
1F001C
1E001C
1C001C
00001C
00003C
000078
0003F0
007FE0
007F00
000000
ENDCHAR

STARTCHAR jisx0208_246E
ENCODING 9326
SWIDTH 960 0
DWIDTH 24 0
BBX 24 24 0 -2
BITMAP
000000
000000
000000
000000
000000
000000
01E000
01F000
00F000
00E000
06F7E0
07FFF0
07DE78
06F838
01F038
01E038
03E038
07E038
06E078
07E1F0
01E7E0
00E780
00C000
000000
ENDCHAR

STARTCHAR jisx0208_246F
ENCODING 9327
SWIDTH 960 0
DWIDTH 24 0
BBX 24 24 0 -2
BITMAP
000000
0F8000
0FC000
03C000
038000
038000
33CFE0
3FFFF8
3FBC7C
3B701C
03E01E
07C00E
07800E
0F800E
0F800E
1B801E
3B801C
3B803C
3F80F8
378FF0
038FC0
038000
030000
000000
ENDCHAR

STARTCHAR jisx0208_2470
ENCODING 9328
SWIDTH 960 0
DWIDTH 24 0
BBX 24 24 0 -2
BITMAP
000000
000C00
073E00
07FF00
03EF00
01CE00
001E00
007DC0
01FFF0
03D8F8
07B83C
0F701C
1E701E
1CE00E
3CE00E
39C00E
39CFCE
3B9FDE
3F9CFC
3F187C
1E1FF8
000FE0
000000
000000
ENDCHAR

STARTCHAR jisx0208_2471
ENCODING 9329
SWIDTH 960 0
DWIDTH 24 0
BBX 24 24 0 -2
BITMAP
000000
030700
03FF80
03FF80
01C780
003E00
00F900
01FFC0
07E3E0
0F80E0
0F70E0
0EF9E0
00DFC0
00F780
007E00
03E000
0787F0
0F6FFC
1FFE3E
3C7C1E
3838FE
3838EE
000000
000000
ENDCHAR

STARTCHAR jisx0208_2472
ENCODING 9330
SWIDTH 960 0
DWIDTH 24 0
BBX 24 24 0 -2
BITMAP
01F000
01F800
007800
0073C0
1CEFC0
1FDFC0
0FFE00
01C000
038070
03FC78
06FEBC
0FCFFC
1F0FE0
3E3F00
3CFE00
39EE00
03DE00
039E00
030E00
038060
03FFF0
01FFF0
00FFF0
000000
ENDCHAR

STARTCHAR jisx0208_2473
ENCODING 9331
SWIDTH 960 0
DWIDTH 24 0
BBX 24 24 0 -2
BITMAP
007000
007800
003C00
003C00
007800
007000
00E000
00E000
01C000
01C000
038000
03F800
06FC06
079E06
0F0E06
0E0E0E
1E0E0E
1C0E1C
3C0E3C
3C0FF8
3807F0
3803E0
000000
000000
ENDCHAR

STARTCHAR jisx0208_2521
ENCODING 9505
SWIDTH 960 0
DWIDTH 24 0
BBX 24 24 0 -2
BITMAP
000000
000000
000000
000000
000000
000000
000000
060070
07FFF8
07FFF8
038078
003BE0
003FC0
001F00
001C00
001C00
003C00
003800
007800
00F000
01E000
01C000
000000
000000
ENDCHAR

STARTCHAR jisx0208_2522
ENCODING 9506
SWIDTH 960 0
DWIDTH 24 0
BBX 24 24 0 -2
BITMAP
000000
000000
30001C
3FFFFE
3FFFFE
1F001E
00007C
0000F8
0079E0
007BC0
001F80
001E00
001C00
001C00
003C00
003800
007800
007000
00F000
01E000
03C000
038000
000000
000000
ENDCHAR

STARTCHAR jisx0208_2523
ENCODING 9507
SWIDTH 960 0
DWIDTH 24 0
BBX 24 24 0 -2
BITMAP
000000
000000
000000
000000
000000
000380
0003C0
0001E0
0003E0
0007C0
000F80
001F00
003E00
007F00
01EE00
07EE00
078E00
000E00
000E00
000E00
001E00
001E00
000E00
000000
ENDCHAR

STARTCHAR jisx0208_2524
ENCODING 9508
SWIDTH 960 0
DWIDTH 24 0
BBX 24 24 0 -2
BITMAP
000000
0001C0
0001E0
0000F0
0001F0
0003E0
0007C0
000F80
001F00
003E00
00FF00
01EE00
07CE00
1F8E00
1E0E00
000E00
000E00
000E00
000E00
000E00
001E00
001E00
000E00
000000
ENDCHAR

STARTCHAR jisx0208_2525
ENCODING 9509
SWIDTH 960 0
DWIDTH 24 0
BBX 24 24 0 -2
BITMAP
000000
000000
000000
000000
000000
000000
003C00
003E00
001E00
071CE0
07FFF0
03FFF0
0380F0
0380E0
0380E0
0380E0
0381E0
0001C0
0003C0
000780
001F00
007E00
007800
000000
ENDCHAR

STARTCHAR jisx0208_2526
ENCODING 9510
SWIDTH 960 0
DWIDTH 24 0
BBX 24 24 0 -2
BITMAP
007C00
007E00
001E00
001C00
1C1C38
1FFFFC
0FFFFC
0E003C
0E0038
0E0038
0E0078
0E0078
0E0070
0E00F0
0000F0
0001E0
0003E0
0007C0
000F80
003F00
00FC00
00F000
000000
000000
ENDCHAR

STARTCHAR jisx0208_2527
ENCODING 9511
SWIDTH 960 0
DWIDTH 24 0
BBX 24 24 0 -2
BITMAP
000000
000000
000000
000000
000000
000000
000000
000000
0303C0
03FFE0
03FFE0
01DC00
001E00
001C00
001C00
001C00
0C1C70
0FFFF8
0FFFF8
070038
000000
000000
000000
000000
ENDCHAR

STARTCHAR jisx0208_2528
ENCODING 9512
SWIDTH 960 0
DWIDTH 24 0
BBX 24 24 0 -2
BITMAP
000000
000000
000000
000000
0C00F0
0FFFF8
0FFFF8
079C38
001E00
001C00
001C00
001C00
001C00
001C00
001C00
301C3C
3FFFFE
3FFFFE
1F000E
000000
000000
000000
000000
000000
ENDCHAR

STARTCHAR jisx0208_2529
ENCODING 9513
SWIDTH 960 0
DWIDTH 24 0
BBX 24 24 0 -2
BITMAP
000000
000000
000000
000000
000000
000000
001E00
001F00
000F00
000E00
060EE0
07FFF0
07FFF0
039E00
007E00
00EE00
01EE00
07CE00
0FAE00
0E7E00
003E00
001E00
000C00
000000
ENDCHAR

STARTCHAR jisx0208_252A
ENCODING 9514
SWIDTH 960 0
DWIDTH 24 0
BBX 24 24 0 -2
BITMAP
000000
001F00
001F80
000780
000700
18073C
1FFFFE
1FFFFE
0F0F0E
001F00
003F00
007700
00F700
01F700
03E700
07C700
1F0700
3E0700
387700
007F00
001F00
000F00
000600
000000
ENDCHAR

STARTCHAR jisx0208_252B
ENCODING 9515
SWIDTH 960 0
DWIDTH 24 0
BBX 24 24 0 -2
BITMAP
000000
00F800
00FC00
003C00
003800
183838
1FFFFC
1FFFFC
0F703C
007038
00F038
00E038
00E078
01E070
01C070
03C070
0380F0
079CE0
0F1FE0
1E07E0
1C03C0
000380
000000
000000
ENDCHAR

STARTCHAR jisx0208_252C
ENCODING 9516
SWIDTH 960 0
DWIDTH 24 0
BBX 24 24 0 -2
BITMAP
00000E
00F80F
00FC37
003C3B
00381C
18382C
1FFFF8
1FFFFC
0F703C
007038
00F038
00E038
00E078
01E070
01C070
03C070
0380F0
079CE0
0F1FE0
1E07E0
1C03C0
000380
000000
000000
ENDCHAR

STARTCHAR jisx0208_252D
ENCODING 9517
SWIDTH 960 0
DWIDTH 24 0
BBX 24 24 0 -2
BITMAP
007C00
007E00
001E00
001C00
001CF0
181FF8
1FFFF8
1FFC38
0F9C00
001C00
001C3C
301FFE
3FFFFE
3FFE0E
1F0E00
000E00
000E00
000E00
000E00
000E00
000F00
000F00
000E00
000000
ENDCHAR

STARTCHAR jisx0208_252E
ENCODING 9518
SWIDTH 960 0
DWIDTH 24 0
BBX 24 24 0 -2
BITMAP
007C0E
007E3F
001E37
001C1B
001CEC
181FF0
1FFFF8
1FFC38
0F9C00
001C00
001C3C
301FFE
3FFFFE
3FFE0E
1F0E00
000E00
000E00
000E00
000E00
000E00
000F00
000F00
000E00
000000
ENDCHAR

STARTCHAR jisx0208_252F
ENCODING 9519
SWIDTH 960 0
DWIDTH 24 0
BBX 24 24 0 -2
BITMAP
000000
007800
007C00
003C00
007870
00F7F8
00FFF8
01E078
03C0F0
0780F0
0F01E0
1E01E0
1C03C0
0007C0
000780
000F00
001F00
003E00
007C00
01F800
07E000
078000
000000
000000
ENDCHAR

STARTCHAR jisx0208_2530
ENCODING 9520
SWIDTH 960 0
DWIDTH 24 0
BBX 24 24 0 -2
BITMAP
00000E
00780F
007C17
003C1B
00786E
00F7F6
00FFF8
01E078
03C0F0
0780F0
0F01E0
1E01E0
1C03C0
0007C0
000780
000F00
001F00
003E00
007C00
01F800
07E000
078000
000000
000000
ENDCHAR

STARTCHAR jisx0208_2531
ENCODING 9521
SWIDTH 960 0
DWIDTH 24 0
BBX 24 24 0 -2
BITMAP
000000
038000
03C000
01E000
01E00C
03C03E
03BFFE
07FFFE
070380
0F03C0
1E0380
3C0380
380780
000700
000F00
000F00
001E00
003E00
007C00
01F800
03E000
038000
000000
000000
ENDCHAR

STARTCHAR jisx0208_2532
ENCODING 9522
SWIDTH 960 0
DWIDTH 24 0
BBX 24 24 0 -2
BITMAP
00000E
03803F
03C037
01E01B
01E00C
03C03E
03BFFE
07FFFE
070380
0F03C0
1E0380
3C0380
380780
000700
000F00
000F00
001E00
003E00
007C00
01F800
03E000
038000
000000
000000
ENDCHAR

STARTCHAR jisx0208_2533
ENCODING 9523
SWIDTH 960 0
DWIDTH 24 0
BBX 24 24 0 -2
BITMAP
000000
000000
000000
000000
180070
1FFFF8
1FFFF8
0F8078
000070
000070
000070
0000F0
0000E0
0000E0
0000E0
1800F0
1FFFF0
1FFFF0
0F8000
000000
000000
000000
000000
000000
ENDCHAR

STARTCHAR jisx0208_2534
ENCODING 9524
SWIDTH 960 0
DWIDTH 24 0
BBX 24 24 0 -2
BITMAP
00001C
00007E
00006E
000036
180058
1FFFF0
1FFFF8
0F8078
000070
000070
000070
0000F0
0000E0
0000E0
0000E0
1800F0
1FFFF0
1FFFF0
0F8000
000000
000000
000000
000000
000000
ENDCHAR

STARTCHAR jisx0208_2535
ENCODING 9525
SWIDTH 960 0
DWIDTH 24 0
BBX 24 24 0 -2
BITMAP
000000
000F80
07CFC0
07E3C0
01E380
01C380
61C3BC
7FFFFE
7FFFFE
3DC38E
01C380
01C380
01C380
01C380
01C380
01C780
000780
000F00
001F00
003E00
00FC00
00F000
000000
000000
ENDCHAR

STARTCHAR jisx0208_2536
ENCODING 9526
SWIDTH 960 0
DWIDTH 24 0
BBX 24 24 0 -2
BITMAP
00000E
000F8F
07CFD7
07E3DB
01E38E
01C386
61C3B8
7FFFFE
7FFFFE
3DC38E
01C380
01C380
01C380
01C380
01C380
01C780
000780
000F00
001F00
003E00
00FC00
00F000
000000
000000
ENDCHAR

STARTCHAR jisx0208_2537
ENCODING 9527
SWIDTH 960 0
DWIDTH 24 0
BBX 24 24 0 -2
BITMAP
000000
000000
070000
07C000
03E000
01E000
00E00C
00001C
1C001C
1F0038
0F8078
0780F0
0381E0
0003E0
0007C0
001F80
003F00
0CFE00
0FF800
0FF000
07C000
030000
000000
000000
ENDCHAR

STARTCHAR jisx0208_2538
ENCODING 9528
SWIDTH 960 0
DWIDTH 24 0
BBX 24 24 0 -2
BITMAP
00001C
00001E
07006E
07C076
03E038
01E018
00E004
00001C
1C001C
1F0038
0F8078
0780F0
0381E0
0003E0
0007C0
001F80
003F00
0CFE00
0FF800
0FF000
07C000
030000
000000
000000
ENDCHAR

STARTCHAR jisx0208_2539
ENCODING 9529
SWIDTH 960 0
DWIDTH 24 0
BBX 24 24 0 -2
BITMAP
000000
000000
000000
0C01C0
0FFFE0
0FFFE0
07C1E0
0003C0
0003C0
000780
000F80
000F00
001E00
003F80
007BE0
00F9F0
01F0F8
03E078
0F8038
3F0038
3C0000
000000
000000
000000
ENDCHAR

STARTCHAR jisx0208_253A
ENCODING 9530
SWIDTH 960 0
DWIDTH 24 0
BBX 24 24 0 -2
BITMAP
00000E
00000F
000017
0C01DB
0FFFEE
0FFFE6
07C1E0
0003C0
0003C0
000780
000F80
000F00
001E00
003F80
007BE0
00F9F0
01F0F8
03E078
0F8038
3F0038
3C0000
000000
000000
000000
ENDCHAR

STARTCHAR jisx0208_253B
ENCODING 9531
SWIDTH 960 0
DWIDTH 24 0
BBX 24 24 0 -2
BITMAP
000000
000000
07C000
07E000
01E000
01C038
01C7FC
61FFFC
7FFE3C
7FC078
3DC0F0
01C1E0
01C3C0
01C780
01C600
01C000
01C030
01C0F8
01FFF8
00FFF8
007FC0
000000
000000
000000
ENDCHAR

STARTCHAR jisx0208_253C
ENCODING 9532
SWIDTH 960 0
DWIDTH 24 0
BBX 24 24 0 -2
BITMAP
00000E
00003F
07C037
07E01B
01E00C
01C030
01C7FC
61FFFC
7FFE3C
7FC078
3DC0F0
01C1E0
01C3C0
01C780
01C600
01C000
01C030
01C0F8
01FFF8
00FFF8
007FC0
000000
000000
000000
ENDCHAR

STARTCHAR jisx0208_253D
ENCODING 9533
SWIDTH 960 0
DWIDTH 24 0
BBX 24 24 0 -2
BITMAP
000000
000000
000070
1C0078
1E003C
0F003C
078078
078078
038070
0380F0
0000F0
0001E0
0003E0
0003C0
000780
000F80
001F00
003E00
007C00
01F000
03E000
038000
000000
000000
ENDCHAR

STARTCHAR jisx0208_253E
ENCODING 9534
SWIDTH 960 0
DWIDTH 24 0
BBX 24 24 0 -2
BITMAP
00000E
00003F
000037
1C005B
1E006C
0F0038
07803C
078078
038078
0380F0
0000F0
0001E0
0003E0
0003C0
000780
000F80
001F00
003E00
007C00
01F000
03E000
038000
000000
000000
ENDCHAR

STARTCHAR jisx0208_253F
ENCODING 9535
SWIDTH 960 0
DWIDTH 24 0
BBX 24 24 0 -2
BITMAP
000000
007800
007C00
003C00
007870
00F7F8
00FFF8
01E078
03C0F0
0780F0
0F79E0
1E7DE0
1C1FC0
0007C0
000380
000FE0
001EE0
003EE0
007C00
01F800
07E000
078000
000000
000000
ENDCHAR

STARTCHAR jisx0208_2540
ENCODING 9536
SWIDTH 960 0
DWIDTH 24 0
BBX 24 24 0 -2
BITMAP
00000E
00783F
007C37
003C1B
00786C
00F7F0
00FFF8
01E078
03C0F0
0780F0
0F79E0
1E7DE0
1C1FC0
0007C0
000380
000FE0
001EE0
003EE0
007C00
01F800
07E000
078000
000000
000000
ENDCHAR

STARTCHAR jisx0208_2541
ENCODING 9537
SWIDTH 960 0
DWIDTH 24 0
BBX 24 24 0 -2
BITMAP
000000
0007C0
0007E0
0019E0
07FF80
07FC00
001E00
001C00
301C3C
3FFFFE
3FFFFE
1E1C0E
001C00
001C00
003C00
003C00
007800
00F800
01F000
03E000
07C000
070000
000000
000000
ENDCHAR

STARTCHAR jisx0208_2542
ENCODING 9538
SWIDTH 960 0
DWIDTH 24 0
BBX 24 24 0 -2
BITMAP
000000
0007CE
0007EF
0019F7
07FFBB
07FC1C
001E0C
001C00
301C3C
3FFFFE
3FFFFE
1E1C0E
001C00
001C00
003C00
003C00
007800
00F800
01F000
03E000
07C000
070000
000000
000000
ENDCHAR

STARTCHAR jisx0208_2543
ENCODING 9539
SWIDTH 960 0
DWIDTH 24 0
BBX 24 24 0 -2
BITMAP
000000
000000
000000
000000
000000
000000
006000
0071C0
0679E0
0738F0
07B8F0
03B8E0
0381E0
0381C0
0003C0
000380
000780
000F00
001E00
007C00
00F800
00E000
000000
000000
ENDCHAR

STARTCHAR jisx0208_2544
ENCODING 9540
SWIDTH 960 0
DWIDTH 24 0
BBX 24 24 0 -2
BITMAP
000000
000000
00E000
00F070
387878
3C783C
1E383C
1E3838
0E0078
0E0078
0000F0
0000F0
0001E0
0001E0
0003C0
0007C0
000F80
001F00
003E00
00FC00
03F000
03C000
000000
000000
ENDCHAR

STARTCHAR jisx0208_2545
ENCODING 9541
SWIDTH 960 0
DWIDTH 24 0
BBX 24 24 0 -2
BITMAP
00000E
00003F
00E037
00F05B
38786C
3C7838
1E383C
1E3838
0E0078
0E0078
0000F0
0000F0
0001E0
0001E0
0003C0
0007C0
000F80
001F00
003E00
00FC00
03F000
03C000
000000
000000
ENDCHAR

STARTCHAR jisx0208_2546
ENCODING 9542
SWIDTH 960 0
DWIDTH 24 0
BBX 24 24 0 -2
BITMAP
000000
000000
0601E0
07FFF0
07FFF0
03C000
000000
30007C
3FFFFE
3FFFFE
1F1C0E
001E00
001C00
001C00
003C00
003C00
007800
00F800
01F000
03E000
07C000
070000
000000
000000
ENDCHAR

STARTCHAR jisx0208_2547
ENCODING 9543
SWIDTH 960 0
DWIDTH 24 0
BBX 24 24 0 -2
BITMAP
00000E
00003F
0601F7
07FFDB
07FFEC
03C000
000000
30007C
3FFFFE
3FFFFE
1F1C0E
001E00
001C00
001C00
003C00
003C00
007800
00F800
01F000
03E000
07C000
070000
000000
000000
ENDCHAR

STARTCHAR jisx0208_2548
ENCODING 9544
SWIDTH 960 0
DWIDTH 24 0
BBX 24 24 0 -2
BITMAP
000000
01F000
01F800
007800
007000
007000
007000
007000
007C00
007F00
006FC0
0073E0
0071E0
0070E0
007000
007000
007000
007000
007000
007000
00F000
00F000
007000
000000
ENDCHAR

STARTCHAR jisx0208_2549
ENCODING 9545
SWIDTH 960 0
DWIDTH 24 0
BBX 24 24 0 -2
BITMAP
000000
01F070
01F878
0079B8
0071D8
0070E0
007060
007000
007C00
007F00
006FC0
0073E0
0071E0
0070E0
007000
007000
007000
007000
007000
007000
00F000
00F000
007000
000000
ENDCHAR

STARTCHAR jisx0208_254A
ENCODING 9546
SWIDTH 960 0
DWIDTH 24 0
BBX 24 24 0 -2
BITMAP
000000
007C00
007E00
001E00
001C00
001C00
301C7C
3FFFFE
3FFFFE
1F1C0E
001C00
001C00
001C00
001C00
003C00
003C00
007800
00F800
01F000
03E000
07C000
070000
000000
000000
ENDCHAR

STARTCHAR jisx0208_254B
ENCODING 9547
SWIDTH 960 0
DWIDTH 24 0
BBX 24 24 0 -2
BITMAP
000000
000000
000000
000000
0701E0
07FFE0
03FFE0
00FF80
000000
000000
000000
000000
000000
000000
000000
30007C
3FFFFE
3FFFFE
1F000E
000000
000000
000000
000000
000000
ENDCHAR

STARTCHAR jisx0208_254C
ENCODING 9548
SWIDTH 960 0
DWIDTH 24 0
BBX 24 24 0 -2
BITMAP
000000
000000
000000
0C00E0
0FFFF0
0FFFF0
07C0F0
0001E0
0001E0
01E3C0
01FBC0
007F80
001F80
000F00
003FC0
007BE0
00F9E0
01F0E0
07E000
1F8000
1E0000
000000
000000
000000
ENDCHAR

STARTCHAR jisx0208_254D
ENCODING 9549
SWIDTH 960 0
DWIDTH 24 0
BBX 24 24 0 -2
BITMAP
007800
007E00
001E00
000E00
0601C0
07FFE0
07FFE0
03C1E0
0007C0
000F80
001F00
003E00
007DE0
01FDF8
07DC7C
1F9C3C
1E1C1C
001C00
001C00
001C00
003C00
003C00
001C00
000000
ENDCHAR

STARTCHAR jisx0208_254E
ENCODING 9550
SWIDTH 960 0
DWIDTH 24 0
BBX 24 24 0 -2
BITMAP
000000
000000
000000
0001C0
0001E0
0000F0
0000F0
0001E0
0001E0
0003C0
0007C0
000780
000F00
001F00
003E00
007C00
00F800
01F000
07C000
1F8000
1E0000
000000
000000
000000
ENDCHAR

STARTCHAR jisx0208_254F
ENCODING 9551
SWIDTH 960 0
DWIDTH 24 0
BBX 24 24 0 -2
BITMAP
000000
000000
000000
000000
070000
078380
03C3C0
03C1E0
0780F0
078070
070078
0F003C
0E003C
1E001E
1C001E
3C000E
78000E
70000E
600000
000000
000000
000000
000000
000000
ENDCHAR

STARTCHAR jisx0208_2550
ENCODING 9552
SWIDTH 960 0
DWIDTH 24 0
BBX 24 24 0 -2
BITMAP
000000
00001C
00001E
00006E
070076
0783B8
03C3D8
03C1E0
0780F0
078070
070078
0F003C
0E003C
1E001E
1C001E
3C000E
78000E
70000E
600000
000000
000000
000000
000000
000000
ENDCHAR

STARTCHAR jisx0208_2551
ENCODING 9553
SWIDTH 960 0
DWIDTH 24 0
BBX 24 24 0 -2
BITMAP
000000
00003C
00007E
000066
070066
0783FE
03C3BC
03C1C0
0780F0
078070
070078
0F003C
0E003C
1E001E
1C001E
3C000E
78000E
70000E
600000
000000
000000
000000
000000
000000
ENDCHAR

STARTCHAR jisx0208_2552
ENCODING 9554
SWIDTH 960 0
DWIDTH 24 0
BBX 24 24 0 -2
BITMAP
000000
000000
1F0000
1F8000
0781C0
0701E0
0700F0
0707F0
073FE0
07FF00
07F000
070000
070000
070000
070000
070000
070030
0700F8
07FFF8
03FFF8
01FFC0
000000
000000
000000
ENDCHAR

STARTCHAR jisx0208_2553
ENCODING 9555
SWIDTH 960 0
DWIDTH 24 0
BBX 24 24 0 -2
BITMAP
000000
00001C
1F007E
1F806E
0781B6
0701D8
0700E0
0707F0
073FE0
07FF00
07F000
070000
070000
070000
070000
070000
070030
0700F8
07FFF8
03FFF8
01FFC0
000000
000000
000000
ENDCHAR

STARTCHAR jisx0208_2554
ENCODING 9556
SWIDTH 960 0
DWIDTH 24 0
BBX 24 24 0 -2
BITMAP
00003C
00007E
1F0066
1F8066
0781FE
0701BC
0700E0
0707F0
073FE0
07FF00
07F000
070000
070000
070000
070000
070000
070030
0700F8
07FFF8
03FFF8
01FFC0
000000
000000
000000
ENDCHAR

STARTCHAR jisx0208_2555
ENCODING 9557
SWIDTH 960 0
DWIDTH 24 0
BBX 24 24 0 -2
BITMAP
000000
000000
000000
180038
1FFFFC
1FFFFC
0F803C
000038
000078
000078
000070
0000F0
0000F0
0001E0
0003E0
0007C0
000F80
001F00
007E00
01F800
01E000
000000
000000
000000
ENDCHAR

STARTCHAR jisx0208_2556
ENCODING 9558
SWIDTH 960 0
DWIDTH 24 0
BBX 24 24 0 -2
BITMAP
00000E
00003F
000037
18001B
1FFFEC
1FFFF8
0F803C
000038
000078
000078
000070
0000F0
0000F0
0001E0
0003E0
0007C0
000F80
001F00
007E00
01F800
01E000
000000
000000
000000
ENDCHAR

STARTCHAR jisx0208_2557
ENCODING 9559
SWIDTH 960 0
DWIDTH 24 0
BBX 24 24 0 -2
BITMAP
00001E
00003F
000033
180033
1FFFFF
1FFFFE
0F803C
000038
000078
000078
000070
0000F0
0000F0
0001E0
0003E0
0007C0
000F80
001F00
007E00
01F800
01E000
000000
000000
000000
ENDCHAR

STARTCHAR jisx0208_2558
ENCODING 9560
SWIDTH 960 0
DWIDTH 24 0
BBX 24 24 0 -2
BITMAP
000000
000000
000000
000000
000000
00F000
01F800
03BC00
079E00
6F0F00
7E0780
7E03C0
3C01E0
1800F8
00007C
00003F
00001F
00000F
000007
000000
000000
000000
000000
000000
ENDCHAR

STARTCHAR jisx0208_2559
ENCODING 9561
SWIDTH 960 0
DWIDTH 24 0
BBX 24 24 0 -2
BITMAP
000000
000000
000038
00003C
0000DC
00F0EC
01F870
03BC30
079E00
6F0F00
7E0780
7E03C0
3C01E0
1800F8
00007C
00003F
00001F
00000F
000007
000000
000000
000000
000000
000000
ENDCHAR

STARTCHAR jisx0208_255A
ENCODING 9562
SWIDTH 960 0
DWIDTH 24 0
BBX 24 24 0 -2
BITMAP
000000
000000
000078
0000FC
0000CC
00F0CC
01F8FC
03BC78
079E00
6F0F00
7E0780
7E03C0
3C01E0
1800F8
00007C
00003F
00001F
00000F
000007
000000
000000
000000
000000
000000
ENDCHAR

STARTCHAR jisx0208_255B
ENCODING 9563
SWIDTH 960 0
DWIDTH 24 0
BBX 24 24 0 -2
BITMAP
000000
007C00
007E00
001E00
001C00
181CF8
1FFFFC
1FFFFC
0F9C1C
001C00
031CE0
031CF0
071C78
071C3C
0F1C3C
1E1C1C
1E1C1C
1C1C00
01DC00
01FC00
007C00
003C00
001800
000000
ENDCHAR

STARTCHAR jisx0208_255C
ENCODING 9564
SWIDTH 960 0
DWIDTH 24 0
BBX 24 24 0 -2
BITMAP
00001C
007C7E
007E6E
001E36
001C18
181CE0
1FFFFC
1FFFFC
0F9C1C
001C00
031CE0
031CF0
071C78
071C3C
0F1C3C
1E1C1C
1E1C1C
1C1C00
01DC00
01FC00
007C00
003C00
001800
000000
ENDCHAR

STARTCHAR jisx0208_255D
ENCODING 9565
SWIDTH 960 0
DWIDTH 24 0
BBX 24 24 0 -2
BITMAP
00003C
007C7E
007E66
001E66
001C7E
181CBC
1FFFF8
1FFFFC
0F9C1C
001C00
031CE0
031CF0
071C78
071C3C
0F1C3C
1E1C1C
1E1C1C
1C1C00
01DC00
01FC00
007C00
003C00
001800
000000
ENDCHAR

STARTCHAR jisx0208_255E
ENCODING 9566
SWIDTH 960 0
DWIDTH 24 0
BBX 24 24 0 -2
BITMAP
000000
000000
000000
000000
300038
3FFFFC
3FFFFC
1F003C
000078
0000F0
0000F0
0001E0
0383C0
03C780
01EF00
00FE00
007800
003E00
001E00
000E00
000E00
000000
000000
000000
ENDCHAR

STARTCHAR jisx0208_255F
ENCODING 9567
SWIDTH 960 0
DWIDTH 24 0
BBX 24 24 0 -2
BITMAP
000000
000000
01FC00
01FF80
001FC0
0007C0
0001C0
000000
01F800
01FF00
003F80
000F80
000380
000000
000000
0FC000
0FF800
01FF00
003FC0
000FE0
0003E0
0000E0
000000
000000
ENDCHAR

STARTCHAR jisx0208_2560
ENCODING 9568
SWIDTH 960 0
DWIDTH 24 0
BBX 24 24 0 -2
BITMAP
000000
000000
003800
003C00
001E00
001E00
003C00
003C00
003800
007800
007000
00F000
00E1C0
01E1E0
01C0F0
038078
3387B8
3F7FFC
3FFE3C
1F801C
0C001C
000000
000000
000000
ENDCHAR

STARTCHAR jisx0208_2561
ENCODING 9569
SWIDTH 960 0
DWIDTH 24 0
BBX 24 24 0 -2
BITMAP
000000
000000
0001C0
0001E0
0000F0
0000F0
0001E0
0001E0
0003C0
01E3C0
01F780
007F80
001F00
000FC0
003FE0
007DE0
00F8E0
01F000
07E000
1F8000
1E0000
000000
000000
000000
ENDCHAR

STARTCHAR jisx0208_2562
ENCODING 9570
SWIDTH 960 0
DWIDTH 24 0
BBX 24 24 0 -2
BITMAP
000000
000000
000000
0C01E0
0FFFF0
0FFFF0
07B870
003C00
003800
30387C
3FFFFE
3FFFFE
1F380E
003800
003800
003800
003800
003830
003FF8
003FF8
001FF8
000000
000000
000000
ENDCHAR

STARTCHAR jisx0208_2563
ENCODING 9571
SWIDTH 960 0
DWIDTH 24 0
BBX 24 24 0 -2
BITMAP
000000
000000
000000
000000
000000
000000
007800
007C00
003C00
003860
0C3FF0
0FFFF8
0FF878
0F39F0
063BC0
003F00
001C00
001C00
001C00
001C00
001C00
001C00
001C00
000000
ENDCHAR

STARTCHAR jisx0208_2564
ENCODING 9572
SWIDTH 960 0
DWIDTH 24 0
BBX 24 24 0 -2
BITMAP
01F000
01F800
007800
007000
00701C
0073FE
61FFFE
7FFF1E
7F703C
3C7078
1870F0
0071E0
007BC0
003B00
003800
003800
003800
003800
003800
003C00
003C00
003C00
001800
000000
ENDCHAR

STARTCHAR jisx0208_2565
ENCODING 9573
SWIDTH 960 0
DWIDTH 24 0
BBX 24 24 0 -2
BITMAP
000000
000000
000000
000000
000000
000000
000000
000000
030380
03FFC0
03FFC0
01C3C0
000380
000380
000780
000700
180770
1FFFF8
1FFFF8
0F0038
000000
000000
000000
000000
ENDCHAR

STARTCHAR jisx0208_2566
ENCODING 9574
SWIDTH 960 0
DWIDTH 24 0
BBX 24 24 0 -2
BITMAP
000000
000000
000000
000000
0600E0
07FFF0
07FFF0
03E0F0
0000E0
0000E0
0000E0
0001E0
0001C0
0001C0
0001C0
6001DE
7FFFFF
7FFFFF
3E0007
000000
000000
000000
000000
000000
ENDCHAR

STARTCHAR jisx0208_2567
ENCODING 9575
SWIDTH 960 0
DWIDTH 24 0
BBX 24 24 0 -2
BITMAP
000000
000000
000000
000000
000000
000000
000000
0601C0
07FFE0
07FFE0
03C1E0
0001C0
0301C0
03FFC0
03FFC0
01E380
000380
060380
07FFC0
07FFC0
03C000
000000
000000
000000
ENDCHAR

STARTCHAR jisx0208_2568
ENCODING 9576
SWIDTH 960 0
DWIDTH 24 0
BBX 24 24 0 -2
BITMAP
000000
000000
000000
0C0070
0FFFF8
0FFFF8
07C078
000070
000070
000070
060070
07FFF0
07FFE0
03E0E0
0000E0
0000E0
0000E0
0C00E0
0FFFF0
0FFFF0
07C070
000000
000000
000000
ENDCHAR

STARTCHAR jisx0208_2569
ENCODING 9577
SWIDTH 960 0
DWIDTH 24 0
BBX 24 24 0 -2
BITMAP
000000
000000
0381C0
03FFE0
01FFE0
00FFC0
000000
180038
1FFFFC
1FFFFC
0FC03C
060078
000078
0000F0
0000F0
0001E0
0003E0
0007C0
000F80
003F00
00FC00
00F000
000000
000000
ENDCHAR

STARTCHAR jisx0208_256A
ENCODING 9578
SWIDTH 960 0
DWIDTH 24 0
BBX 24 24 0 -2
BITMAP
000000
0007C0
0F87E0
0FC1E0
03C1C0
0381C0
0381C0
0381C0
0381C0
0381C0
0381C0
0381C0
0381C0
0381C0
0383C0
0003C0
000780
000F80
001F00
003E00
007C00
007000
000000
000000
ENDCHAR

STARTCHAR jisx0208_256B
ENCODING 9579
SWIDTH 960 0
DWIDTH 24 0
BBX 24 24 0 -2
BITMAP
000000
000000
003E00
003F00
0F8F00
0FCE00
03CE00
038E00
038E00
038E00
038E06
038E0E
038E1E
078E3C
078E78
070EF8
0F0FF0
0E1FE0
1E1FC0
3C0F80
380600
300000
000000
000000
ENDCHAR

STARTCHAR jisx0208_256C
ENCODING 9580
SWIDTH 960 0
DWIDTH 24 0
BBX 24 24 0 -2
BITMAP
000000
000000
0F8000
0FC000
03C000
038000
038000
038000
038000
038000
03800C
03801C
03803C
0380F8
0381F0
0387E0
039FC0
03FF00
077E00
07F800
03E000
018000
000000
000000
ENDCHAR

STARTCHAR jisx0208_256D
ENCODING 9581
SWIDTH 960 0
DWIDTH 24 0
BBX 24 24 0 -2
BITMAP
000000
000000
000000
000000
1C0038
1FFFFC
0FFFFC
0E003C
0E0038
0E0038
0E0038
0E0078
0E0070
0E0070
0E0070
0E0070
0FFFF8
0FFFF8
0E0000
000000
000000
000000
000000
000000
ENDCHAR

STARTCHAR jisx0208_256E
ENCODING 9582
SWIDTH 960 0
DWIDTH 24 0
BBX 24 24 0 -2
BITMAP
000000
000000
000000
000000
000000
000000
000000
0700E0
07FFF0
03FFF0
0380F0
0380E0
0380E0
0380E0
0380E0
0381E0
0001C0
0003C0
000780
001F00
003E00
003800
000000
000000
ENDCHAR

STARTCHAR jisx0208_256F
ENCODING 9583
SWIDTH 960 0
DWIDTH 24 0
BBX 24 24 0 -2
BITMAP
000000
000000
000000
1C0038
1FFFFC
0FFFFC
0E003C
0E0038
0E0038
0E0078
0E0078
0E0070
0E00F0
0000F0
0001E0
0001E0
0003C0
0007C0
000F80
003F00
00FC00
00F000
000000
000000
ENDCHAR

STARTCHAR jisx0208_2570
ENCODING 9584
SWIDTH 960 0
DWIDTH 24 0
BBX 24 24 0 -2
BITMAP
000000
003E00
003F00
000F00
000E00
180E78
1FFFFC
1FFFFC
0FCE1C
01EE00
01CE00
01CE00
31CE3C
3FFFFE
3FFFFE
1F0E0E
000E00
000E00
000E00
000E00
000E00
000E00
000E00
000000
ENDCHAR

STARTCHAR jisx0208_2571
ENCODING 9585
SWIDTH 960 0
DWIDTH 24 0
BBX 24 24 0 -2
BITMAP
000000
000000
000000
000000
0C0070
0FFFF8
0FFFF8
07C078
0001F0
007BC0
007F80
001E00
001C00
001C00
001C00
301C7C
3FFFFE
3FFFFE
1F000E
000000
000000
000000
000000
000000
ENDCHAR

STARTCHAR jisx0208_2572
ENCODING 9586
SWIDTH 960 0
DWIDTH 24 0
BBX 24 24 0 -2
BITMAP
000000
000000
000000
0C0038
0FFFFC
0FFFFC
07C03C
000038
0C0038
0FFFF8
0FFFF8
07C070
0000F0
0000F0
0001E0
0003E0
0007C0
000F80
001F00
007E00
01F800
01E000
000000
000000
ENDCHAR

STARTCHAR jisx0208_2573
ENCODING 9587
SWIDTH 960 0
DWIDTH 24 0
BBX 24 24 0 -2
BITMAP
000000
000000
000000
1C0000
1F0000
0F8000
07C00C
03C01C
01C01C
000038
000078
0000F0
0001F0
0003E0
0007C0
001F80
003F00
0CFE00
0FF800
0FF000
07C000
030000
000000
000000
ENDCHAR

STARTCHAR jisx0208_2574
ENCODING 9588
SWIDTH 960 0
DWIDTH 24 0
BBX 24 24 0 -2
BITMAP
00000E
007C0F
007E17
001E1B
1C1C2E
1FFFF6
0FFFFC
0E003C
0E0038
0E0038
0E0078
0E0078
0E0070
0E00F0
0000F0
0001E0
0003E0
0007C0
000F80
003F00
00FC00
00F000
000000
000000
ENDCHAR

STARTCHAR jisx0208_2575
ENCODING 9589
SWIDTH 960 0
DWIDTH 24 0
BBX 24 24 0 -2
BITMAP
000000
000000
000000
000000
000000
000000
007800
007C00
003C00
003800
0638E0
07FFF0
07FFF0
0370F0
0070E0
00F0E0
00E1E0
01E1C0
01D9C0
03BFC0
078F80
070780
000700
000000
ENDCHAR

STARTCHAR jisx0208_2576
ENCODING 9590
SWIDTH 960 0
DWIDTH 24 0
BBX 24 24 0 -2
BITMAP
000000
000000
000000
000000
000000
000000
01C000
01E000
00F000
00F000
01E1E0
01DFF0
03FFF0
078700
0F0780
0E0700
000F00
000E00
001E00
003C00
00F800
01F000
01C000
000000
ENDCHAR

STARTCHAR jisx0208_2621
ENCODING 9761
SWIDTH 960 0
DWIDTH 24 0
BBX 24 24 0 -2
BITMAP
000000
000000
001C00
001C00
003E00
003E00
002E00
007F00
007700
00E780
00E380
00C380
01C3C0
01C1C0
0381E0
03FEE0
03FFE0
0700F0
070070
1E81FC
1F81FC
000000
000000
000000
ENDCHAR

STARTCHAR jisx0208_2622
ENCODING 9762
SWIDTH 960 0
DWIDTH 24 0
BBX 24 24 0 -2
BITMAP
000000
000000
0FFFC0
0FFFE0
0380F0
038070
038070
038070
038070
0380F0
03FFE0
03FFD0
0380F0
038078
038038
038038
038038
038078
0380F0
0FFFF0
0FFFC0
000000
000000
000000
ENDCHAR

STARTCHAR jisx0208_2623
ENCODING 9763
SWIDTH 960 0
DWIDTH 24 0
BBX 24 24 0 -2
BITMAP
000000
000000
0FFFE0
0FFFE0
0380F0
038070
038030
038030
038000
038000
038000
038000
038000
038000
038000
038000
038000
038000
038000
0FF000
0FF000
000000
000000
000000
ENDCHAR

STARTCHAR jisx0208_2624
ENCODING 9764
SWIDTH 960 0
DWIDTH 24 0
BBX 24 24 0 -2
BITMAP
000000
000000
001C00
001C00
003E00
003E00
002E00
007F00
007700
00E780
00E380
00C380
01C3C0
01C1C0
0381E0
0380E0
0300E0
0700F0
070070
0EFFF8
0FFFF8
000000
000000
000000
ENDCHAR

STARTCHAR jisx0208_2625
ENCODING 9765
SWIDTH 960 0
DWIDTH 24 0
BBX 24 24 0 -2
BITMAP
000000
000000
0FFFC0
0FFFC0
0381E0
0380E0
038060
038360
038300
038700
03FF00
03FF00
038700
038300
038300
038030
038030
038070
0380F0
0FFFE0
0FFFE0
000000
000000
000000
ENDCHAR

STARTCHAR jisx0208_2626
ENCODING 9766
SWIDTH 960 0
DWIDTH 24 0
BBX 24 24 0 -2
BITMAP
000000
000000
03FFE0
03FFE0
0781E0
0703C0
060780
060F80
000F00
001E00
003C00
007C00
007800
00F000
01E000
03E030
03C030
078070
0F00F0
0FFFE0
0FFFE0
000000
000000
000000
ENDCHAR

STARTCHAR jisx0208_2627
ENCODING 9767
SWIDTH 960 0
DWIDTH 24 0
BBX 24 24 0 -2
BITMAP
000000
000000
1FC3F8
1FC3F8
0700E0
0700E0
0700E0
0700E0
0700E0
0700E0
07FFE0
07FFE0
0700E0
0700E0
0700E0
0700E0
0700E0
0700E0
0700E0
1FC3F8
1FC3F8
000000
000000
000000
ENDCHAR

STARTCHAR jisx0208_2628
ENCODING 9768
SWIDTH 960 0
DWIDTH 24 0
BBX 24 24 0 -2
BITMAP
000000
000000
007F00
01FFC0
03E3E0
0780F0
070070
0F0078
0EC1B8
0EC1B8
0EFFB8
0EFFB8
0EFFB8
0EC1B8
0EC1B8
0F0078
070070
0780F0
03E3E0
01FFC0
007F00
000000
000000
000000
ENDCHAR

STARTCHAR jisx0208_2629
ENCODING 9769
SWIDTH 960 0
DWIDTH 24 0
BBX 24 24 0 -2
BITMAP
000000
000000
007F00
007F00
001C00
001C00
001C00
001C00
001C00
001C00
001C00
001C00
001C00
001C00
001C00
001C00
001C00
001C00
001C00
007F00
007F00
000000
000000
000000
ENDCHAR

STARTCHAR jisx0208_262A
ENCODING 9770
SWIDTH 960 0
DWIDTH 24 0
BBX 24 24 0 -2
BITMAP
000000
000000
1FC7F0
1FC7F0
0701C0
070780
070F00
071E00
073C00
077800
07FC00
06DC00
07DE00
078F00
070700
070780
0703C0
0701C0
0701E0
1FC2F8
1FC3F8
000000
000000
000000
ENDCHAR

STARTCHAR jisx0208_262B
ENCODING 9771
SWIDTH 960 0
DWIDTH 24 0
BBX 24 24 0 -2
BITMAP
000000
000000
001C00
001C00
003E00
003E00
002E00
007F00
007700
00E780
00E380
00C380
01C3C0
01C1C0
0381E0
0380E0
0300E0
0700F0
070070
1E81FC
1F81FC
000000
000000
000000
ENDCHAR

STARTCHAR jisx0208_262C
ENCODING 9772
SWIDTH 960 0
DWIDTH 24 0
BBX 24 24 0 -2
BITMAP
000000
000000
3F00FC
3F00FC
0F01F0
0F81F0
0B8170
0B8370
0FC370
0DC370
0DC770
0DE770
0CE670
0CEE70
0CEE70
0C6C70
0C7C70
0C7C70
0C3870
3F39FC
3F39FC
000000
000000
000000
ENDCHAR

STARTCHAR jisx0208_262D
ENCODING 9773
SWIDTH 960 0
DWIDTH 24 0
BBX 24 24 0 -2
BITMAP
000000
000000
1F00FC
1F80FC
07C030
07C030
05E030
06F030
06F030
067830
063C30
063E30
061E30
060F30
0607B0
0607B0
0603B0
0601F0
0601F0
1F80F0
1F8070
000000
000000
000000
ENDCHAR

STARTCHAR jisx0208_262E
ENCODING 9774
SWIDTH 960 0
DWIDTH 24 0
BBX 24 24 0 -2
BITMAP
000000
000000
07FFE0
07FFE0
0FFFF0
0E0070
0C0030
0C0030
0300C0
0300C0
03FFC0
03FFC0
03FFC0
0300C0
0300C0
0C0030
0C0030
0E0070
0FFFF0
07FFE0
07FFE0
000000
000000
000000
ENDCHAR

STARTCHAR jisx0208_262F
ENCODING 9775
SWIDTH 960 0
DWIDTH 24 0
BBX 24 24 0 -2
BITMAP
000000
000000
007F00
01FFC0
03E3E0
0780F0
070070
0F0078
0E0038
0E0038
0E0038
0E0038
0E0038
0E0038
0E0038
0F0078
070070
0780F0
03E3E0
01FFC0
007F00
000000
000000
000000
ENDCHAR

STARTCHAR jisx0208_2630
ENCODING 9776
SWIDTH 960 0
DWIDTH 24 0
BBX 24 24 0 -2
BITMAP
000000
000000
1FFFF8
1FFFF8
0700E0
0700E0
0700E0
0700E0
0700E0
0700E0
0700E0
0700E0
0700E0
0700E0
0700E0
0700E0
0700E0
0700E0
0700E0
1FC3F8
1FC3F8
000000
000000
000000
ENDCHAR

STARTCHAR jisx0208_2631
ENCODING 9777
SWIDTH 960 0
DWIDTH 24 0
BBX 24 24 0 -2
BITMAP
000000
000000
0FFF80
0FFFE0
0381E0
0380F0
038070
038070
038070
038070
0380F0
0381E0
03FFE0
03FF80
038000
038000
038000
038000
038000
0FF000
0FF000
000000
000000
000000
ENDCHAR

STARTCHAR jisx0208_2632
ENCODING 9778
SWIDTH 960 0
DWIDTH 24 0
BBX 24 24 0 -2
BITMAP
000000
000000
0FFFC0
0FFFC0
0F01E0
07C0E0
03E060
01F060
00F800
007C00
003E00
001E00
003C00
007800
00F030
01E030
03C070
0780F0
0F7FE0
0FFFE0
0FFFE0
000000
000000
000000
ENDCHAR

STARTCHAR jisx0208_2633
ENCODING 9779
SWIDTH 960 0
DWIDTH 24 0
BBX 24 24 0 -2
BITMAP
000000
000000
07FFF0
07FFF0
0F1C78
0E1C38
0C1C18
0C1C18
001C00
001C00
001C00
001C00
001C00
001C00
001C00
001C00
001C00
001C00
001C00
007F00
007F00
000000
000000
000000
ENDCHAR

STARTCHAR jisx0208_2634
ENCODING 9780
SWIDTH 960 0
DWIDTH 24 0
BBX 24 24 0 -2
BITMAP
000000
000000
03E3E0
07F7F0
0F7F78
0E3E38
0C1C18
0C1C18
001C00
001C00
001C00
001C00
001C00
001C00
001C00
001C00
001C00
001C00
001C00
007F00
007F00
000000
000000
000000
ENDCHAR

STARTCHAR jisx0208_2635
ENCODING 9781
SWIDTH 960 0
DWIDTH 24 0
BBX 24 24 0 -2
BITMAP
000000
000000
007F00
007F00
001C00
00FF80
03FFE0
07DDF0
071C70
0F1C78
0E1C38
0E1C38
0E1C38
0F1C78
071C70
07DDF0
03FFE0
00FF80
001C00
007F00
007F00
000000
000000
000000
ENDCHAR

STARTCHAR jisx0208_2636
ENCODING 9782
SWIDTH 960 0
DWIDTH 24 0
BBX 24 24 0 -2
BITMAP
000000
000000
1FE3F8
1FE3F8
0780E0
03C1C0
01E380
00F780
00F700
007E00
003E00
003C00
007E00
006F00
00E780
01E780
01C3C0
0381E0
0781F0
1F42FC
1FC3FC
000000
000000
000000
ENDCHAR

STARTCHAR jisx0208_2637
ENCODING 9783
SWIDTH 960 0
DWIDTH 24 0
BBX 24 24 0 -2
BITMAP
000000
000000
1F7F7C
1F7F7C
071C70
071C70
071C70
071C70
071C70
071C70
071C70
071C70
071C70
071C70
079CF0
03DDE0
03FFE0
00FF80
001C00
007F00
007F00
000000
000000
000000
ENDCHAR

STARTCHAR jisx0208_2638
ENCODING 9784
SWIDTH 960 0
DWIDTH 24 0
BBX 24 24 0 -2
BITMAP
000000
000000
007E00
01FF80
03E7C0
0781E0
0700E0
0F00F0
0E0070
0E0070
0E0070
0E0070
0F00F0
0700E0
0781E0
03C3C0
05E7A0
06E760
0766E0
07E7E0
07E7E0
000000
000000
000000
ENDCHAR

STARTCHAR jisx0208_2641
ENCODING 9793
SWIDTH 960 0
DWIDTH 24 0
BBX 24 24 0 -2
BITMAP
000000
000000
000000
000000
000000
000000
000000
003E30
00FF30
01F7B0
03C3F0
078370
0703E0
0F03E0
0E03C0
0E03C0
0E07B0
0E0FB0
0F3FF0
07FB70
03F1E0
000000
000000
000000
ENDCHAR

STARTCHAR jisx0208_2642
ENCODING 9794
SWIDTH 960 0
DWIDTH 24 0
BBX 24 24 0 -2
BITMAP
000000
000000
000FE0
003FF0
003C78
007838
007038
00F038
00E078
00E0F0
01FFE0
01DFC0
01C0F0
01C070
03C070
038070
038070
07C0F0
07E1E0
06FFE0
077F80
1F8000
1FC000
000000
ENDCHAR

STARTCHAR jisx0208_2643
ENCODING 9795
SWIDTH 960 0
DWIDTH 24 0
BBX 24 24 0 -2
BITMAP
000000
000000
000000
000000
000000
000000
000000
01F07C
03F9FC
03BBFC
031FC0
001F00
001E00
003C00
003800
003800
007800
007000
007000
00F000
00E000
03F800
03F800
000000
ENDCHAR

STARTCHAR jisx0208_2644
ENCODING 9796
SWIDTH 960 0
DWIDTH 24 0
BBX 24 24 0 -2
BITMAP
000000
000000
003FC0
007FE0
007070
0078F0
003CF0
005F60
00FF80
01E3C0
03C1E0
0380E0
0780E0
0700E0
0700E0
0701E0
0701C0
0783C0
03C780
03FF00
00FE00
000000
000000
000000
ENDCHAR

STARTCHAR jisx0208_2645
ENCODING 9797
SWIDTH 960 0
DWIDTH 24 0
BBX 24 24 0 -2
BITMAP
000000
000000
000000
000000
000000
000000
000000
007F80
00FFC0
01E1E0
01C3E0
01C1C0
01FE00
00FE00
03C000
078060
070060
0700E0
0783E0
03FFC0
01FF00
000000
000000
000000
ENDCHAR

STARTCHAR jisx0208_2646
ENCODING 9798
SWIDTH 960 0
DWIDTH 24 0
BBX 24 24 0 -2
BITMAP
000000
000000
003870
0078F0
007BE0
0077C0
003F00
000E00
003C00
007800
00F000
01E000
01C000
038000
038000
038000
03C000
01FF80
01FFC0
007FC0
0181C0
01FFC0
00FF80
000000
ENDCHAR

STARTCHAR jisx0208_2647
ENCODING 9799
SWIDTH 960 0
DWIDTH 24 0
BBX 24 24 0 -2
BITMAP
000000
000000
000000
000000
000000
000000
000000
03EFC0
07FFE0
077CF0
007870
00F070
00E070
00E0F0
01E0E0
01C0E0
01C1E0
03C1C0
0381C0
0FE3C0
0FE380
000FE0
000FE0
000000
ENDCHAR

STARTCHAR jisx0208_2648
ENCODING 9800
SWIDTH 960 0
DWIDTH 24 0
BBX 24 24 0 -2
BITMAP
000000
000000
003F80
007FE0
00F1E0
01E0F0
01C070
03C070
038070
038070
07FFF0
07FFF0
070070
0700E0
0700E0
0701E0
0701C0
0783C0
03C780
03FF00
00FE00
000000
000000
000000
ENDCHAR

STARTCHAR jisx0208_2649
ENCODING 9801
SWIDTH 960 0
DWIDTH 24 0
BBX 24 24 0 -2
BITMAP
000000
000000
000000
000000
000000
000000
000000
007C00
007C00
001C00
003C00
003800
003800
007800
007000
007000
00F380
00E780
00EF00
00FE00
007C00
000000
000000
000000
ENDCHAR

STARTCHAR jisx0208_264A
ENCODING 9802
SWIDTH 960 0
DWIDTH 24 0
BBX 24 24 0 -2
BITMAP
000000
000000
000000
000000
000000
000000
000000
03E3E0
03E7F0
00EEF0
01EEF0
01DC60
01FC00
03F800
039E00
038E00
078E30
070E70
070EF0
1FCFE0
1FC7C0
000000
000000
000000
ENDCHAR

STARTCHAR jisx0208_264B
ENCODING 9803
SWIDTH 960 0
DWIDTH 24 0
BBX 24 24 0 -2
BITMAP
000000
000000
007C00
00FE00
00EF00
00F700
00F700
006700
000700
000F00
001F80
001B80
003B80
007B80
007380
00E380
01E380
01C398
0383B8
0FE3F8
0FE1F0
000000
000000
000000
ENDCHAR

STARTCHAR jisx0208_264C
ENCODING 9804
SWIDTH 960 0
DWIDTH 24 0
BBX 24 24 0 -2
BITMAP
000000
000000
000000
000000
000000
000000
000000
007070
007070
007070
00F070
00E0F0
00E0E0
01E0E0
01C1E0
01C1C0
03C1C0
0383D8
03C7B8
07FFF8
06FDF0
1F0000
1F0000
000000
ENDCHAR

STARTCHAR jisx0208_264D
ENCODING 9805
SWIDTH 960 0
DWIDTH 24 0
BBX 24 24 0 -2
BITMAP
000000
000000
000000
000000
000000
000000
000000
0301C0
0783E0
07C3E0
03C1E0
01E0E0
01E1C0
00E1C0
00E380
00E780
00EF00
00FE00
00FC00
00F000
00E000
000000
000000
000000
ENDCHAR

STARTCHAR jisx0208_264E
ENCODING 9806
SWIDTH 960 0
DWIDTH 24 0
BBX 24 24 0 -2
BITMAP
000000
000000
003800
007800
007FE0
003FE0
001C00
007800
007000
007000
007FC0
00BFC0
01F000
03C000
038000
038000
03C000
03FF00
01FF80
007FC0
0081C0
00FFC0
007F80
000000
ENDCHAR

STARTCHAR jisx0208_264F
ENCODING 9807
SWIDTH 960 0
DWIDTH 24 0
BBX 24 24 0 -2
BITMAP
000000
000000
000000
000000
000000
000000
000000
007F00
00FFC0
01E3C0
03C1E0
0380E0
0780E0
0700E0
0700E0
0701E0
0701C0
0783C0
03C780
03FF00
00FE00
000000
000000
000000
ENDCHAR

STARTCHAR jisx0208_2650
ENCODING 9808
SWIDTH 960 0
DWIDTH 24 0
BBX 24 24 0 -2
BITMAP
000000
000000
000000
000000
000000
000000
00001C
03FFFC
07FFF8
0731C0
0073C0
007380
006380
00E780
00E700
00C700
01CF30
1DCE70
3F8EF0
3B8FE0
1F07C0
000000
000000
000000
ENDCHAR

STARTCHAR jisx0208_2651
ENCODING 9809
SWIDTH 960 0
DWIDTH 24 0
BBX 24 24 0 -2
BITMAP
000000
000000
000000
000000
000000
000000
000000
001FC0
003FF0
0078F0
00F078
00E038
01E038
01C038
01C038
03C078
038070
03C0F0
07E1E0
06FFC0
077F80
1F8000
1FC000
000000
ENDCHAR

STARTCHAR jisx0208_2652
ENCODING 9810
SWIDTH 960 0
DWIDTH 24 0
BBX 24 24 0 -2
BITMAP
000000
000000
000000
000000
000000
000000
00001C
007FFC
00FFF8
01E3F0
03C1C0
0380E0
0780E0
0700E0
0700E0
0701E0
0701C0
0783C0
03C780
03FF00
00FE00
000000
000000
000000
ENDCHAR

STARTCHAR jisx0208_2653
ENCODING 9811
SWIDTH 960 0
DWIDTH 24 0
BBX 24 24 0 -2
BITMAP
000000
000000
000000
000000
000000
000000
0000E0
01FFE0
03FFC0
039C00
003C00
003800
003800
007800
007000
007000
00F380
00E780
00EF00
00FE00
007C00
000000
000000
000000
ENDCHAR

STARTCHAR jisx0208_2654
ENCODING 9812
SWIDTH 960 0
DWIDTH 24 0
BBX 24 24 0 -2
BITMAP
000000
000000
000000
000000
000000
000000
000000
018380
03C3C0
03C1E0
01C0E0
01C0E0
03C0E0
0380E0
0380E0
0781E0
0701C0
0703C0
078F80
03FF00
01FC00
000000
000000
000000
ENDCHAR

STARTCHAR jisx0208_2655
ENCODING 9813
SWIDTH 960 0
DWIDTH 24 0
BBX 24 24 0 -2
BITMAP
000000
000000
000000
000000
001F00
001F00
000700
003FC0
00FFE0
01EEF0
03CE70
039E70
079C70
071C70
071CF0
073CE0
0739E0
03BFC0
03F780
01FE00
007000
01FC00
01FC00
000000
ENDCHAR

STARTCHAR jisx0208_2656
ENCODING 9814
SWIDTH 960 0
DWIDTH 24 0
BBX 24 24 0 -2
BITMAP
000000
000000
000000
000000
000000
000000
000000
03E0FC
07F0FC
077870
07B9E0
033BC0
001F80
001F00
001E00
003C00
007E00
00EE00
01EE00
03CF38
078778
1F47F0
1FC3E0
000000
ENDCHAR

STARTCHAR jisx0208_2657
ENCODING 9815
SWIDTH 960 0
DWIDTH 24 0
BBX 24 24 0 -2
BITMAP
000000
000000
000000
000000
000000
000000
000000
07DEC0
0FFEE0
0EEEE0
07EE60
01DE60
03DC60
039CE0
079CE0
073DC0
073BC0
07BF80
03F700
01FE00
007000
01FC00
01FC00
000000
ENDCHAR

STARTCHAR jisx0208_2658
ENCODING 9816
SWIDTH 960 0
DWIDTH 24 0
BBX 24 24 0 -2
BITMAP
000000
000000
000000
000000
000000
000000
000000
0071C0
00F1E0
01E0F0
03C070
078E78
070E38
0F0E38
0E1E38
0E1C38
0E1C78
0E3C70
0F78F0
07FFE0
03EFC0
000000
000000
000000
ENDCHAR

STARTCHAR jisx0208_2721
ENCODING 10017
SWIDTH 960 0
DWIDTH 24 0
BBX 24 24 0 -2
BITMAP
000000
000000
001C00
001C00
003E00
003E00
002E00
007F00
007700
00E780
00E380
00C380
01C3C0
01C1C0
0381E0
03FEE0
03FFE0
0700F0
070070
1E81FC
1F81FC
000000
000000
000000
ENDCHAR

STARTCHAR jisx0208_2722
ENCODING 10018
SWIDTH 960 0
DWIDTH 24 0
BBX 24 24 0 -2
BITMAP
000000
000000
0FFFE0
0FFFE0
0380F0
038070
038030
038030
038000
038000
03FFC0
03FFF0
0380F0
038078
038038
038038
038038
038078
0380F0
0FFFF0
0FFFC0
000000
000000
000000
ENDCHAR

STARTCHAR jisx0208_2723
ENCODING 10019
SWIDTH 960 0
DWIDTH 24 0
BBX 24 24 0 -2
BITMAP
000000
000000
0FFFC0
0FFFE0
0380F0
038070
038070
038070
038070
0380F0
03FFE0
03FFD0
0380F0
038078
038038
038038
038038
038078
0380F0
0FFFF0
0FFFC0
000000
000000
000000
ENDCHAR

STARTCHAR jisx0208_2724
ENCODING 10020
SWIDTH 960 0
DWIDTH 24 0
BBX 24 24 0 -2
BITMAP
000000
000000
0FFFE0
0FFFE0
0380F0
038070
038030
038030
038000
038000
038000
038000
038000
038000
038000
038000
038000
038000
038000
0FF000
0FF000
000000
000000
000000
ENDCHAR

STARTCHAR jisx0208_2725
ENCODING 10021
SWIDTH 960 0
DWIDTH 24 0
BBX 24 24 0 -2
BITMAP
000000
000000
03FFF0
03FFF0
00C1C0
00C1C0
00C1C0
00C1C0
00C1C0
00C1C0
00C1C0
00C1C0
00C1C0
01C1C0
01C1C0
0181C0
0381C0
0381C0
0701C0
0FFFF0
1FFFF8
1C0038
180018
000000
ENDCHAR

STARTCHAR jisx0208_2726
ENCODING 10022
SWIDTH 960 0
DWIDTH 24 0
BBX 24 24 0 -2
BITMAP
000000
000000
0FFFC0
0FFFC0
0381E0
0380E0
038060
038360
038300
038700
03FF00
03FF00
038700
038300
038300
038030
038030
038070
0380F0
0FFFE0
0FFFE0
000000
000000
000000
ENDCHAR

STARTCHAR jisx0208_2727
ENCODING 10023
SWIDTH 960 0
DWIDTH 24 0
BBX 24 24 0 -2
BITMAP
01C700
03EF80
03EF80
01C700
0E38C0
0FFFC0
0381E0
0380E0
038360
038360
038700
03FF00
03FF00
038700
038300
038330
038030
038070
0380F0
0FFFE0
0FFFE0
000000
000000
000000
ENDCHAR

STARTCHAR jisx0208_2728
ENCODING 10024
SWIDTH 960 0
DWIDTH 24 0
BBX 24 24 0 -2
BITMAP
000000
000000
1F7EFC
1F7EFC
061C30
071C70
039CE0
039CE0
01DDC0
01FFC0
00FF80
01DBC0
01DDC0
03DDE0
039CE0
079CF0
071C70
0F1C78
0E1C38
3F7EFE
3F7EFE
000000
000000
000000
ENDCHAR

STARTCHAR jisx0208_2729
ENCODING 10025
SWIDTH 960 0
DWIDTH 24 0
BBX 24 24 0 -2
BITMAP
000000
000000
02FF00
03FFC0
07C3C0
0701E0
0600E0
0600E0
0001E0
0003C0
007F80
007FC0
0001E0
0000F0
000070
0C0070
0E0070
0F00F0
07C3E0
03FFC0
00FF00
000000
000000
000000
ENDCHAR

STARTCHAR jisx0208_272A
ENCODING 10026
SWIDTH 960 0
DWIDTH 24 0
BBX 24 24 0 -2
BITMAP
000000
000000
1FC07C
1FC0FC
0701F0
0701F0
070370
070770
070770
070E70
071E70
071C70
073870
077870
077070
07E070
06E070
07C070
078070
1F81FC
1F01FC
000000
000000
000000
ENDCHAR

STARTCHAR jisx0208_272B
ENCODING 10027
SWIDTH 960 0
DWIDTH 24 0
BBX 24 24 0 -2
BITMAP
007700
00F780
00FF80
1F7F7C
1FC0FC
0701F0
070370
070770
070770
070E70
071E70
071C70
073870
077870
077070
07E070
06E070
07C070
078070
1F81FC
1F01FC
000000
000000
000000
ENDCHAR

STARTCHAR jisx0208_272C
ENCODING 10028
SWIDTH 960 0
DWIDTH 24 0
BBX 24 24 0 -2
BITMAP
000000
000000
1FC7F0
1FC7F0
0701C0
070380
070780
070700
070E00
07FE00
07FC00
073C00
071E00
070F00
070F00
070780
0703C0
0703C0
0701E0
1FC2F8
1FC3F8
000000
000000
000000
ENDCHAR

STARTCHAR jisx0208_272D
ENCODING 10029
SWIDTH 960 0
DWIDTH 24 0
BBX 24 24 0 -2
BITMAP
000000
000000
01FFF0
01FFF0
0061C0
0061C0
0061C0
0061C0
0061C0
0061C0
0061C0
0061C0
0061C0
0061C0
0061C0
0661C0
0F61C0
0F61C0
0FE1C0
0EE7F0
07C7F0
000000
000000
000000
ENDCHAR

STARTCHAR jisx0208_272E
ENCODING 10030
SWIDTH 960 0
DWIDTH 24 0
BBX 24 24 0 -2
BITMAP
000000
000000
3F00FC
3F00FC
0F01F0
0F81F0
0B8170
0B8370
0FC370
0DC370
0DC770
0DE770
0CE670
0CEE70
0CEE70
0C6C70
0C7C70
0C7C70
0C3870
3F39FC
3F39FC
000000
000000
000000
ENDCHAR

STARTCHAR jisx0208_272F
ENCODING 10031
SWIDTH 960 0
DWIDTH 24 0
BBX 24 24 0 -2
BITMAP
000000
000000
1FC1FC
1FC1FC
070070
070070
070070
070070
070070
070070
07FFF0
07FFF0
070070
070070
070070
070070
070070
070070
070070
1FC1FC
1FC1FC
000000
000000
000000
ENDCHAR

STARTCHAR jisx0208_2730
ENCODING 10032
SWIDTH 960 0
DWIDTH 24 0
BBX 24 24 0 -2
BITMAP
000000
000000
007F00
01FFC0
03E3E0
0780F0
070070
0F0078
0E0038
0E0038
0E0038
0E0038
0E0038
0E0038
0E0038
0F0078
070070
0780F0
03E3E0
01FFC0
007F00
000000
000000
000000
ENDCHAR

STARTCHAR jisx0208_2731
ENCODING 10033
SWIDTH 960 0
DWIDTH 24 0
BBX 24 24 0 -2
BITMAP
000000
000000
1FFFFC
1FFFFC
070070
070070
070070
070070
070070
070070
070070
070070
070070
070070
070070
070070
070070
070070
070070
1FC1FC
1FC1FC
000000
000000
000000
ENDCHAR

STARTCHAR jisx0208_2732
ENCODING 10034
SWIDTH 960 0
DWIDTH 24 0
BBX 24 24 0 -2
BITMAP
000000
000000
0FFF80
0FFFE0
0381E0
0380F0
038070
038070
038070
038070
0380F0
0381E0
03FFE0
03FF80
038000
038000
038000
038000
038000
0FF000
0FF000
000000
000000
000000
ENDCHAR

STARTCHAR jisx0208_2733
ENCODING 10035
SWIDTH 960 0
DWIDTH 24 0
BBX 24 24 0 -2
BITMAP
000000
000000
007F60
01FFE0
03E3E0
0780F0
070070
0F0030
0E0030
0E0000
0E0000
0E0000
0E0000
0E0000
0E0030
0F0030
070070
0780F0
03E3E0
01FFC0
007F00
000000
000000
000000
ENDCHAR

STARTCHAR jisx0208_2734
ENCODING 10036
SWIDTH 960 0
DWIDTH 24 0
BBX 24 24 0 -2
BITMAP
000000
000000
07FFF0
07FFF0
0F1C78
0E1C38
0C1C18
0C1C18
001C00
001C00
001C00
001C00
001C00
001C00
001C00
001C00
001C00
001C00
001C00
007F00
007F00
000000
000000
000000
ENDCHAR

STARTCHAR jisx0208_2735
ENCODING 10037
SWIDTH 960 0
DWIDTH 24 0
BBX 24 24 0 -2
BITMAP
000000
000000
0FE3F8
0FE3F8
0380E0
01C0C0
01C1C0
01E1C0
00E380
00F380
007300
007700
007700
003E00
003E00
031C00
079C00
07B800
07F800
077000
03E000
000000
000000
000000
ENDCHAR

STARTCHAR jisx0208_2736
ENCODING 10038
SWIDTH 960 0
DWIDTH 24 0
BBX 24 24 0 -2
BITMAP
000000
000000
007F00
007F00
001C00
00FF80
03FFE0
07DDF0
071C70
0F1C78
0E1C38
0E1C38
0E1C38
0F1C78
071C70
07DDF0
03FFE0
00FF80
001C00
007F00
007F00
000000
000000
000000
ENDCHAR

STARTCHAR jisx0208_2737
ENCODING 10039
SWIDTH 960 0
DWIDTH 24 0
BBX 24 24 0 -2
BITMAP
000000
000000
1FE3F8
1FE3F8
0780E0
03C1C0
01E380
00F780
00F700
007E00
003E00
003C00
007E00
006F00
00E780
01E780
01C3C0
0381E0
0781F0
1F42FC
1FC3FC
000000
000000
000000
ENDCHAR

STARTCHAR jisx0208_2738
ENCODING 10040
SWIDTH 960 0
DWIDTH 24 0
BBX 24 24 0 -2
BITMAP
000000
000000
1FC3F8
1FC3F8
0700E0
0700E0
0700E0
0700E0
0700E0
0700E0
0700E0
0700E0
0700E0
0700E0
0700E0
0700E0
0700E0
0700E0
0700E0
1FFFF8
1FFFFC
00001C
00000C
000000
ENDCHAR

STARTCHAR jisx0208_2739
ENCODING 10041
SWIDTH 960 0
DWIDTH 24 0
BBX 24 24 0 -2
BITMAP
000000
000000
0FE3F8
0FE3F8
0380E0
0380E0
0380E0
0380E0
0380E0
0380E0
0380E0
0380E0
0381E0
03C3E0
01FFE0
00FEE0
0000E0
0000E0
0000E0
0003F8
0003F8
000000
000000
000000
ENDCHAR

STARTCHAR jisx0208_273A
ENCODING 10042
SWIDTH 960 0
DWIDTH 24 0
BBX 24 24 0 -2
BITMAP
000000
000000
3F7EFE
3F7EFE
0E1C38
0E1C38
0E1C38
0E1C38
0E1C38
0E1C38
0E1C38
0E1C38
0E1C38
0E1C38
0E1C38
0E1C38
0E1C38
0E1C38
0E1C38
3FFFFE
3FFFFE
000000
000000
000000
ENDCHAR

STARTCHAR jisx0208_273B
ENCODING 10043
SWIDTH 960 0
DWIDTH 24 0
BBX 24 24 0 -2
BITMAP
000000
000000
3F7EFE
3F7EFE
0E1C38
0E1C38
0E1C38
0E1C38
0E1C38
0E1C38
0E1C38
0E1C38
0E1C38
0E1C38
0E1C38
0E1C38
0E1C38
0E1C38
0E1C38
3FFFFE
3FFFFF
000007
000003
000000
ENDCHAR

STARTCHAR jisx0208_273C
ENCODING 10044
SWIDTH 960 0
DWIDTH 24 0
BBX 24 24 0 -2
BITMAP
000000
000000
1FF000
1FF000
3DC000
39C000
31C000
31C000
01FFC0
01FFF0
01C0F0
01C078
01C038
01C038
01C038
01C038
01C038
01C078
01C0F0
07FFF0
07FFC0
000000
000000
000000
ENDCHAR

STARTCHAR jisx0208_273D
ENCODING 10045
SWIDTH 960 0
DWIDTH 24 0
BBX 24 24 0 -2
BITMAP
000000
000000
3F80FE
3F80FE
0E0038
0E0038
0E0038
0E0038
0FFC38
0FFF38
0E0F38
0E07B8
0E03B8
0E03B8
0E03B8
0E03B8
0E03B8
0E07B8
0E0F38
3FFFFE
3FFCFE
000000
000000
000000
ENDCHAR

STARTCHAR jisx0208_273E
ENCODING 10046
SWIDTH 960 0
DWIDTH 24 0
BBX 24 24 0 -2
BITMAP
000000
000000
0FE000
0FE000
038000
038000
038000
038000
03FF80
03FFE0
0381E0
0380F0
038070
038070
038070
038070
038070
0380F0
0381E0
0FFFE0
0FFF80
000000
000000
000000
ENDCHAR

STARTCHAR jisx0208_273F
ENCODING 10047
SWIDTH 960 0
DWIDTH 24 0
BBX 24 24 0 -2
BITMAP
000000
000000
037F00
03FFC0
03E3E0
0780F0
070070
060078
060038
000038
00FFF8
00FFF8
000038
000038
060038
060078
070070
0780F0
03E3E0
01FFC0
007F00
000000
000000
000000
ENDCHAR

STARTCHAR jisx0208_2740
ENCODING 10048
SWIDTH 960 0
DWIDTH 24 0
BBX 24 24 0 -2
BITMAP
000000
000000
3F87E0
3F9FF8
0E3E7C
0E381C
0E781E
0E700E
0E700E
0E700E
0FF00E
0FF00E
0E700E
0E700E
0E700E
0E700E
0E781E
0E381C
0E3E7C
3F9FF8
3F87E0
000000
000000
000000
ENDCHAR

STARTCHAR jisx0208_2741
ENCODING 10049
SWIDTH 960 0
DWIDTH 24 0
BBX 24 24 0 -2
BITMAP
000000
000000
007FFC
01FFFC
01E070
03C070
038070
038070
038070
03C070
01E070
01FFF0
007FF0
01E070
01C070
01C070
01C070
19C070
1DC070
1FC1FC
0F81FC
000000
000000
000000
ENDCHAR

STARTCHAR jisx0208_2751
ENCODING 10065
SWIDTH 960 0
DWIDTH 24 0
BBX 24 24 0 -2
BITMAP
000000
000000
000000
000000
000000
000000
000000
00FF00
01FF80
01E3C0
01E1C0
00C7C0
003FC0
00FDC0
01F1C0
03C1C0
0381C0
0383F0
03C7B0
01FFF0
00FEE0
000000
000000
000000
ENDCHAR

STARTCHAR jisx0208_2752
ENCODING 10066
SWIDTH 960 0
DWIDTH 24 0
BBX 24 24 0 -2
BITMAP
000000
000000
007CE0
01FFE0
01EFC0
03C780
038000
03FF00
037FC0
03E3C0
03C1E0
0380E0
0380E0
0380E0
0380E0
0380E0
0380E0
03C1E0
01E3C0
01FFC0
007F00
000000
000000
000000
ENDCHAR

STARTCHAR jisx0208_2753
ENCODING 10067
SWIDTH 960 0
DWIDTH 24 0
BBX 24 24 0 -2
BITMAP
000000
000000
000000
000000
000000
000000
000000
07FF00
07FF80
01C3C0
01C1C0
01C1C0
01C3C0
01FF80
01FFC0
01C1E0
01C0E0
01C0E0
01C1E0
07FFC0
07FF80
000000
000000
000000
ENDCHAR

STARTCHAR jisx0208_2754
ENCODING 10068
SWIDTH 960 0
DWIDTH 24 0
BBX 24 24 0 -2
BITMAP
000000
000000
000000
000000
000000
000000
000000
03FFC0
03FFC0
00E1E0
00E0E0
00E060
00E000
00E000
00E000
00E000
00E000
00E000
00E000
03F800
03F800
000000
000000
000000
ENDCHAR

STARTCHAR jisx0208_2755
ENCODING 10069
SWIDTH 960 0
DWIDTH 24 0
BBX 24 24 0 -2
BITMAP
000000
000000
000000
000000
000000
000000
000000
03FFE0
03FFE0
00C380
00C380
00C380
00C380
00C380
00C380
01C380
01C380
038380
038380
077FC0
0FFFE0
0E00E0
0C0060
000000
ENDCHAR

STARTCHAR jisx0208_2756
ENCODING 10070
SWIDTH 960 0
DWIDTH 24 0
BBX 24 24 0 -2
BITMAP
000000
000000
000000
000000
000000
000000
000000
007F00
01FFC0
01E3C0
03C1E0
0380E0
0380E0
03FFE0
03FFE0
038000
0380E0
03C1E0
01E3C0
01FF80
007F00
000000
000000
000000
ENDCHAR

STARTCHAR jisx0208_2757
ENCODING 10071
SWIDTH 960 0
DWIDTH 24 0
BBX 24 24 0 -2
BITMAP
000000
000000
000000
00E380
01F7C0
01F7C0
00E380
001C00
01FFC0
01E3C0
03C1E0
0380E0
0380E0
03FFE0
03FFE0
038000
0380E0
03C1E0
01E3C0
01FF80
007F00
000000
000000
000000
ENDCHAR

STARTCHAR jisx0208_2758
ENCODING 10072
SWIDTH 960 0
DWIDTH 24 0
BBX 24 24 0 -2
BITMAP
000000
000000
000000
000000
000000
000000
000000
0FBDF8
0FBDF8
031C60
039CE0
01DDC0
01DDC0
00FF80
01FFC0
01DDC0
03DDE0
039CE0
079CF0
1F3D7C
1FBDFC
000000
000000
000000
ENDCHAR

STARTCHAR jisx0208_2759
ENCODING 10073
SWIDTH 960 0
DWIDTH 24 0
BBX 24 24 0 -2
BITMAP
000000
000000
000000
000000
000000
000000
000000
017F00
01FF80
01E3C0
01C1C0
0181C0
01BFC0
003F80
0003C0
0001C0
0181C0
01C1C0
01E3C0
00FF80
007F00
000000
000000
000000
ENDCHAR

STARTCHAR jisx0208_275A
ENCODING 10074
SWIDTH 960 0
DWIDTH 24 0
BBX 24 24 0 -2
BITMAP
000000
000000
000000
000000
000000
000000
000000
0FE1F0
0FE3F0
0387C0
0387C0
038DC0
039DC0
039DC0
03B9C0
03F9C0
0371C0
03E1C0
03E1C0
0FC7F0
0F87F0
000000
000000
000000
ENDCHAR

STARTCHAR jisx0208_275B
ENCODING 10075
SWIDTH 960 0
DWIDTH 24 0
BBX 24 24 0 -2
BITMAP
000000
000000
000000
007700
00F780
00FF80
007F00
0F80F0
0FE3F0
0387C0
0387C0
038DC0
039DC0
039DC0
03B9C0
03F9C0
0371C0
03E1C0
03E1C0
0FC7F0
0F87F0
000000
000000
000000
ENDCHAR

STARTCHAR jisx0208_275C
ENCODING 10076
SWIDTH 960 0
DWIDTH 24 0
BBX 24 24 0 -2
BITMAP
000000
000000
000000
000000
000000
000000
000000
07F7F0
07F7F0
01C1C0
01C380
01C700
01CF00
01FE00
01FF00
01C700
01C780
01C380
01C3C0
07F5F0
07F7F0
000000
000000
000000
ENDCHAR

STARTCHAR jisx0208_275D
ENCODING 10077
SWIDTH 960 0
DWIDTH 24 0
BBX 24 24 0 -2
BITMAP
000000
000000
000000
000000
000000
000000
000000
01FFE0
01FFE0
006380
006380
006380
006380
006380
006380
006380
006380
076380
0FE380
0EEFE0
07CFE0
000000
000000
000000
ENDCHAR

STARTCHAR jisx0208_275E
ENCODING 10078
SWIDTH 960 0
DWIDTH 24 0
BBX 24 24 0 -2
BITMAP
000000
000000
000000
000000
000000
000000
000000
0F81F8
0FC1F8
03C3E0
03E3E0
02E2E0
02E6E0
03F6E0
0376E0
037EE0
036EE0
033CE0
033CE0
0FDBF8
0FDBF8
000000
000000
000000
ENDCHAR

STARTCHAR jisx0208_275F
ENCODING 10079
SWIDTH 960 0
DWIDTH 24 0
BBX 24 24 0 -2
BITMAP
000000
000000
000000
000000
000000
000000
000000
0FE7F0
0FE7F0
0381C0
0381C0
0381C0
0381C0
03FFC0
03FFC0
0381C0
0381C0
0381C0
0381C0
0FE7F0
0FE7F0
000000
000000
000000
ENDCHAR

STARTCHAR jisx0208_2760
ENCODING 10080
SWIDTH 960 0
DWIDTH 24 0
BBX 24 24 0 -2
BITMAP
000000
000000
000000
000000
000000
000000
000000
007F00
01FFC0
01E3C0
03C1E0
0380E0
0380E0
0380E0
0380E0
0380E0
0380E0
03C1E0
01E3C0
01FFC0
007F00
000000
000000
000000
ENDCHAR

STARTCHAR jisx0208_2761
ENCODING 10081
SWIDTH 960 0
DWIDTH 24 0
BBX 24 24 0 -2
BITMAP
000000
000000
000000
000000
000000
000000
000000
07FFF0
07FFF0
01C1C0
01C1C0
01C1C0
01C1C0
01C1C0
01C1C0
01C1C0
01C1C0
01C1C0
01C1C0
07F7F0
07F7F0
000000
000000
000000
ENDCHAR

STARTCHAR jisx0208_2762
ENCODING 10082
SWIDTH 960 0
DWIDTH 24 0
BBX 24 24 0 -2
BITMAP
000000
000000
000000
000000
000000
000000
000000
07BF80
07FFE0
01F1E0
01E0F0
01C070
01C070
01C070
01C070
01C070
01E0F0
01F1E0
01FFE0
01BF80
01C000
07F000
07F000
000000
ENDCHAR

STARTCHAR jisx0208_2763
ENCODING 10083
SWIDTH 960 0
DWIDTH 24 0
BBX 24 24 0 -2
BITMAP
000000
000000
000000
000000
000000
000000
000000
007F80
01FFC0
01E1E0
03C0E0
0381E0
0381E0
0380C0
038000
038000
038060
03C0E0
01E1E0
01FFC0
007F80
000000
000000
000000
ENDCHAR

STARTCHAR jisx0208_2764
ENCODING 10084
SWIDTH 960 0
DWIDTH 24 0
BBX 24 24 0 -2
BITMAP
000000
000000
000000
000000
000000
000000
000000
03FFE0
03FFE0
079CF0
071C70
061C30
001C00
001C00
001C00
001C00
001C00
001C00
001C00
007F00
007F00
000000
000000
000000
ENDCHAR

STARTCHAR jisx0208_2765
ENCODING 10085
SWIDTH 960 0
DWIDTH 24 0
BBX 24 24 0 -2
BITMAP
000000
000000
000000
000000
000000
000000
000000
07F3F0
07F3F0
01C0C0
01E1C0
00E380
00F380
007700
007700
003E00
003E00
001C00
019C00
03B800
03F800
03F000
01E000
000000
ENDCHAR

STARTCHAR jisx0208_2766
ENCODING 10086
SWIDTH 960 0
DWIDTH 24 0
BBX 24 24 0 -2
BITMAP
000000
000000
007C00
007C00
001C00
001C00
001C00
03DFE0
07FBF0
0F7F78
0E3E38
0E1C38
0E1C38
0E1C38
0E1C38
0E1C38
0E3E38
0F7F78
07FFF0
03DBE0
001C00
007F00
007F00
000000
ENDCHAR

STARTCHAR jisx0208_2767
ENCODING 10087
SWIDTH 960 0
DWIDTH 24 0
BBX 24 24 0 -2
BITMAP
000000
000000
000000
000000
000000
000000
000000
0FEFE0
0FEFE0
03C380
01E700
00EE00
007E00
007C00
003E00
007E00
00EF00
01E780
03C7C0
0FABF0
0FEFF0
000000
000000
000000
ENDCHAR

STARTCHAR jisx0208_2768
ENCODING 10088
SWIDTH 960 0
DWIDTH 24 0
BBX 24 24 0 -2
BITMAP
000000
000000
000000
000000
000000
000000
000000
07F7F0
07F7F0
01C1C0
01C1C0
01C1C0
01C1C0
01C1C0
01C1C0
01C1C0
01C1C0
01C1C0
01C1C0
07FFF0
07FFF8
000038
000018
000000
ENDCHAR

STARTCHAR jisx0208_2769
ENCODING 10089
SWIDTH 960 0
DWIDTH 24 0
BBX 24 24 0 -2
BITMAP
000000
000000
000000
000000
000000
000000
000000
07F7F0
07F7F0
01C1C0
01C1C0
01C1C0
01C1C0
01C1C0
01C3C0
01E7C0
00FFC0
007DC0
0001C0
0007F0
0007F0
000000
000000
000000
ENDCHAR

STARTCHAR jisx0208_276A
ENCODING 10090
SWIDTH 960 0
DWIDTH 24 0
BBX 24 24 0 -2
BITMAP
000000
000000
000000
000000
000000
000000
000000
1FBDFC
1FBDFC
071C70
071C70
071C70
071C70
071C70
071C70
071C70
071C70
071C70
071C70
1FFFFC
1FFFFC
000000
000000
000000
ENDCHAR

STARTCHAR jisx0208_276B
ENCODING 10091
SWIDTH 960 0
DWIDTH 24 0
BBX 24 24 0 -2
BITMAP
000000
000000
000000
000000
000000
000000
000000
1FBDFC
1FBDFC
071C70
071C70
071C70
071C70
071C70
071C70
071C70
071C70
071C70
071C70
1FFFFC
1FFFFE
00000E
000006
000000
ENDCHAR

STARTCHAR jisx0208_276C
ENCODING 10092
SWIDTH 960 0
DWIDTH 24 0
BBX 24 24 0 -2
BITMAP
000000
000000
000000
000000
000000
000000
000000
03FC00
03FC00
077000
077000
067000
007FC0
007FE0
0070F0
007070
007070
007070
0070F0
01FFE0
01FFC0
000000
000000
000000
ENDCHAR

STARTCHAR jisx0208_276D
ENCODING 10093
SWIDTH 960 0
DWIDTH 24 0
BBX 24 24 0 -2
BITMAP
000000
000000
000000
000000
000000
000000
000000
1FC3F8
1FC3F8
0700E0
0700E0
0700E0
07F8E0
07FCE0
071EE0
070EE0
070EE0
070EE0
071EE0
1FFDF8
1FFBF8
000000
000000
000000
ENDCHAR

STARTCHAR jisx0208_276E
ENCODING 10094
SWIDTH 960 0
DWIDTH 24 0
BBX 24 24 0 -2
BITMAP
000000
000000
000000
000000
000000
000000
000000
03F800
03F800
00E000
00E000
00E000
00FF80
00FFC0
00E1E0
00E0E0
00E0E0
00E0E0
00E1E0
03FFC0
03FF80
000000
000000
000000
ENDCHAR

STARTCHAR jisx0208_276F
ENCODING 10095
SWIDTH 960 0
DWIDTH 24 0
BBX 24 24 0 -2
BITMAP
000000
000000
000000
000000
000000
000000
000000
00FF00
01FFC0
03C3C0
0381E0
03C0E0
03C0E0
01BFE0
007FE0
0000E0
0300E0
0381E0
03C3C0
01FFC0
00FF00
000000
000000
000000
ENDCHAR

STARTCHAR jisx0208_2770
ENCODING 10096
SWIDTH 960 0
DWIDTH 24 0
BBX 24 24 0 -2
BITMAP
000000
000000
000000
000000
000000
000000
000000
1FC7C0
1FDFF0
071EF0
073C78
073838
073838
07F838
07F838
073838
073838
073C78
071EF0
1FDFF0
1FC7C0
000000
000000
000000
ENDCHAR

STARTCHAR jisx0208_2771
ENCODING 10097
SWIDTH 960 0
DWIDTH 24 0
BBX 24 24 0 -2
BITMAP
000000
000000
000000
000000
000000
000000
000000
007FF0
00FFF0
01E1C0
01C1C0
01C1C0
01E1C0
00FFC0
007FC0
00E1C0
00E1C0
06E1C0
07E1C0
07C7F0
0387F0
000000
000000
000000
ENDCHAR

STARTCHAR jisx0208_2821
ENCODING 10273
SWIDTH 960 0
DWIDTH 24 0
BBX 24 24 0 -2
BITMAP
000000
000000
000000
000000
000000
000000
000000
000000
000000
000000
FFFFFF
FFFFFF
000000
000000
000000
000000
000000
000000
000000
000000
000000
000000
000000
000000
ENDCHAR

STARTCHAR jisx0208_2822
ENCODING 10274
SWIDTH 960 0
DWIDTH 24 0
BBX 24 24 0 -2
BITMAP
001800
001800
001800
001800
001800
001800
001800
001800
001800
001800
001800
001800
001800
001800
001800
001800
001800
001800
001800
001800
001800
001800
001800
001800
ENDCHAR

STARTCHAR jisx0208_2823
ENCODING 10275
SWIDTH 960 0
DWIDTH 24 0
BBX 24 24 0 -2
BITMAP
000000
000000
000000
000000
000000
000000
000000
000000
000000
000000
001FFF
001FFF
001800
001800
001800
001800
001800
001800
001800
001800
001800
001800
001800
001800
ENDCHAR

STARTCHAR jisx0208_2824
ENCODING 10276
SWIDTH 960 0
DWIDTH 24 0
BBX 24 24 0 -2
BITMAP
000000
000000
000000
000000
000000
000000
000000
000000
000000
000000
FFF800
FFF800
001800
001800
001800
001800
001800
001800
001800
001800
001800
001800
001800
001800
ENDCHAR

STARTCHAR jisx0208_2825
ENCODING 10277
SWIDTH 960 0
DWIDTH 24 0
BBX 24 24 0 -2
BITMAP
001800
001800
001800
001800
001800
001800
001800
001800
001800
001800
FFF800
FFF800
000000
000000
000000
000000
000000
000000
000000
000000
000000
000000
000000
000000
ENDCHAR

STARTCHAR jisx0208_2826
ENCODING 10278
SWIDTH 960 0
DWIDTH 24 0
BBX 24 24 0 -2
BITMAP
001800
001800
001800
001800
001800
001800
001800
001800
001800
001800
001FFF
001FFF
000000
000000
000000
000000
000000
000000
000000
000000
000000
000000
000000
000000
ENDCHAR

STARTCHAR jisx0208_2827
ENCODING 10279
SWIDTH 960 0
DWIDTH 24 0
BBX 24 24 0 -2
BITMAP
001800
001800
001800
001800
001800
001800
001800
001800
001800
001800
001FFF
001FFF
001800
001800
001800
001800
001800
001800
001800
001800
001800
001800
001800
001800
ENDCHAR

STARTCHAR jisx0208_2828
ENCODING 10280
SWIDTH 960 0
DWIDTH 24 0
BBX 24 24 0 -2
BITMAP
000000
000000
000000
000000
000000
000000
000000
000000
000000
000000
FFFFFF
FFFFFF
001800
001800
001800
001800
001800
001800
001800
001800
001800
001800
001800
001800
ENDCHAR

STARTCHAR jisx0208_2829
ENCODING 10281
SWIDTH 960 0
DWIDTH 24 0
BBX 24 24 0 -2
BITMAP
001800
001800
001800
001800
001800
001800
001800
001800
001800
001800
FFF800
FFF800
001800
001800
001800
001800
001800
001800
001800
001800
001800
001800
001800
001800
ENDCHAR

STARTCHAR jisx0208_282A
ENCODING 10282
SWIDTH 960 0
DWIDTH 24 0
BBX 24 24 0 -2
BITMAP
001800
001800
001800
001800
001800
001800
001800
001800
001800
001800
FFFFFF
FFFFFF
000000
000000
000000
000000
000000
000000
000000
000000
000000
000000
000000
000000
ENDCHAR

STARTCHAR jisx0208_282B
ENCODING 10283
SWIDTH 960 0
DWIDTH 24 0
BBX 24 24 0 -2
BITMAP
001800
001800
001800
001800
001800
001800
001800
001800
001800
001800
FFFFFF
FFFFFF
001800
001800
001800
001800
001800
001800
001800
001800
001800
001800
001800
001800
ENDCHAR

STARTCHAR jisx0208_282C
ENCODING 10284
SWIDTH 960 0
DWIDTH 24 0
BBX 24 24 0 -2
BITMAP
000000
000000
000000
000000
000000
000000
000000
000000
000000
000000
FFFFFF
FFFFFF
FFFFFF
000000
000000
000000
000000
000000
000000
000000
000000
000000
000000
000000
ENDCHAR

STARTCHAR jisx0208_282D
ENCODING 10285
SWIDTH 960 0
DWIDTH 24 0
BBX 24 24 0 -2
BITMAP
001C00
001C00
001C00
001C00
001C00
001C00
001C00
001C00
001C00
001C00
001C00
001C00
001C00
001C00
001C00
001C00
001C00
001C00
001C00
001C00
001C00
001C00
001C00
001C00
ENDCHAR

STARTCHAR jisx0208_282E
ENCODING 10286
SWIDTH 960 0
DWIDTH 24 0
BBX 24 24 0 -2
BITMAP
000000
000000
000000
000000
000000
000000
000000
000000
000000
000000
001FFF
001FFF
001FFF
001C00
001C00
001C00
001C00
001C00
001C00
001C00
001C00
001C00
001C00
001C00
ENDCHAR

STARTCHAR jisx0208_282F
ENCODING 10287
SWIDTH 960 0
DWIDTH 24 0
BBX 24 24 0 -2
BITMAP
000000
000000
000000
000000
000000
000000
000000
000000
000000
000000
FFFC00
FFFC00
FFFC00
001C00
001C00
001C00
001C00
001C00
001C00
001C00
001C00
001C00
001C00
001C00
ENDCHAR

STARTCHAR jisx0208_2830
ENCODING 10288
SWIDTH 960 0
DWIDTH 24 0
BBX 24 24 0 -2
BITMAP
001C00
001C00
001C00
001C00
001C00
001C00
001C00
001C00
001C00
001C00
FFFC00
FFFC00
FFFC00
000000
000000
000000
000000
000000
000000
000000
000000
000000
000000
000000
ENDCHAR

STARTCHAR jisx0208_2831
ENCODING 10289
SWIDTH 960 0
DWIDTH 24 0
BBX 24 24 0 -2
BITMAP
001C00
001C00
001C00
001C00
001C00
001C00
001C00
001C00
001C00
001C00
001FFF
001FFF
001FFF
000000
000000
000000
000000
000000
000000
000000
000000
000000
000000
000000
ENDCHAR

STARTCHAR jisx0208_2832
ENCODING 10290
SWIDTH 960 0
DWIDTH 24 0
BBX 24 24 0 -2
BITMAP
001C00
001C00
001C00
001C00
001C00
001C00
001C00
001C00
001C00
001C00
001FFF
001FFF
001FFF
001C00
001C00
001C00
001C00
001C00
001C00
001C00
001C00
001C00
001C00
001C00
ENDCHAR

STARTCHAR jisx0208_2833
ENCODING 10291
SWIDTH 960 0
DWIDTH 24 0
BBX 24 24 0 -2
BITMAP
000000
000000
000000
000000
000000
000000
000000
000000
000000
000000
FFFFFF
FFFFFF
FFFFFF
001C00
001C00
001C00
001C00
001C00
001C00
001C00
001C00
001C00
001C00
001C00
ENDCHAR

STARTCHAR jisx0208_2834
ENCODING 10292
SWIDTH 960 0
DWIDTH 24 0
BBX 24 24 0 -2
BITMAP
001C00
001C00
001C00
001C00
001C00
001C00
001C00
001C00
001C00
001C00
FFFC00
FFFC00
FFFC00
001C00
001C00
001C00
001C00
001C00
001C00
001C00
001C00
001C00
001C00
001C00
ENDCHAR

STARTCHAR jisx0208_2835
ENCODING 10293
SWIDTH 960 0
DWIDTH 24 0
BBX 24 24 0 -2
BITMAP
001C00
001C00
001C00
001C00
001C00
001C00
001C00
001C00
001C00
001C00
FFFFFF
FFFFFF
FFFFFF
000000
000000
000000
000000
000000
000000
000000
000000
000000
000000
000000
ENDCHAR

STARTCHAR jisx0208_2836
ENCODING 10294
SWIDTH 960 0
DWIDTH 24 0
BBX 24 24 0 -2
BITMAP
001C00
001C00
001C00
001C00
001C00
001C00
001C00
001C00
001C00
001C00
FFFFFF
FFFFFF
FFFFFF
001C00
001C00
001C00
001C00
001C00
001C00
001C00
001C00
001C00
001C00
001C00
ENDCHAR

STARTCHAR jisx0208_2837
ENCODING 10295
SWIDTH 960 0
DWIDTH 24 0
BBX 24 24 0 -2
BITMAP
001C00
001C00
001C00
001C00
001C00
001C00
001C00
001C00
001C00
001C00
001FFF
001FFF
001C00
001C00
001C00
001C00
001C00
001C00
001C00
001C00
001C00
001C00
001C00
001C00
ENDCHAR

STARTCHAR jisx0208_2838
ENCODING 10296
SWIDTH 960 0
DWIDTH 24 0
BBX 24 24 0 -2
BITMAP
000000
000000
000000
000000
000000
000000
000000
000000
000000
000000
FFFFFF
FFFFFF
FFFFFF
001800
001800
001800
001800
001800
001800
001800
001800
001800
001800
001800
ENDCHAR

STARTCHAR jisx0208_2839
ENCODING 10297
SWIDTH 960 0
DWIDTH 24 0
BBX 24 24 0 -2
BITMAP
001C00
001C00
001C00
001C00
001C00
001C00
001C00
001C00
001C00
001C00
FFFC00
FFFC00
001C00
001C00
001C00
001C00
001C00
001C00
001C00
001C00
001C00
001C00
001C00
001C00
ENDCHAR

STARTCHAR jisx0208_283A
ENCODING 10298
SWIDTH 960 0
DWIDTH 24 0
BBX 24 24 0 -2
BITMAP
001800
001800
001800
001800
001800
001800
001800
001800
001800
001800
FFFFFF
FFFFFF
FFFFFF
000000
000000
000000
000000
000000
000000
000000
000000
000000
000000
000000
ENDCHAR

STARTCHAR jisx0208_283B
ENCODING 10299
SWIDTH 960 0
DWIDTH 24 0
BBX 24 24 0 -2
BITMAP
001800
001800
001800
001800
001800
001800
001800
001800
001800
001800
FFFFFF
FFFFFF
FFFFFF
001800
001800
001800
001800
001800
001800
001800
001800
001800
001800
001800
ENDCHAR

STARTCHAR jisx0208_283C
ENCODING 10300
SWIDTH 960 0
DWIDTH 24 0
BBX 24 24 0 -2
BITMAP
001800
001800
001800
001800
001800
001800
001800
001800
001800
001800
001FFF
001FFF
001FFF
001800
001800
001800
001800
001800
001800
001800
001800
001800
001800
001800
ENDCHAR

STARTCHAR jisx0208_283D
ENCODING 10301
SWIDTH 960 0
DWIDTH 24 0
BBX 24 24 0 -2
BITMAP
000000
000000
000000
000000
000000
000000
000000
000000
000000
000000
FFFFFF
FFFFFF
001C00
001C00
001C00
001C00
001C00
001C00
001C00
001C00
001C00
001C00
001C00
001C00
ENDCHAR

STARTCHAR jisx0208_283E
ENCODING 10302
SWIDTH 960 0
DWIDTH 24 0
BBX 24 24 0 -2
BITMAP
001800
001800
001800
001800
001800
001800
001800
001800
001800
001800
FFF800
FFF800
FFF800
001800
001800
001800
001800
001800
001800
001800
001800
001800
001800
001800
ENDCHAR

STARTCHAR jisx0208_283F
ENCODING 10303
SWIDTH 960 0
DWIDTH 24 0
BBX 24 24 0 -2
BITMAP
001C00
001C00
001C00
001C00
001C00
001C00
001C00
001C00
001C00
001C00
FFFFFF
FFFFFF
000000
000000
000000
000000
000000
000000
000000
000000
000000
000000
000000
000000
ENDCHAR

STARTCHAR jisx0208_2840
ENCODING 10304
SWIDTH 960 0
DWIDTH 24 0
BBX 24 24 0 -2
BITMAP
001C00
001C00
001C00
001C00
001C00
001C00
001C00
001C00
001C00
001C00
FFFFFF
FFFFFF
001C00
001C00
001C00
001C00
001C00
001C00
001C00
001C00
001C00
001C00
001C00
001C00
ENDCHAR

STARTCHAR jisx0208_2D21
ENCODING 11553
SWIDTH 960 0
DWIDTH 24 0
BBX 24 24 0 -2
BITMAP
000000
01FF00
0783C0
0E00E0
1C0070
383838
70F81C
60380C
E0380E
C03806
C03806
C03806
C03806
C03806
C03806
E0380E
60380C
70381C
38FE38
1C0070
0E00E0
0783C0
01FF00
000000
ENDCHAR

STARTCHAR jisx0208_2D22
ENCODING 11554
SWIDTH 960 0
DWIDTH 24 0
BBX 24 24 0 -2
BITMAP
000000
01FF00
0783C0
0E00E0
1C0070
38FE38
71C71C
63838C
E3C38E
C3C386
C18386
C00706
C01E06
C07806
C0E006
E1C18E
63818C
73FF9C
3BFFB8
1C0070
0E00E0
0783C0
01FF00
000000
ENDCHAR

STARTCHAR jisx0208_2D23
ENCODING 11555
SWIDTH 960 0
DWIDTH 24 0
BBX 24 24 0 -2
BITMAP
000000
01FF00
0783C0
0E00E0
1C0070
38FE38
71C71C
63C38C
E3C38E
C18386
C00706
C07E06
C00706
C18386
C3C386
E3C38E
63838C
71C71C
38FE38
1C0070
0E00E0
0783C0
01FF00
000000
ENDCHAR

STARTCHAR jisx0208_2D24
ENCODING 11556
SWIDTH 960 0
DWIDTH 24 0
BBX 24 24 0 -2
BITMAP
000000
01FF00
0783C0
0E00E0
1C0070
380E38
701E1C
603E0C
E02E0E
C06E06
C0EE06
C1CE06
C18E06
C38D86
C70D86
E7FF8E
600E0C
700E1C
381F38
1C0070
0E00E0
0783C0
01FF00
000000
ENDCHAR

STARTCHAR jisx0208_2D25
ENCODING 11557
SWIDTH 960 0
DWIDTH 24 0
BBX 24 24 0 -2
BITMAP
000000
01FF00
0783C0
0E00E0
1C0370
39FF38
71FF1C
61800C
E1800E
C38006
C2FE06
C3C706
C38386
C00386
C38386
E3C38E
63838C
71871C
38FE38
1C0070
0E00E0
0783C0
01FF00
000000
ENDCHAR

STARTCHAR jisx0208_2D26
ENCODING 11558
SWIDTH 960 0
DWIDTH 24 0
BBX 24 24 0 -2
BITMAP
000000
01FF00
0783C0
0E00E0
1C0070
38FE38
71C71C
63878C
E3830E
C38006
C3FE06
C3C706
C38386
C38386
C38386
E3838E
63838C
71C71C
38FE38
1C0070
0E00E0
0783C0
01FF00
000000
ENDCHAR

STARTCHAR jisx0208_2D27
ENCODING 11559
SWIDTH 960 0
DWIDTH 24 0
BBX 24 24 0 -2
BITMAP
000000
01FF00
0783C0
0E00E0
1C0070
39FFB8
71FF9C
63870C
E3060E
C00E06
C00C06
C01C06
C01C06
C01806
C03806
E0380E
60380C
70381C
383838
1C0070
0E00E0
0783C0
01FF00
000000
ENDCHAR

STARTCHAR jisx0208_2D28
ENCODING 11560
SWIDTH 960 0
DWIDTH 24 0
BBX 24 24 0 -2
BITMAP
000000
01FF00
0783C0
0E00E0
1C0070
38FE38
71C71C
63838C
E3818E
C3C386
C1F706
C0FE06
C1DF06
C38786
C30386
E3038E
63838C
71C71C
38FE38
1C0070
0E00E0
0783C0
01FF00
000000
ENDCHAR

STARTCHAR jisx0208_2D29
ENCODING 11561
SWIDTH 960 0
DWIDTH 24 0
BBX 24 24 0 -2
BITMAP
000000
01FF00
0783C0
0E00E0
1C0070
38FE38
71C71C
63838C
E3838E
C38386
C38386
C38386
C1C786
C0FF86
C00386
E1838E
63C38C
71C71C
38FE38
1C0070
0E00E0
0783C0
01FF00
000000
ENDCHAR

STARTCHAR jisx0208_2D2A
ENCODING 11562
SWIDTH 960 0
DWIDTH 24 0
BBX 24 24 0 -2
BITMAP
000000
01FF00
0783C0
0E00E0
1C0070
370FB8
6F1CDC
67386C
E7386E
C73876
C73876
C73876
C73876
C73876
C73876
E7386E
67386C
771CDC
3F8FB8
1C0070
0E00E0
0783C0
01FF00
000000
ENDCHAR

STARTCHAR jisx0208_2D2B
ENCODING 11563
SWIDTH 960 0
DWIDTH 24 0
BBX 24 24 0 -2
BITMAP
000000
01FF00
0783C0
0E00E0
1C0070
3B83B8
77879C
63838C
E3838E
C38386
C38386
C38386
C38386
C38386
C38386
E3838E
63838C
73839C
37C7B8
1C0070
0E00E0
0783C0
01FF00
000000
ENDCHAR

STARTCHAR jisx0208_2D2C
ENCODING 11564
SWIDTH 960 0
DWIDTH 24 0
BBX 24 24 0 -2
BITMAP
000000
01FF00
0783C0
0E00E0
1C0070
370FB8
6F1DDC
6738EC
E738EE
C73CE6
C71CE6
C701C6
C70386
C70706
C70E06
E71C6E
67186C
773FDC
3FBFF8
1C0070
0E00E0
0783C0
01FF00
000000
ENDCHAR

STARTCHAR jisx0208_2D2D
ENCODING 11565
SWIDTH 960 0
DWIDTH 24 0
BBX 24 24 0 -2
BITMAP
000000
01FF00
0783C0
0E00E0
1C0070
371FB8
6F39DC
6770EC
E778EE
C730E6
C701C6
C70F86
C701C6
C700E6
C730E6
E778EE
6770EC
7739DC
3F9FB8
1C0070
0E00E0
0783C0
01FF00
000000
ENDCHAR

STARTCHAR jisx0208_2D2E
ENCODING 11566
SWIDTH 960 0
DWIDTH 24 0
BBX 24 24 0 -2
BITMAP
000000
01FF00
0783C0
0E00E0
1C0070
3701B8
6F03DC
6703CC
E707CE
C70DC6
C70DC6
C71DC6
C719C6
C739B6
C731B6
E77FEE
6701CC
7701DC
3F83F8
1C0070
0E00E0
0783C0
01FF00
000000
ENDCHAR

STARTCHAR jisx0208_2D2F
ENCODING 11567
SWIDTH 960 0
DWIDTH 24 0
BBX 24 24 0 -2
BITMAP
000000
01FF00
0783C0
0E00E0
1C0070
373FF8
6F3FDC
67300C
E7300E
C73006
C72FC6
C73CE6
C73876
C70076
C71876
E73C6E
67386C
771CDC
3F8FB8
1C0070
0E00E0
0783C0
01FF00
000000
ENDCHAR

STARTCHAR jisx0208_2D30
ENCODING 11568
SWIDTH 960 0
DWIDTH 24 0
BBX 24 24 0 -2
BITMAP
000000
01FF00
0783C0
0E00E0
1C0070
370FB8
6F1CDC
6738EC
E7386E
C73806
C73FC6
C73CE6
C73876
C73876
C73876
E7386E
67386C
771CDC
3F8FB8
1C0070
0E00E0
0783C0
01FF00
000000
ENDCHAR

STARTCHAR jisx0208_2D31
ENCODING 11569
SWIDTH 960 0
DWIDTH 24 0
BBX 24 24 0 -2
BITMAP
000000
01FF00
0783C0
0E00E0
1C0070
373FF8
6F3FDC
6730CC
E731CE
C70386
C70386
C70706
C70706
C70706
C70E06
E70E0E
670E0C
770E1C
3F8E38
1C0070
0E00E0
0783C0
01FF00
000000
ENDCHAR

STARTCHAR jisx0208_2D32
ENCODING 11570
SWIDTH 960 0
DWIDTH 24 0
BBX 24 24 0 -2
BITMAP
000000
01FF00
0783C0
0E00E0
1C0070
371FB8
6F39DC
6770EC
E7706E
C778E6
C73DC6
C71F86
C73BC6
C771E6
C760E6
E760EE
6770EC
7739DC
3F9FB8
1C0070
0E00E0
0783C0
01FF00
000000
ENDCHAR

STARTCHAR jisx0208_2D33
ENCODING 11571
SWIDTH 960 0
DWIDTH 24 0
BBX 24 24 0 -2
BITMAP
000000
01FF00
0783C0
0E00E0
1C0070
371FB8
6F39DC
6770EC
E770EE
C770E6
C770E6
C770E6
C739E6
C71FE6
C700E6
E730EE
6778EC
7771DC
3FBFB8
1C0070
0E00E0
0783C0
01FF00
000000
ENDCHAR

STARTCHAR jisx0208_2D34
ENCODING 11572
SWIDTH 960 0
DWIDTH 24 0
BBX 24 24 0 -2
BITMAP
000000
01FF00
0783C0
0E00E0
1C0070
3BC3B8
76E6DC
6E6E6C
EE6E6E
CF6E76
C76E76
C06E76
C0EE76
C1CE76
C38E76
E70E6E
662E6C
6FF6DC
3FF3B8
1C0070
0E00E0
0783C0
01FF00
000000
ENDCHAR

STARTCHAR jisx0208_2D35
ENCODING 11573
SWIDTH 960 0
DWIDTH 24 0
BBX 24 24 0 -2
BITMAP
000000
000000
000000
00FE00
003800
003800
003800
003800
003800
003800
003800
003800
003800
003800
003800
003800
003800
003800
003800
003800
00FE00
000000
000000
000000
ENDCHAR

STARTCHAR jisx0208_2D36
ENCODING 11574
SWIDTH 960 0
DWIDTH 24 0
BBX 24 24 0 -2
BITMAP
000000
000000
000000
0FFFE0
038380
038380
038380
038380
038380
038380
038380
038380
038380
038380
038380
038380
038380
038380
038380
038380
0FFFE0
000000
000000
000000
ENDCHAR

STARTCHAR jisx0208_2D37
ENCODING 11575
SWIDTH 960 0
DWIDTH 24 0
BBX 24 24 0 -2
BITMAP
000000
000000
000000
3FFFF8
0E38E0
0E38E0
0E38E0
0E38E0
0E38E0
0E38E0
0E38E0
0E38E0
0E38E0
0E38E0
0E38E0
0E38E0
0E38E0
0E38E0
0E38E0
0E38E0
3FFFF8
000000
000000
000000
ENDCHAR

STARTCHAR jisx0208_2D38
ENCODING 11576
SWIDTH 960 0
DWIDTH 24 0
BBX 24 24 0 -2
BITMAP
000000
000000
000000
7FF87E
1CE018
1CE018
1C7038
1C7030
1C7030
1C3870
1C3860
1C3860
1C1CE0
1C1CC0
1C1CC0
1C0DC0
1C0D80
1C0D80
1C0780
1C0700
7F0700
000000
000000
000000
ENDCHAR

STARTCHAR jisx0208_2D39
ENCODING 11577
SWIDTH 960 0
DWIDTH 24 0
BBX 24 24 0 -2
BITMAP
000000
000000
000000
3F81F8
0E0060
0E00E0
0700C0
0700C0
0701C0
038180
038380
01C300
01C300
01C700
00E600
00EE00
006C00
006C00
007C00
003800
003800
000000
000000
000000
ENDCHAR

STARTCHAR jisx0208_2D3A
ENCODING 11578
SWIDTH 960 0
DWIDTH 24 0
BBX 24 24 0 -2
BITMAP
000000
000000
000000
FE1FFC
380670
380670
1C0E70
1C0C70
1C0C70
0E1C70
0E1870
0E1870
073870
073070
073070
037070
036070
036070
01E070
01C070
01C1FC
000000
000000
000000
ENDCHAR

STARTCHAR jisx0208_2D3B
ENCODING 11579
SWIDTH 960 0
DWIDTH 24 0
BBX 24 24 0 -2
BITMAP
000000
000000
000000
FE7FFE
381BB8
381BB8
381BB8
1C3BB8
1C33B8
1C33B8
0E73B8
0E63B8
0E63B8
0E63B8
06E3B8
06C3B8
06C3B8
07C3B8
0383B8
0383B8
038FFE
000000
000000
000000
ENDCHAR

STARTCHAR jisx0208_2D3C
ENCODING 11580
SWIDTH 960 0
DWIDTH 24 0
BBX 24 24 0 -2
BITMAP
000000
000000
000000
F9FFFE
70DDDC
70DDDC
70DDDC
71DDDC
399DDC
399DDC
399DDC
399DDC
3B9DDC
1B1DDC
1B1DDC
1B1DDC
1F1DDC
0E1DDC
0E1DDC
0E1DDC
0E3FFE
000000
000000
000000
ENDCHAR

STARTCHAR jisx0208_2D3D
ENCODING 11581
SWIDTH 960 0
DWIDTH 24 0
BBX 24 24 0 -2
BITMAP
000000
000000
000000
7FFDFC
1C7070
1C3860
1C38E0
1C1CC0
1C1DC0
1C0D80
1C0F80
1C0700
1C0F80
1C0B80
1C1DC0
1C19C0
1C38E0
1C30E0
1C7070
1C6070
7FF9FE
000000
000000
000000
ENDCHAR

STARTCHAR jisx0208_2D3E
ENCODING 11582
SWIDTH 960 0
DWIDTH 24 0
BBX 24 24 0 -2
BITMAP
000000
000000
000000
3FC7F0
0F01C0
078380
038300
01C700
01EE00
00EC00
007C00
007800
007C00
00DC00
00CE00
01CF00
038700
030380
0703C0
0E01E0
3F87F8
000000
000000
000000
ENDCHAR

STARTCHAR jisx0208_2D40
ENCODING 11584
SWIDTH 960 0
DWIDTH 24 0
BBX 24 24 0 -2
BITMAP
000000
1F0000
03C000
01C000
1E0000
078000
038000
000000
7E0000
0F8000
03C000
01C000
000078
000F3C
000738
000738
000738
000F38
000738
000038
000070
0000E0
0003C0
000000
ENDCHAR

STARTCHAR jisx0208_2D41
ENCODING 11585
SWIDTH 960 0
DWIDTH 24 0
BBX 24 24 0 -2
BITMAP
000000
1E0000
0E0000
0E0000
6FC000
3EE000
070000
E7E000
7F7000
070000
070000
0F0000
070000
001E1C
000FFE
000E1C
000E1C
000E1C
000E1C
000E1C
000FFE
000E00
000000
000000
ENDCHAR

STARTCHAR jisx0208_2D42
ENCODING 11586
SWIDTH 960 0
DWIDTH 24 0
BBX 24 24 0 -2
BITMAP
000000
780E00
3C0780
38E380
BFF00E
F8E01C
B9C038
3B8070
380DE0
38EFC0
1FE700
000000
038000
0FC000
7E0000
0E0000
CFE000
FE6000
0E0000
0E0000
0E0000
1C0000
380000
000000
ENDCHAR

STARTCHAR jisx0208_2D43
ENCODING 11587
SWIDTH 960 0
DWIDTH 24 0
BBX 24 24 0 -2
BITMAP
000000
038000
01C000
01C000
3B8000
0F0C38
078FFC
0DC70C
1DC000
780000
E00000
000000
3C01E0
1E0EF0
1C06E0
1C06E0
1F86E6
1BC6EE
1DC6DC
1C06F8
1C0EF0
3C1C60
1C0000
000000
ENDCHAR

STARTCHAR jisx0208_2D44
ENCODING 11588
SWIDTH 960 0
DWIDTH 24 0
BBX 24 24 0 -2
BITMAP
000000
3CB018
1CB7FC
1FC000
39CC1C
71CFFE
E38E1C
03801C
070038
0E0070
3C01E0
700380
000000
1E0000
0F0000
0E0000
1C0000
1D8000
19C000
38E000
B7F000
FE7000
707000
000000
ENDCHAR

STARTCHAR jisx0208_2D45
ENCODING 11589
SWIDTH 960 0
DWIDTH 24 0
BBX 24 24 0 -2
BITMAP
000000
3C0000
1E0000
1C0000
1C0000
1F8000
1BC000
1DC000
1C0000
1C0000
3C0000
1C0000
001C00
000F00
000700
00000E
00001C
000038
000070
0019E0
001FC0
000F00
000600
000000
ENDCHAR

STARTCHAR jisx0208_2D46
ENCODING 11590
SWIDTH 960 0
DWIDTH 24 0
BBX 24 24 0 -2
BITMAP
000000
000000
C0E000
FFF000
60E000
1DCC38
0F0FFC
0E070C
0E0000
0E0000
1C0000
380000
000000
0F0000
778000
370000
370000
373000
377000
36E000
37C000
778000
E30000
000000
ENDCHAR

STARTCHAR jisx0208_2D47
ENCODING 11591
SWIDTH 960 0
DWIDTH 24 0
BBX 24 24 0 -2
BITMAP
000000
0003C0
0001DC
1C01FE
BE039C
F7071C
E38E38
61E038
00F070
0070E0
0003C0
000700
780000
3B80F0
3FC778
738370
E38370
DB7B76
0F0376
0F836E
1B837C
780778
E00E30
000000
ENDCHAR

STARTCHAR jisx0208_2D48
ENCODING 11592
SWIDTH 960 0
DWIDTH 24 0
BBX 24 24 0 -2
BITMAP
000000
03C000
79E000
39C000
39C300
39CB70
79CDB8
39C670
0380E0
0701C0
1E0780
000000
3C01E0
1E0EF0
1C06E0
1C06E0
1F86E6
1BC6EE
1DC6DC
1C06F8
1C0EF0
3C1C60
1C0000
000000
ENDCHAR

STARTCHAR jisx0208_2D49
ENCODING 11593
SWIDTH 960 0
DWIDTH 24 0
BBX 24 24 0 -2
BITMAP
000000
000000
F0E000
7FF000
70E300
70EB70
71EDB8
71C670
03C0E0
0781C0
1E0780
000000
3C0000
1E0000
1C0000
1C0000
1F8000
1BC000
1DC000
1C0000
1C0000
3C0000
1C0000
000000
ENDCHAR

STARTCHAR jisx0208_2D4A
ENCODING 11594
SWIDTH 960 0
DWIDTH 24 0
BBX 24 24 0 -2
BITMAP
000000
1E0000
0E0000
CEEF1C
FFF7FE
6EE71C
1CE71C
1CE71C
39C71C
6FC7FE
E38700
000000
000000
03C000
79E000
39C000
39CC38
39CFFC
79C70C
39C000
038000
070000
1E0000
000000
ENDCHAR

STARTCHAR jisx0208_2D4B
ENCODING 11595
SWIDTH 960 0
DWIDTH 24 0
BBX 24 24 0 -2
BITMAP
000000
3D6000
1D6000
1C0000
1C0000
1F8000
1BC000
1DC000
1C0000
1C0000
3C0000
1C0000
0001E0
0000F0
000EE0
0006E0
0006E0
0006E6
0006EE
0006DC
0006F8
000EF0
001C60
000000
ENDCHAR

STARTCHAR jisx0208_2D4C
ENCODING 11596
SWIDTH 960 0
DWIDTH 24 0
BBX 24 24 0 -2
BITMAP
000000
780E00
3C0780
38E380
BFF00E
F8E01C
B9C038
3B8070
380DE0
38EFC0
1FE700
000000
3C0000
1E0000
1C0000
1C0000
1F8000
1BC000
1DC000
1C0000
1C0000
3C0000
1C0000
000000
ENDCHAR

STARTCHAR jisx0208_2D4D
ENCODING 11597
SWIDTH 960 0
DWIDTH 24 0
BBX 24 24 0 -2
BITMAP
000000
00E000
3BB000
1BB000
1DE000
39CC38
38EFFC
70E70C
70E000
E0C000
000000
000000
7870F0
3C3878
3BB970
BFB970
FB837C
B7076E
360F6E
385E70
3B7C70
1FB8F0
000070
000000
ENDCHAR

STARTCHAR jisx0208_2D4E
ENCODING 11598
SWIDTH 960 0
DWIDTH 24 0
BBX 24 24 0 -2
BITMAP
000000
3E0078
078F3C
038738
3C0738
0F0738
070F38
000738
7E0070
0F80E0
0383C0
000000
0160F0
016778
760370
370370
3B0376
3B7B76
73836E
73837C
E38778
C00E30
000000
000000
ENDCHAR

STARTCHAR jisx0208_2D4F
ENCODING 11599
SWIDTH 960 0
DWIDTH 24 0
BBX 24 24 0 -2
BITMAP
000000
01C000
036000
1B6000
BDC000
F70C38
E38FFC
61E70C
00F000
007000
000000
000000
016000
396000
1C0000
000000
706000
38E000
01C000
038000
6F0000
7E0000
380000
000000
ENDCHAR

STARTCHAR jisx0208_2D50
ENCODING 11600
SWIDTH 960 0
DWIDTH 24 0
BBX 24 24 0 -2
BITMAP
000000
000000
000000
000000
000000
000000
000000
000000
2DC5B8
F6DEDC
76EEDC
76EEDC
76EEDC
76EEDC
76EEDC
76EEDC
76EEDC
76EEDC
76EEDC
76EEDC
F5DEBE
000000
000000
000000
ENDCHAR

STARTCHAR jisx0208_2D51
ENCODING 11601
SWIDTH 960 0
DWIDTH 24 0
BBX 24 24 0 -2
BITMAP
000000
000000
000000
000000
000000
000000
000000
000000
1F0BB8
39BDDC
73DDDC
73DDDC
719DDC
701DDC
701DDC
701DDC
701DDC
70DDDC
71DDDC
3B9DDC
1F3DBE
000000
000000
000000
ENDCHAR

STARTCHAR jisx0208_2D52
ENCODING 11602
SWIDTH 960 0
DWIDTH 24 0
BBX 24 24 0 -2
BITMAP
000000
000000
000000
300000
F00000
700000
700000
700000
73EBB8
71BDDC
739DDC
771DDC
761DDC
6F1DDC
7F1DDC
7B9DDC
739DDC
739DDC
71DDDC
71DDDC
FBFDBE
000000
000000
000000
ENDCHAR

STARTCHAR jisx0208_2D53
ENCODING 11603
SWIDTH 960 0
DWIDTH 24 0
BBX 24 24 0 -2
BITMAP
000000
000000
000000
000000
000000
000000
000000
000000
2EE1DE
F7732E
777738
777738
777738
777330
7773E0
777700
7777E0
7773F8
77773C
776E1C
F6FE1C
000738
0003F0
000000
ENDCHAR

STARTCHAR jisx0208_2D54
ENCODING 11604
SWIDTH 960 0
DWIDTH 24 0
BBX 24 24 0 -2
BITMAP
000000
000000
000000
180000
780000
380000
380000
380000
39F1DE
38E32E
39C738
3B8738
3B0738
378330
3F83E0
3DC700
39C7E0
39C3F8
38E73C
38EE1C
7DEE1C
000738
0003F0
000000
ENDCHAR

STARTCHAR jisx0208_2D55
ENCODING 11605
SWIDTH 960 0
DWIDTH 24 0
BBX 24 24 0 -2
BITMAP
000000
000000
000000
000000
000000
000000
000000
000000
0F83E0
1CC730
39EE78
39EE78
38CE30
380E00
380E00
380E00
380E00
386E18
38EE38
1DC770
0F83E0
000000
000000
000000
ENDCHAR

STARTCHAR jisx0208_2D56
ENCODING 11606
SWIDTH 960 0
DWIDTH 24 0
BBX 24 24 0 -2
BITMAP
000000
000038
00006C
00006C
000018
000030
00006C
00007C
1BE7C0
7F6EE0
1E3C70
1C3870
1C3870
1C3870
1C3870
1C3870
1C3870
1C3870
1C3870
1C3870
7EFDFC
000000
000000
000000
ENDCHAR

STARTCHAR jisx0208_2D5F
ENCODING 11615
SWIDTH 960 0
DWIDTH 24 0
BBX 24 24 0 -2
BITMAP
000000
0000EC
00E0EE
FFF0E6
0E18DC
CD9FFE
EDDCE0
6DDCE0
6DDCD8
6D9CDE
6D9ADC
6D9FDC
0E1AD8
0EDAF8
FFFAF8
0E1B70
0E1B70
0E1AF6
0E3EB6
0E35BE
0E339C
0E731E
0E660E
000000
ENDCHAR

STARTCHAR jisx0208_2D60
ENCODING 11616
SWIDTH 960 0
DWIDTH 24 0
BBX 24 24 0 -2
BITMAP
000000
0001DC
0001DC
0003B8
0003B8
000770
000660
000000
000000
000000
000000
000000
000000
000000
000000
000000
000000
000000
000000
000000
000000
000000
000000
000000
ENDCHAR

STARTCHAR jisx0208_2D61
ENCODING 11617
SWIDTH 960 0
DWIDTH 24 0
BBX 24 24 0 -2
BITMAP
000000
000000
000000
000000
000000
000000
000000
000000
000000
000000
000000
000000
000000
000000
000000
000000
000000
1DC000
1DC000
3B8000
3B8000
770000
660000
000000
ENDCHAR

STARTCHAR jisx0208_2D62
ENCODING 11618
SWIDTH 960 0
DWIDTH 24 0
BBX 24 24 0 -2
BITMAP
000000
000000
000000
F1E000
70C000
78C000
78C000
78C000
5CC7C0
5CCEE0
5CDC70
6EDC70
6EDC70
66DC70
66DC70
66DC70
63DC70
63DC70
63DC70
61CEEE
F1C7CE
000000
000000
000000
ENDCHAR

STARTCHAR jisx0208_2D63
ENCODING 11619
SWIDTH 960 0
DWIDTH 24 0
BBX 24 24 0 -2
BITMAP
000000
000000
000000
F79EF0
760EC0
760EC0
6E0DC0
6C0D80
6C0D80
7C0F80
780F00
7C0F80
7C0F80
7C0F80
6E0DC0
6E0DC0
6E0DC0
770EE0
770EE0
776EEE
F76EEE
000000
000000
000000
ENDCHAR

STARTCHAR jisx0208_2D64
ENCODING 11620
SWIDTH 960 0
DWIDTH 24 0
BBX 24 24 0 -2
BITMAP
000000
000000
000000
FFFEF8
DD7370
DD7370
DD7370
DD7370
1C7070
1C7670
1C7670
1C7E70
1C7670
1C7670
1C7070
1C7070
1C7376
1C7376
1C7376
1C7376
3EFEFE
000000
000000
000000
ENDCHAR

STARTCHAR jisx0208_2D65
ENCODING 11621
SWIDTH 960 0
DWIDTH 24 0
BBX 24 24 0 -2
BITMAP
000000
01FF00
0783C0
0E00E0
1C7870
387038
70701C
60700C
E0738E
C07FC6
C07006
C07006
C07006
C07006
C07006
E0700E
6070EC
7FFFFC
380038
1C0070
0E00E0
0783C0
01FF00
000000
ENDCHAR

STARTCHAR jisx0208_2D66
ENCODING 11622
SWIDTH 960 0
DWIDTH 24 0
BBX 24 24 0 -2
BITMAP
000000
01FF00
0783C0
0E00E0
1C3C70
383838
70381C
6C38EC
EFFFEE
CE38E6
CE38E6
CE38E6
CE38E6
CFFFE6
CE38E6
E0380E
60380C
70381C
383838
1C3870
0E00E0
0783C0
01FF00
000000
ENDCHAR

STARTCHAR jisx0208_2D67
ENCODING 11623
SWIDTH 960 0
DWIDTH 24 0
BBX 24 24 0 -2
BITMAP
000000
01FF00
0783C0
0E00E0
1C0070
3801B8
7FFFDC
60700C
E0700E
C07006
C07C06
C06F06
C07786
C07386
C07006
E0700E
60700C
70701C
387038
1C7070
0E00E0
0783C0
01FF00
000000
ENDCHAR

STARTCHAR jisx0208_2D68
ENCODING 11624
SWIDTH 960 0
DWIDTH 24 0
BBX 24 24 0 -2
BITMAP
000000
01FF00
0783C0
0E00E0
1CF070
38E038
70E0DC
5FFFEC
E1C00E
C1C006
C1C006
C38386
C3FFC6
C71C06
C71C06
EE1C0E
5C1C0C
701CDC
37FFF8
1C0070
0E00E0
0783C0
01FF00
000000
ENDCHAR

STARTCHAR jisx0208_2D69
ENCODING 11625
SWIDTH 960 0
DWIDTH 24 0
BBX 24 24 0 -2
BITMAP
000000
01FF00
0783C0
0E00E0
1C7870
387038
7070DC
5FFFEC
E0E00E
C0E006
C1C006
C1C1C6
C3FFE6
C7C1C6
CDC1C6
DDC1CE
61C1CC
71FFDC
39C1B8
1C0070
0E00E0
0783C0
01FF00
000000
ENDCHAR

STARTCHAR jisx0208_2D6A
ENCODING 11626
SWIDTH 960 0
DWIDTH 24 0
BBX 24 24 0 -2
BITMAP
000000
180030
3787B8
373F18
77371C
7736DC
66BFEC
DFB70E
E7770E
E7670E
EF876E
EFFFFE
EEEF8E
DEDFCE
D71ECE
F736EE
F736EE
67777C
76E75C
77071C
370718
370738
180030
000000
ENDCHAR

STARTCHAR jisx0208_2D6B
ENCODING 11627
SWIDTH 960 0
DWIDTH 24 0
BBX 24 24 0 -2
BITMAP
000000
180030
38C038
30F018
70E01C
70E0DC
5FFFEC
E1C00E
E1C38E
E3FFCE
E3C38E
E7C38E
EDFF8E
DDC38E
D9C38E
E1FF8E
E1C38E
61C38C
71C39C
71DF9C
31C718
380038
180030
000000
ENDCHAR

STARTCHAR jisx0208_2D6C
ENCODING 11628
SWIDTH 960 0
DWIDTH 24 0
BBX 24 24 0 -2
BITMAP
000000
180030
3B1838
33DD98
739DDC
739DDC
671C0C
E71DCE
EF1FEE
EFFC0E
DF1C0E
D71C0E
F71C0E
F70E0E
E70E0E
E70F6E
E7076E
6707EC
7703DC
7701DC
3700D8
380038
180030
000000
ENDCHAR

STARTCHAR jisx0208_2D6D
ENCODING 11629
SWIDTH 960 0
DWIDTH 24 0
BBX 24 24 0 -2
BITMAP
000000
06E0C0
D7ECF0
FEEEE0
D6E6E0
D6E0E0
D6E0D8
D7DADC
F6DACC
D6EBFE
D6E7EE
D6E58E
D7E600
D6ED9C
F6EDFE
D6DDDC
E6EDDC
0EEDDC
0EEDDC
0CEDDC
1BDDFC
19DDDC
318DDC
000000
ENDCHAR

STARTCHAR jisx0208_2D6E
ENCODING 11630
SWIDTH 960 0
DWIDTH 24 0
BBX 24 24 0 -2
BITMAP
000000
0F0000
0E0038
0E1FFC
0E01C0
0E01C0
0EE1C0
FFF1C0
0E01C0
0E01C0
0E1DB8
0F1DFC
1B1DC0
1B1DC0
1B1DC0
1B9DC0
399DC0
399DC0
39DDC0
71DDC0
60DDDC
E0FFFE
C06000
000000
ENDCHAR

STARTCHAR jisx0208_2D6F
ENCODING 11631
SWIDTH 960 0
DWIDTH 24 0
BBX 24 24 0 -2
BITMAP
000000
00E700
DFEF80
FB5EDC
DB6EFE
DB6EDC
DB6EDC
D76EDC
D67FDC
D7EEDC
FDCEDC
DD8EDC
D6DFDC
D7DDDC
D6DDDC
D6EEDC
D6EEDC
F6EEDC
D6EEDC
E6EEFC
07EEDC
06EEDC
06EE00
000000
ENDCHAR

STARTCHAR jisx0208_2D70
ENCODING 11632
SWIDTH 960 0
DWIDTH 24 0
BBX 24 24 0 -2
BITMAP
000000
000000
000000
000000
038000
07C000
038000
000000
000000
1FFFF0
1FFFF0
000000
000000
1FFFF0
1FFFF0
000000
000000
000380
0007C0
000380
000000
000000
000000
000000
ENDCHAR

STARTCHAR jisx0208_2D71
ENCODING 11633
SWIDTH 960 0
DWIDTH 24 0
BBX 24 24 0 -2
BITMAP
000000
000000
000000
000000
000000
000000
000000
1FFFF0
1FFFF0
000000
000000
1FFFF0
1FFFF0
000000
000000
1FFFF0
1FFFF0
000000
000000
000000
000000
000000
000000
000000
ENDCHAR

STARTCHAR jisx0208_2D72
ENCODING 11634
SWIDTH 960 0
DWIDTH 24 0
BBX 24 24 0 -2
BITMAP
000000
001E00
003300
006F00
006F00
007600
007000
007000
007000
003800
003800
003800
003800
003800
003800
001C00
001C00
001C00
00DC00
01DC00
01DC00
019800
00F000
000000
ENDCHAR

STARTCHAR jisx0208_2D73
ENCODING 11635
SWIDTH 960 0
DWIDTH 24 0
BBX 24 24 0 -2
BITMAP
000000
001E00
003300
006F00
006F00
007600
007000
007C00
00FE00
01B700
01BB00
01BB00
01BB00
01B700
00FE00
007C00
001C00
001C00
00DC00
01DC00
01DC00
019800
00F000
000000
ENDCHAR

STARTCHAR jisx0208_2D74
ENCODING 11636
SWIDTH 960 0
DWIDTH 24 0
BBX 24 24 0 -2
BITMAP
000000
000000
000000
1FFF80
1E0380
0F01C0
0780C0
03C0C0
01E000
00F000
007800
003C00
003800
007000
00E000
01C060
038060
0700E0
0E01C0
1FFFC0
1FFFC0
000000
000000
000000
ENDCHAR

STARTCHAR jisx0208_2D75
ENCODING 11637
SWIDTH 960 0
DWIDTH 24 0
BBX 24 24 0 -2
BITMAP
000000
000FFE
000C00
000C00
001C00
001800
001800
003800
003000
003000
007000
006000
006000
18E000
3CC000
7CC000
EDC000
CD8000
078000
078000
030000
030000
000000
000000
ENDCHAR

STARTCHAR jisx0208_2D76
ENCODING 11638
SWIDTH 960 0
DWIDTH 24 0
BBX 24 24 0 -2
BITMAP
000000
000000
000000
000000
003800
003800
003800
003800
003800
003800
003800
003800
003800
003800
003800
003800
003800
003800
1FFFF0
1FFFF0
000000
000000
000000
000000
ENDCHAR

STARTCHAR jisx0208_2D77
ENCODING 11639
SWIDTH 960 0
DWIDTH 24 0
BBX 24 24 0 -2
BITMAP
000000
000000
000000
000000
000060
0000E0
0001E0
0003C0
000780
000F00
001E00
003C00
007800
00F000
01E000
03C000
078000
0F0000
1FFFE0
1FFFE0
000000
000000
000000
000000
ENDCHAR

STARTCHAR jisx0208_2D78
ENCODING 11640
SWIDTH 960 0
DWIDTH 24 0
BBX 24 24 0 -2
BITMAP
000000
000000
000000
000000
1C0000
1C0000
1C0000
1C0000
1C0000
1C0000
1C0000
1C0000
1C0000
1C0000
1C0000
1C0000
1C0000
1C0000
1FFFF0
1FFFF0
000000
000000
000000
000000
ENDCHAR

STARTCHAR jisx0208_2D79
ENCODING 11641
SWIDTH 960 0
DWIDTH 24 0
BBX 24 24 0 -2
BITMAP
000000
000000
000000
000000
000030
000070
0000F0
0001F0
0003F0
000770
000F70
001E70
003C70
007870
00F070
01E070
03C070
078070
0FFFF0
1FFFF0
000000
000000
000000
000000
ENDCHAR

STARTCHAR jisx0208_2D7A
ENCODING 11642
SWIDTH 960 0
DWIDTH 24 0
BBX 24 24 0 -2
BITMAP
000000
000000
000000
000000
000000
0E00E0
1F01F0
0E00E0
000000
000000
000000
000000
000000
000000
000000
000000
003800
007C00
003800
000000
000000
000000
000000
000000
ENDCHAR

STARTCHAR jisx0208_2D7B
ENCODING 11643
SWIDTH 960 0
DWIDTH 24 0
BBX 24 24 0 -2
BITMAP
000000
000000
000000
000000
00FE00
03FF80
0783C0
0701C0
0E00E0
0E00E0
0E00E0
0E00E0
0E00E0
0E00E0
0E00E0
0E00E0
0E00E0
0E00E0
0E00E0
0E00E0
000000
000000
000000
000000
ENDCHAR

STARTCHAR jisx0208_2D7C
ENCODING 11644
SWIDTH 960 0
DWIDTH 24 0
BBX 24 24 0 -2
BITMAP
000000
000000
000000
000000
0E00E0
0E00E0
0E00E0
0E00E0
0E00E0
0E00E0
0E00E0
0E00E0
0E00E0
0E00E0
0E00E0
0E00E0
0701C0
0783C0
03FF80
00FE00
000000
000000
000000
000000
ENDCHAR

STARTCHAR jisx0208_3021
ENCODING 12321
SWIDTH 960 0
DWIDTH 24 0
BBX 24 24 0 -2
BITMAP
00001C
7FFFFE
7FFFFE
00E700
00E700
00E700
18E738
1FFFFC
1FFFFC
1CE738
1CE738
1CE738
1CE738
1FFFF8
1FFFF8
1CE738
00E700
00E700
00E700
00E70E
7FFFFF
7FFFFF
000000
000000
ENDCHAR

STARTCHAR jisx0208_3022
ENCODING 12322
SWIDTH 960 0
DWIDTH 24 0
BBX 24 24 0 -2
BITMAP
00001C
00FFFE
67FFFE
7F06C0
7F86C0
7706C0
7766DC
777FFE
777FFE
7776DC
7776DC
7776DC
7776DC
777FFC
7F7FFC
7F76DC
7706C0
7006C0
0006C0
0006CE
01FFFF
01FFFF
000000
000000
ENDCHAR

STARTCHAR jisx0208_3023
ENCODING 12323
SWIDTH 960 0
DWIDTH 24 0
BBX 24 24 0 -2
BITMAP
1801E0
1E01E0
1E01C0
1C01CC
1DDFFE
7FFFFE
7FE1C0
1DC1C0
3DC1CE
39FFFF
39BFFF
39C000
7B81E0
7381C0
7B81CC
7F3FFE
77BFFE
0FC1C0
0DC1C0
1DC1C0
3801CE
70FFFF
60FFFF
000000
ENDCHAR

STARTCHAR jisx0208_3024
ENCODING 12324
SWIDTH 960 0
DWIDTH 24 0
BBX 24 24 0 -2
BITMAP
63800E
7FBFFF
7FBFFF
73801C
73801C
77339C
773FDC
7E3FDC
6C3B9C
773B9C
773B9C
73BB9C
73BB9C
73BF9C
73BF9C
7FBB9C
6FB81C
77001C
70001C
70001C
7000FC
7000FC
700038
000000
ENDCHAR

STARTCHAR jisx0208_3025
ENCODING 12325
SWIDTH 960 0
DWIDTH 24 0
BBX 24 24 0 -2
BITMAP
001E00
001E00
001C0E
7FFFFF
7FFFFF
000000
07FFF8
07FFF8
070070
070070
070070
07FFF0
07FFF0
073C70
00EE38
03E6F8
0FC3E0
7FC380
79CDE0
01FEF8
1FF87F
1FC03F
0E000E
000000
ENDCHAR

STARTCHAR jisx0208_3026
ENCODING 12326
SWIDTH 960 0
DWIDTH 24 0
BBX 24 24 0 -2
BITMAP
000070
001FF8
1FFFF8
1FFCC0
0330E0
19DDCE
1FFFBF
3FFFFF
78180E
7DEDBC
35CDF0
0FF3DC
1EFF9C
1C6040
00FFE0
01FFE0
03C1C0
0F7780
3E3F00
385EC0
03FBFE
1FC0FE
1E001C
000000
ENDCHAR

STARTCHAR jisx0208_3027
ENCODING 12327
SWIDTH 960 0
DWIDTH 24 0
BBX 24 24 0 -2
BITMAP
0F0600
0F0780
0E07B0
0E0F38
0F8E5C
7DFDFE
7F7FCE
0E3C0E
0E1A00
0E1E1C
0FBDFE
7FFFFE
7E7380
3EC38E
2E3FFF
0EFFFF
0E06C0
0E07E0
0E0F70
0E1E7C
7E3C3F
7EF81F
1CE006
000000
ENDCHAR

STARTCHAR jisx0208_3028
ENCODING 12328
SWIDTH 960 0
DWIDTH 24 0
BBX 24 24 0 -2
BITMAP
0C0180
0F01E0
0F01E0
0E03C0
0FC370
7DE7B8
7FEF3C
1DDE1F
1DFC2F
1DB3F6
3DCFF8
39C000
3B8000
3B981C
739FFE
7F1FFE
6F9C1C
77DC1C
0DDC1C
1DDC1C
381FFC
701FFC
601C1C
000000
ENDCHAR

STARTCHAR jisx0208_3029
ENCODING 12329
SWIDTH 960 0
DWIDTH 24 0
BBX 24 24 0 -2
BITMAP
000C00
300F00
3C0F70
1E1EF8
0E3FF8
0E7C70
00F7E0
00C3D0
001EFF
0EFD3F
7FF38E
7F0FF0
0E3FF8
0E0380
0E3FF8
0E0384
0EFFFE
0EFFFE
1F0380
7BC380
79FC7F
30FFFF
303FFE
000000
ENDCHAR

STARTCHAR jisx0208_302A
ENCODING 12330
SWIDTH 960 0
DWIDTH 24 0
BBX 24 24 0 -2
BITMAP
00F3C0
00F3CE
7FEFBF
7FFFFF
00E380
00E3E0
001470
3FFEFC
3FFBCE
0071BE
0FE3F0
07DEE8
037F7F
1F1C3F
7C1C4E
73FFF0
0FFFF8
003600
00F3C0
01E1F0
07C0FE
3F007E
3C001C
000000
ENDCHAR

STARTCHAR jisx0208_302B
ENCODING 12331
SWIDTH 960 0
DWIDTH 24 0
BBX 24 24 0 -2
BITMAP
00F3C0
00F3CE
7FEFBF
7FFFFF
00E380
00E38E
7F1C7F
7FFFFF
00E700
18E71C
1FFFFE
1FFFFE
1CE71C
1CE75C
1DC7FC
1DC7FC
1F83DC
1B001C
1C001C
1FFFFC
1FFFFC
1C001C
1C001C
000000
ENDCHAR

STARTCHAR jisx0208_302C
ENCODING 12332
SWIDTH 960 0
DWIDTH 24 0
BBX 24 24 0 -2
BITMAP
038F00
0FCFE0
7FDEF0
7E1FF0
0E39CC
0F77BE
7DFFFE
7FBB9C
0E3FFC
1F3B9C
1FBFFC
1DC380
3DFFFE
3F7FFE
2E739C
6E7FFC
6E739C
0E7FFC
0E7FFE
0E7386
0E73FF
0E03FF
0E01FE
000000
ENDCHAR

STARTCHAR jisx0208_302D
ENCODING 12333
SWIDTH 960 0
DWIDTH 24 0
BBX 24 24 0 -2
BITMAP
00001C
3FFFFE
3FFFFE
007700
0FFFFC
0FFFFC
0E7738
0E7738
0FFFF8
0FFFF8
0E7738
007706
7FFFFF
7FFFFF
000000
01FE00
19EF0C
19C76E
39C767
79C077
71FFF7
71FFF3
00FFE0
000000
ENDCHAR

STARTCHAR jisx0208_302E
ENCODING 12334
SWIDTH 960 0
DWIDTH 24 0
BBX 24 24 0 -2
BITMAP
0F300E
0F3FFF
0E3FFF
0E380E
0FBFFE
7DBFFE
7FB80E
0E3800
0E3FFF
0FBFFF
0DB9C0
7F3BBC
7E3F7E
3E3FEE
2E371E
0E70F0
0E70EC
0E6FFE
0EEFFE
0EC0E0
7FC0E6
7DBFFF
1C3FFF
000000
ENDCHAR

STARTCHAR jisx0208_302F
ENCODING 12335
SWIDTH 960 0
DWIDTH 24 0
BBX 24 24 0 -2
BITMAP
30600E
3C7FFF
1E7FFF
0E700E
0E7FFE
607FFE
79700E
3D7000
1F7FFF
1B7FFF
077380
06773C
0E7EFE
0C7FEE
1C6E0E
7CE1E0
78E1DC
38DFFE
1DDFFE
1D81C0
1F81CE
1B7FFF
1C7FFF
000000
ENDCHAR

STARTCHAR jisx0208_3030
ENCODING 12336
SWIDTH 960 0
DWIDTH 24 0
BBX 24 24 0 -2
BITMAP
0F0000
0F061C
0E07FE
0E07FE
0EE71C
7FF71C
7FF71C
0EE71C
0EE7FC
0EE7FC
0EE71C
0EE71C
0EE71C
0EE71C
0EE7FC
1EE7FC
1CE71C
1CE702
1CE006
38E007
38FFFF
70FFFF
607FFE
000000
ENDCHAR

STARTCHAR jisx0208_3031
ENCODING 12337
SWIDTH 960 0
DWIDTH 24 0
BBX 24 24 0 -2
BITMAP
01E1E0
01E1EE
7FDFDF
7FFFFF
01B1C0
027E20
03FFE0
0070EE
7FFFFF
7FFFFF
000000
03FFF0
038070
03FFF0
078E00
067FF8
07FFF8
070E06
7FFFFF
7FFFFF
000E00
000E00
000E00
000000
ENDCHAR

STARTCHAR jisx0208_3032
ENCODING 12338
SWIDTH 960 0
DWIDTH 24 0
BBX 24 24 0 -2
BITMAP
00F3C0
00F3C0
00E38E
7FFFFF
7FFFFF
00E380
00E39C
3F1C7E
3FFFFE
000000
0FFFFC
0FFFFC
0E0038
0E0038
0FFFF8
0FFFF8
0E0038
0E0000
1C0000
1C0000
380000
700000
600000
000000
ENDCHAR

STARTCHAR jisx0208_3033
ENCODING 12339
SWIDTH 960 0
DWIDTH 24 0
BBX 24 24 0 -2
BITMAP
0E0180
0F81E0
0DC1F8
1FC39C
1D836E
3B5FFE
76FFCE
5FEDC0
16D3BF
16BFFF
1FC730
1FCEDC
16DDFF
16FBEF
1FB796
1FCE78
18C1FE
2327C7
2B771F
6FF07C
6DB3F0
6D8FC0
6C1E00
000000
ENDCHAR

STARTCHAR jisx0208_3034
ENCODING 12340
SWIDTH 960 0
DWIDTH 24 0
BBX 24 24 0 -2
BITMAP
0F01E0
0F01E0
0E01C0
0E01CC
0FBFFE
7DFFFE
7FC030
0E0E3C
1F0738
1F8770
1DC366
3DFCFF
3FBFFF
2E01C0
6E01C0
6E01CC
0E3FFE
0E3FFE
0E01C0
0E01C0
0E01C0
0E01C0
0E01C0
000000
ENDCHAR

STARTCHAR jisx0208_3035
ENCODING 12341
SWIDTH 960 0
DWIDTH 24 0
BBX 24 24 0 -2
BITMAP
18000E
1FFFFF
1FFFFF
1C0000
1C0780
1C0780
1C0700
1C0700
1C0700
1C071C
1DFFFE
1DFFFE
1C0700
1C0700
1C0700
1C0700
3C0700
380700
380700
30070E
77FFFF
67FFFF
000000
000000
ENDCHAR

STARTCHAR jisx0208_3036
ENCODING 12342
SWIDTH 960 0
DWIDTH 24 0
BBX 24 24 0 -2
BITMAP
0780C0
0780F0
0761F0
7FF1E0
7FF3B8
0707BC
3EF71F
3FFE6F
38EC76
3FDB70
3FE770
38E370
3FEC70
3FEF76
36E777
07107F
7FF9FC
7FFFF0
070F70
070070
070070
070070
070070
000000
ENDCHAR

STARTCHAR jisx0208_3037
ENCODING 12343
SWIDTH 960 0
DWIDTH 24 0
BBX 24 24 0 -2
BITMAP
0F0000
0F0070
0EFFF8
0EFFF8
0F1C70
7DDC70
7FDCF0
0E1CEC
0E1CDE
0FDEFE
0DDEDC
7F3E1C
7E371C
3E3B3C
2E3BB8
0E39B8
0E71F8
0E70F0
0E61F8
0EE3BE
7ECF9F
7FFE0F
1DB806
000000
ENDCHAR

STARTCHAR jisx0208_3038
ENCODING 12344
SWIDTH 960 0
DWIDTH 24 0
BBX 24 24 0 -2
BITMAP
001E00
001E00
181C0E
1FFFFF
3FFFFF
78000E
77800C
378610
0777FE
0FF7FE
0FF71C
1C771C
1C771C
38F71C
6EE7FC
67E6FC
03C738
01C706
078706
0F0707
1E07FF
7C07FF
7003FE
000000
ENDCHAR

STARTCHAR jisx0208_3039
ENCODING 12345
SWIDTH 960 0
DWIDTH 24 0
BBX 24 24 0 -2
BITMAP
0C0000
0F0C38
0F0FFC
0E0FFC
0EEE38
7FEE38
7FEE38
1CEE38
1CEFF8
1CEFF8
3CEE38
39EE38
39CE38
39CE38
39CFF8
7FCFF8
6F8E38
73CE38
0FEE38
1EEE38
3C6E3E
789FF7
60FFFF
000000
ENDCHAR

STARTCHAR jisx0208_303A
ENCODING 12346
SWIDTH 960 0
DWIDTH 24 0
BBX 24 24 0 -2
BITMAP
0780F0
0780F0
0700E0
0700E0
3776E6
3FF7FF
3FF7FF
3B7700
3B7700
3B7700
3B7700
3B7700
3FF700
3FF700
377700
370700
076700
077700
073700
07F700
7FB7FF
7E37FF
3803FF
000000
ENDCHAR

STARTCHAR jisx0208_303B
ENCODING 12347
SWIDTH 960 0
DWIDTH 24 0
BBX 24 24 0 -2
BITMAP
0300C0
03C0F0
07C0F0
07A0E0
0EF1D8
1F71DC
3BF38E
7F8F7F
5FFFF7
1C7787
1FF600
1FF00E
1C77FF
1FF7FF
1FF70E
1C770E
1D870E
1CE70E
1FF70E
7B770E
7E77FE
3807FE
30070E
000000
ENDCHAR

STARTCHAR jisx0208_303C
ENCODING 12348
SWIDTH 960 0
DWIDTH 24 0
BBX 24 24 0 -2
BITMAP
060600
070780
0F0780
6ECF0E
7CEEFF
39FFFF
1FDC0E
1BB8EE
072FEE
0DCFEE
7EEEEE
7FEFEE
36EFEE
370EEE
078EEE
37CFEE
36EFEE
36EEEE
37EE0E
77601E
6700FC
0700FC
070038
000000
ENDCHAR

STARTCHAR jisx0208_303D
ENCODING 12349
SWIDTH 960 0
DWIDTH 24 0
BBX 24 24 0 -2
BITMAP
0601E0
0701E0
0F01CC
6EDFFE
7CFFFE
39E1C0
1FDFFF
1BBFFF
070770
0DCE77
7EEF7F
7FFBBE
36DBC0
3703BE
07C7FE
36E71C
37EFB8
377DF8
3718F0
7733E8
670FBF
077E1F
077806
000000
ENDCHAR

STARTCHAR jisx0208_303E
ENCODING 12350
SWIDTH 960 0
DWIDTH 24 0
BBX 24 24 0 -2
BITMAP
0E00F0
0F80F0
0DC0E0
1FC0E0
1980EE
3B60FF
37F0FF
7FF0E0
5B60E0
1B60E0
1FECEE
1FEFFF
1B6FFF
1B6E0E
1FEE0E
1FEE0E
186E0E
230E0E
2B6E0E
2FEFFE
7DAFFE
758E0E
700E0E
000000
ENDCHAR

STARTCHAR jisx0208_303F
ENCODING 12351
SWIDTH 960 0
DWIDTH 24 0
BBX 24 24 0 -2
BITMAP
000770
000778
000738
000706
7FFFFF
7FFFFF
000700
187718
1FFF9E
1FFB9E
1C739C
1C739C
1C73B8
1FF1B8
1FF1F0
1C70F3
1C0CE3
01FDF7
7FF3B6
7F87BE
3C1F1F
307C0F
007007
000000
ENDCHAR

STARTCHAR jisx0208_3040
ENCODING 12352
SWIDTH 960 0
DWIDTH 24 0
BBX 24 24 0 -2
BITMAP
00001C
3FFFFE
3FFFFE
007700
0FFFFC
0FFFFC
0E7738
0E7738
0FFFF8
0FFFF8
0E0038
03DEC0
01DCF0
01DDCE
7E3FBF
7FFFFF
007B00
03DDE0
07DCF8
1F1C7F
7C1C1F
701C0E
001C00
000000
ENDCHAR

STARTCHAR jisx0208_3041
ENCODING 12353
SWIDTH 960 0
DWIDTH 24 0
BBX 24 24 0 -2
BITMAP
0F0180
0F01E0
0E03E0
0FC3C0
7DE770
7FEF38
01CE3E
039C1F
07B86F
0777F6
0ECFF8
1FE000
3D981C
6F5FFE
6DDFFE
0EDC1C
0EDC1C
0E1C1C
0E1C1C
0E1C1C
0E1FFC
0E1FFC
0E1C1C
000000
ENDCHAR

STARTCHAR jisx0208_3042
ENCODING 12354
SWIDTH 960 0
DWIDTH 24 0
BBX 24 24 0 -2
BITMAP
001E00
001E00
181C0E
1FFFFF
3FFFFF
78000E
783C1C
703C18
007800
00700E
7FFFFF
7FFFFF
00E0E0
01C1E0
03C1C0
07A3C0
07FB80
073F00
000FE0
007DF8
03F07C
1FC03C
1E001C
000000
ENDCHAR

STARTCHAR jisx0208_3043
ENCODING 12355
SWIDTH 960 0
DWIDTH 24 0
BBX 24 24 0 -2
BITMAP
000F00
000F00
180E0E
1FFFFF
1FFFFF
1C1800
1C1E1C
1FFDFE
1FFFFE
1C38C0
1CEF7C
1DFEBF
1FFFEF
1BCE76
1DFFF0
1DFFF0
3DCE70
39FFF6
39FFF6
31CE77
71CF8F
600FFF
0007FE
000000
ENDCHAR

STARTCHAR jisx0208_3044
ENCODING 12356
SWIDTH 960 0
DWIDTH 24 0
BBX 24 24 0 -2
BITMAP
0F01E0
0F01E0
0E01C0
0E19CE
0F9FFF
7DBFFF
7FF80E
0E7BCC
0E33C0
0EC386
0FFFFF
7F7FFF
7E0E1C
3E0E1C
2E1E3C
0E1C38
0E3F78
0E37F0
0E38E0
0E03FC
7E0FBE
7E7E1E
1C780E
000000
ENDCHAR

STARTCHAR jisx0208_3045
ENCODING 12357
SWIDTH 960 0
DWIDTH 24 0
BBX 24 24 0 -2
BITMAP
0001E0
0001E0
6381CC
7FBFFE
7FBFFE
739860
738E78
738E70
738EE6
7FF1DF
7F7FFF
738000
739FFC
739FFC
739C38
739C38
7F9FF8
7F9FF8
739C38
701C38
001FF8
001FF8
001C38
000000
ENDCHAR

STARTCHAR jisx0208_3046
ENCODING 12358
SWIDTH 960 0
DWIDTH 24 0
BBX 24 24 0 -2
BITMAP
001E00
0C1E1C
0FFDFE
1FFFFE
3C601C
38F81A
47E7EF
7FFFFF
01C0E0
07BFC0
07FF80
0037F0
0FE8F0
0F1E3E
70FDCF
7FFFFF
007B00
01DDE0
07DCF8
1F1C7F
7C1C3F
701C0E
001C00
000000
ENDCHAR

STARTCHAR jisx0208_3047
ENCODING 12359
SWIDTH 960 0
DWIDTH 24 0
BBX 24 24 0 -2
BITMAP
30E30E
3FF3FF
3FF3FF
38E38E
3FE3FE
3FE3FE
38E38E
3FE3FE
3FFFFE
381C0E
3BFFEE
3BFFEE
38670E
3FFEEE
37FFEE
38000E
38FF8E
38E38E
38FF8E
38E38E
38FFFE
38E37E
38001C
000000
ENDCHAR

STARTCHAR jisx0208_3048
ENCODING 12360
SWIDTH 960 0
DWIDTH 24 0
BBX 24 24 0 -2
BITMAP
1DE0F0
1DE0F0
1DD6EE
7FB7FF
7FFFFF
1DCE0E
1FDDEC
1FCDE0
2721C0
3FF3CE
3FFFBF
3B5FFF
3B639C
3FE79C
3FE71C
376738
070FB8
7FEDF0
7FEE78
0701FC
0707DE
073F0E
073C0E
000000
ENDCHAR

STARTCHAR jisx0208_3049
ENCODING 12361
SWIDTH 960 0
DWIDTH 24 0
BBX 24 24 0 -2
BITMAP
001E00
001E00
001C00
001C0E
7FFFFF
7FFFFF
007E00
01DB80
03DDE0
079CF8
1F1C7F
7C1C3F
721C4E
07E3F0
07FFF8
070070
070070
070070
070070
070070
07FFF0
07FFF0
070070
000000
ENDCHAR

STARTCHAR jisx0208_304A
ENCODING 12362
SWIDTH 960 0
DWIDTH 24 0
BBX 24 24 0 -2
BITMAP
0F003C
0F003C
0E3038
0E3838
0E1C38
0E1E38
0E0E38
0E0E38
0E0638
0E0038
0E0038
0E0038
0E0078
0E1870
0E7870
0FF0F0
0DC0E0
7F81FC
7E03DE
380F8F
303F07
01FC07
01E003
000000
ENDCHAR

STARTCHAR jisx0208_304B
ENCODING 12363
SWIDTH 960 0
DWIDTH 24 0
BBX 24 24 0 -2
BITMAP
060000
078038
07FFFC
077FFC
0F0738
0E0738
0F073E
1FFFF7
1EFFFF
3E0738
6E0738
6E0738
0E7FF8
0E7FF8
0E0738
0E0738
0E0F00
0E0E00
0E1E00
0E3C00
0E7800
0FF000
0DC000
000000
ENDCHAR

STARTCHAR jisx0208_304C
ENCODING 12364
SWIDTH 960 0
DWIDTH 24 0
BBX 24 24 0 -2
BITMAP
0603C0
0783C0
078380
070380
0F039C
0EFFFE
0FFFFE
1F0000
1E603C
3E703C
6E3038
6E3838
0E3838
0E1C70
0E1C70
0E1C70
0E1C60
0E1C60
0E18E0
0E00CE
0FFFFF
0DFFFF
0E0000
000000
ENDCHAR

STARTCHAR jisx0208_304D
ENCODING 12365
SWIDTH 960 0
DWIDTH 24 0
BBX 24 24 0 -2
BITMAP
0603C0
0783C0
078380
07038E
0FFFFF
0EFFFF
0F0780
1F0D80
1E1D80
3E1DCC
6E3CDE
6E78FE
0EF8B8
0FB8E0
0DB870
0E3870
0E3878
0E3838
0E3BFC
0EFFDE
0EFE1F
0E700F
0E0006
000000
ENDCHAR

STARTCHAR jisx0208_304E
ENCODING 12366
SWIDTH 960 0
DWIDTH 24 0
BBX 24 24 0 -2
BITMAP
060600
078780
0787B8
077F7C
0F7FFC
0E0E3A
0EFFF7
1EFFFF
1E0000
3E7FFC
6E7FFC
6E7038
0E7FF8
0E7FF8
0E71C4
0E6FFE
0E7FFE
0E71C0
0FFFFF
0DFFFF
0E01C0
0E01C0
0E01C0
000000
ENDCHAR

STARTCHAR jisx0208_304F
ENCODING 12367
SWIDTH 960 0
DWIDTH 24 0
BBX 24 24 0 -2
BITMAP
30000E
3FFFFF
3FFFFF
38000E
38F3CE
38E38E
38E3EE
3FFF6E
37FFEE
38E38E
38E38E
38E3AE
3FFFFE
37FFFE
38E38E
39E38E
39C38E
3BC38E
3F838E
37038E
38FC7E
3FFFFE
38000E
000000
ENDCHAR

STARTCHAR jisx0208_3050
ENCODING 12368
SWIDTH 960 0
DWIDTH 24 0
BBX 24 24 0 -2
BITMAP
001E00
001E00
001C0E
7FFFFF
7FFFFF
001C00
0FFFFC
0FFFFC
001C38
0FFFF8
0FFFF8
0E1C38
0E1C06
1FFFFF
1FFFFF
1C360E
1C737E
00F3FE
01E1DC
03C0E0
0F807F
7E003F
78000E
000000
ENDCHAR

STARTCHAR jisx0208_3051
ENCODING 12369
SWIDTH 960 0
DWIDTH 24 0
BBX 24 24 0 -2
BITMAP
0000F0
000FF8
0FFFF8
0FFC00
001C0E
7FFFFF
7FFFFF
007B00
03DDF8
0FDCFF
7F3C3F
78600E
00F800
7FE7FF
7FFFFF
01C0E0
0381E0
07F9C0
07FFC0
070FB0
007DFC
1FF87C
1FC01C
000000
ENDCHAR

STARTCHAR jisx0208_3052
ENCODING 12370
SWIDTH 960 0
DWIDTH 24 0
BBX 24 24 0 -2
BITMAP
0003B8
0003BC
00039C
18039A
1FFFE7
1FFFFF
1C0380
1FFB98
1FFB9E
1DC39E
1DDDDC
1FFDDC
1FFDF8
1DDDB8
1B9CF8
1BB8F3
1FB8F3
17F077
3F7CF6
38DDBE
33DF9F
7F830F
6E0607
000000
ENDCHAR

STARTCHAR jisx0208_3053
ENCODING 12371
SWIDTH 960 0
DWIDTH 24 0
BBX 24 24 0 -2
BITMAP
180E1E
1FFF1E
1FFF1C
1C0E1C
1C0E1C
1FFE1C
1FFE1F
1C0FFB
1C13FF
1FFC1C
1BFC1C
1C019C
1FFFDC
1FFEDC
1C70DC
1F7CDC
3B6E1C
3B771C
3F771C
37771C
7EF0FC
6DF0FC
00E038
000000
ENDCHAR

STARTCHAR jisx0208_3054
ENCODING 12372
SWIDTH 960 0
DWIDTH 24 0
BBX 24 24 0 -2
BITMAP
0F0C30
0F0F3C
0E0F3C
0F0E78
0F9E76
2DDDEF
2DFFFF
2FBCE0
6E7CE0
6E5CEC
6EDFFE
0EDFFE
0E1CE0
0E1CE0
0E1CEC
0E1FFE
0E1FFE
0E1CE0
0E1CE0
0E1CEE
0E1FFF
0E1FFF
0E1C00
000000
ENDCHAR

STARTCHAR jisx0208_3055
ENCODING 12373
SWIDTH 960 0
DWIDTH 24 0
BBX 24 24 0 -2
BITMAP
001E00
001E38
1FFDFC
1FFFFC
018180
00E3CE
7FFF3F
7FFFFF
000000
07FFF8
07FFF8
070070
07FFF0
07FFF0
070070
07FFF0
07FFF0
1F0C70
19E70C
39C76E
79F8F7
71FFF7
70FFE7
000000
ENDCHAR

STARTCHAR jisx0208_3056
ENCODING 12374
SWIDTH 960 0
DWIDTH 24 0
BBX 24 24 0 -2
BITMAP
180E1E
1FFF1E
1FFF1C
1C0E1F
1FFFFB
1FFDFF
1C0E1C
1DF9DC
1E06DC
37FEDC
3860DC
335C1C
776EFC
6EEEFC
0DF038
00DE00
012F0C
19E76E
19C767
39C077
79FFF7
71FFF3
70FFE0
000000
ENDCHAR

STARTCHAR jisx0208_3057
ENCODING 12375
SWIDTH 960 0
DWIDTH 24 0
BBX 24 24 0 -2
BITMAP
060070
07FFF8
07FFF8
070070
07FFF0
07FFF0
070070
07FFF0
07FFF0
077070
00E00E
03DFFF
07FFFF
1F1DCE
7C7BCE
70F38E
01E78E
07CF0E
1F1E1E
7C3C1C
70F9FC
03E1F8
038070
000000
ENDCHAR

STARTCHAR jisx0208_3058
ENCODING 12376
SWIDTH 960 0
DWIDTH 24 0
BBX 24 24 0 -2
BITMAP
0F0300
0F03C0
0E03DC
0E3FBE
0FBFFE
7DC380
7FC6F0
0E0F78
1F3E38
1FB83E
1D87C7
3DFFFF
3FC01C
2E3FDC
6E3FDC
6E39DC
0E39DC
0E3FDC
0E3FDC
0E39DC
0E383C
0E00FC
0E0038
000000
ENDCHAR

STARTCHAR jisx0208_3059
ENCODING 12377
SWIDTH 960 0
DWIDTH 24 0
BBX 24 24 0 -2
BITMAP
0C1800
0F1E00
079E00
03BC00
03B8E0
1C7FF0
1FFFF0
0070E0
00E1F8
00FFBC
01FFFC
03C038
07807E
0F7FEF
3FFFFF
78000E
659DCE
0DCEEE
1CEEEE
3CEE1E
3CE0FC
3800FC
000038
000000
ENDCHAR

STARTCHAR jisx0208_305A
ENCODING 12378
SWIDTH 960 0
DWIDTH 24 0
BBX 24 24 0 -2
BITMAP
0C0038
0FFFFC
0FFFFC
0E1C38
0E1C38
0FFFF8
0FFFF8
0E1C38
0E1C38
0FFFF8
0FFFF8
0E003E
71FFCF
7FFFFF
070C00
070E3C
07077C
0707F0
0703C0
077DF8
7FFCFF
7FC03F
3C000E
000000
ENDCHAR

STARTCHAR jisx0208_305B
ENCODING 12379
SWIDTH 960 0
DWIDTH 24 0
BBX 24 24 0 -2
BITMAP
0C0038
0FFFFC
0FFFFC
0E1C38
0FFFF8
0FFFF8
0E1C38
0FFFF8
0FFFF8
0E0038
00F3C0
1FEFBC
1FFFFC
00E380
00E38E
7FFFFF
7FFFFF
000000
03E1F0
07E07C
0F803E
3E001E
38000E
000000
ENDCHAR

STARTCHAR jisx0208_305C
ENCODING 12380
SWIDTH 960 0
DWIDTH 24 0
BBX 24 24 0 -2
BITMAP
0383C0
0FC3DC
7FC7BE
7E0FFE
0E1E1C
0EBD78
7FF7F0
7FE3E0
0E01C0
1F0FB0
1FBEF0
1DF9EE
3DC3DF
3FC7FF
2E1F0E
6E7E9E
6E73BC
0E01F8
0E0070
0E03E0
0E0F80
0E7E00
0E7800
000000
ENDCHAR

STARTCHAR jisx0208_305D
ENCODING 12381
SWIDTH 960 0
DWIDTH 24 0
BBX 24 24 0 -2
BITMAP
060630
0707BC
0F07BC
6ECF38
7CEE74
39FDEE
1FDFFE
1BBCE0
077CE0
0DDCEC
7EDFFE
7FDFFE
36DCE0
371CE0
079CEC
37DFFE
36DFFE
36DCE0
37DCE0
775CEE
671FFF
071FFF
071C00
000000
ENDCHAR

STARTCHAR jisx0208_305E
ENCODING 12382
SWIDTH 960 0
DWIDTH 24 0
BBX 24 24 0 -2
BITMAP
060300
0703C0
0F03F8
6EDFBC
7CFFFC
39E73A
1FDFF7
1BBFFF
070000
0DCFFE
7EEFFE
7FEE1C
36EFFC
370FFC
0790E0
37DFFE
36DFFE
36DCE0
37FFFF
773FFF
6700E0
0700E0
0700E0
000000
ENDCHAR

STARTCHAR jisx0208_305F
ENCODING 12383
SWIDTH 960 0
DWIDTH 24 0
BBX 24 24 0 -2
BITMAP
18001C
1FFFFE
1FFFFE
1C1C1C
1FFFFC
1FFFFC
1C1C1C
1FFFFC
1FFFFC
1C001C
020060
07FFF8
07FFF8
070070
07FFF0
07FFF0
070070
07FFF0
07FFF0
070070
0703F0
0703F0
0700E0
000000
ENDCHAR

STARTCHAR jisx0208_3060
ENCODING 12384
SWIDTH 960 0
DWIDTH 24 0
BBX 24 24 0 -2
BITMAP
01E1E0
01E1EE
7FDFDF
7FFFFF
01C1C0
01DEF0
1E3FF0
1FFC0E
601FFF
7FFFFF
007B00
0FDDFF
7F3C7F
78300E
007C00
7FF3FF
7FFFFF
01C0E0
07BBC0
07FFB0
030FFE
3CFC7E
3FC00E
000000
ENDCHAR

STARTCHAR jisx0208_3061
ENCODING 12385
SWIDTH 960 0
DWIDTH 24 0
BBX 24 24 0 -2
BITMAP
001E00
001E00
001C00
001C0E
7FFFFF
7FFFFF
003C00
006C00
00EE30
01E63C
03C67C
0786F0
1F83E0
7B8380
738380
0381C0
0381E0
0380F0
038FF8
03FF7C
3F783F
3FC01F
1E000E
000000
ENDCHAR

STARTCHAR jisx0208_3062
ENCODING 12386
SWIDTH 960 0
DWIDTH 24 0
BBX 24 24 0 -2
BITMAP
01980E
3FDFFF
3FDFFF
001CCE
7FDFFE
7FDFFE
001CCE
3FDFFE
3FDFFE
001C0E
3FC010
3FCFFE
000FFE
31CE1C
3FEFFC
3FEFFC
39CE1C
39CFFC
39CFFC
3FCE1C
3FCEFC
39CEFC
380E38
000000
ENDCHAR

STARTCHAR jisx0208_3063
ENCODING 12387
SWIDTH 960 0
DWIDTH 24 0
BBX 24 24 0 -2
BITMAP
000780
3007F0
3C7F78
1E7FF8
0E0E76
0EFFFF
00FFFF
000000
003FFC
0E381C
7F3FFC
7F3FFC
0E01C0
0E3FFE
0E3FFE
0E39C0
0FFFFF
0DFFFF
1E01C0
7BC1C0
79FE3F
30FFFF
303FFE
000000
ENDCHAR

STARTCHAR jisx0208_3064
ENCODING 12388
SWIDTH 960 0
DWIDTH 24 0
BBX 24 24 0 -2
BITMAP
000380
3063B8
3C7F7C
1E7FFC
0E7338
0E7FF8
007FFE
018307
01FFFF
0E0000
7F7FF8
7F7038
0E7FF8
0E7038
0E7FF8
0E7038
0E7FF8
0E0C60
1F7E3C
7BF01C
79CFE3
30FFFF
303FFE
000000
ENDCHAR

STARTCHAR jisx0208_3065
ENCODING 12389
SWIDTH 960 0
DWIDTH 24 0
BBX 24 24 0 -2
BITMAP
000000
30001C
3FFFFE
3FFFFE
386000
387800
38F070
38EFF8
39FFF8
3B8E00
3B0E1C
3CFFFE
37FFFE
380E00
381BE0
383CF8
38787C
39F03C
3FC01C
370002
38FFFF
3FFFFF
380000
000000
ENDCHAR

STARTCHAR jisx0208_3066
ENCODING 12390
SWIDTH 960 0
DWIDTH 24 0
BBX 24 24 0 -2
BITMAP
01E1E0
01E1E0
01C1C0
01C1C0
01C1DC
3FFFFE
3FFFFE
01C1C0
01C1C0
01C1C0
01C1C0
01C1C0
01C1CE
7FFFFF
7FFFFF
01C1C0
03C1C0
0381C0
0781C0
0F01C0
1E01C0
7C01C0
7001C0
000000
ENDCHAR

STARTCHAR jisx0208_3067
ENCODING 12391
SWIDTH 960 0
DWIDTH 24 0
BBX 24 24 0 -2
BITMAP
001E00
001E00
001C00
001C0E
7FFFFF
7FFFFF
003800
067DE0
0771E0
03E3C0
01C7B0
00EF3C
00FE3C
001C78
01F0F0
1FC1E0
1F03C0
000F80
001EF0
007C78
03F03C
3FC01C
3E001C
000000
ENDCHAR

STARTCHAR jisx0208_3068
ENCODING 12392
SWIDTH 960 0
DWIDTH 24 0
BBX 24 24 0 -2
BITMAP
1E01EC
1E01EE
1C01CE
1C01C7
1CFFFB
1FFFFF
7B01C0
7FEDC0
1C7DCC
1C7DCF
1C6DCF
1C6CEE
1C6CFE
1C7CDC
1D7CFC
1F6C78
7F6373
7E9FF3
39FCF7
30F3BE
00C79F
001F0F
001C07
000000
ENDCHAR

STARTCHAR jisx0208_3069
ENCODING 12393
SWIDTH 960 0
DWIDTH 24 0
BBX 24 24 0 -2
BITMAP
001E00
001E00
001C0E
7FFFFF
7FFFFF
007000
01E0F8
3F9F3E
3FFFDE
1F002E
1BFFF0
03FFF0
0380E0
03FFE0
03FFE0
0380E0
03FFE0
03FFE0
0380E0
0380E0
0387E0
0387E0
0381C0
000000
ENDCHAR

STARTCHAR jisx0208_306A
ENCODING 12394
SWIDTH 960 0
DWIDTH 24 0
BBX 24 24 0 -2
BITMAP
060000
07830E
07BBFF
7F7BFF
7FFB8E
0E038E
0E739C
1FFB9C
1FFB98
1C73B8
3C73B0
3FF39C
7FF38E
5C738E
1C7387
1FF387
1FF387
1C738F
1C73FE
1C737E
1DF39C
1DF380
1CE380
000000
ENDCHAR

STARTCHAR jisx0208_306B
ENCODING 12395
SWIDTH 960 0
DWIDTH 24 0
BBX 24 24 0 -2
BITMAP
0001E0
01B1F8
7FB9DC
7FBDDE
0C6DF7
0CEDF7
1C7DBE
1C39DC
1B6DF7
3FDDAF
3EF5FB
7B65D8
5B9BFF
1AFFFF
1B71C0
1B71DC
1B7DFF
1F7EBB
1FEEF7
1AEDF6
19C3BF
038F9F
030E0F
000000
ENDCHAR

STARTCHAR jisx0208_306C
ENCODING 12396
SWIDTH 960 0
DWIDTH 24 0
BBX 24 24 0 -2
BITMAP
000000
000000
000000
000000
000000
000000
000000
000000
000000
00000E
7FFFFF
7FFFFF
000000
000000
000000
000000
000000
000000
000000
000000
000000
000000
000000
000000
ENDCHAR

STARTCHAR jisx0208_306D
ENCODING 12397
SWIDTH 960 0
DWIDTH 24 0
BBX 24 24 0 -2
BITMAP
001E00
001E00
001C1C
3FFFFE
3FFFFE
001C00
0FFFF8
0FFFF8
000000
18000E
1FFFFF
3FFFFF
78000E
7BC1DC
7383F8
039FE0
03FF00
03F018
038018
03801C
03FFFC
03FFFC
01FFF8
000000
ENDCHAR

STARTCHAR jisx0208_306E
ENCODING 12398
SWIDTH 960 0
DWIDTH 24 0
BBX 24 24 0 -2
BITMAP
183030
1E383C
0F1C3C
071C72
07EFEF
60FFFF
781860
3D9E70
1DBC38
1FBC3C
03781E
07F01F
0EE00F
0D7FF6
1C7FFC
7C76DC
7876DC
3876DC
1C76DC
1C76DC
1C76DF
1DFFFB
1DFFFF
000000
ENDCHAR

STARTCHAR jisx0208_306F
ENCODING 12399
SWIDTH 960 0
DWIDTH 24 0
BBX 24 24 0 -2
BITMAP
000C00
300F00
3C1FE0
1E1CF0
0E3FF0
0E78CC
00F7BE
01FFFE
01739C
0E739C
7F7FFC
7F7FFC
0E6DDC
0E1DC0
0E1DCC
0E3DCC
0E79FE
0EF1FE
1FC0FC
7B0000
79FFFF
30FFFF
303FFE
000000
ENDCHAR

STARTCHAR jisx0208_3070
ENCODING 12400
SWIDTH 960 0
DWIDTH 24 0
BBX 24 24 0 -2
BITMAP
03801C
0FC0FE
7FFFFE
7E3FC0
0E030F
0E39CF
0F9DDE
7DDDDC
7FDC38
0E0336
1F3BCF
1FBBFF
3DBB8E
3DBB8E
2FBB8E
6E3BFE
6E3BFE
0E3B8E
0E3B8E
0E3B8E
0E3BFE
0E3BFE
0E3B8E
000000
ENDCHAR

STARTCHAR jisx0208_3071
ENCODING 12401
SWIDTH 960 0
DWIDTH 24 0
BBX 24 24 0 -2
BITMAP
01E1E0
01E1E0
01C1CE
7FFFFF
7FFFFF
01C1C0
01DFC0
301E00
3C3C0E
1E3BFF
0E7FFF
0E738E
06E39C
01C7D8
0186C0
000EE0
078EE0
1F1E70
7E3C78
7C783C
39F03F
37C01F
07000E
000000
ENDCHAR

STARTCHAR jisx0208_3072
ENCODING 12402
SWIDTH 960 0
DWIDTH 24 0
BBX 24 24 0 -2
BITMAP
01E1E0
01E1E0
01C1CE
7FFFFF
7FFFFF
01C1C0
01C1C0
000030
0FFFF8
0FFFF8
001C00
001C00
001C0E
7FFFFF
7FFFFF
001C00
001C00
001C00
001C00
001C00
01FC00
01FC00
003800
000000
ENDCHAR

STARTCHAR jisx0208_3073
ENCODING 12403
SWIDTH 960 0
DWIDTH 24 0
BBX 24 24 0 -2
BITMAP
0E0000
0F8306
0DBF7F
1FBF7F
198306
3F5B36
7FDF3E
56DF3E
16FB76
1FB870
1FB76F
16BF7F
16F366
1FCB16
1FBB7E
18DF2E
000716
2ABBF6
2AFAF6
6ADB66
6EC71E
6C1E3C
600C18
000000
ENDCHAR

STARTCHAR jisx0208_3074
ENCODING 12404
SWIDTH 960 0
DWIDTH 24 0
BBX 24 24 0 -2
BITMAP
003000
003C00
003C00
007800
0071C0
00E1F0
00E078
01C3BC
3FBFFE
3FFF0E
1EC3CE
18F380
00E380
00E380
00E380
00E380
01E386
01C386
03C386
078387
1F03FF
7C03FF
7001FE
000000
ENDCHAR

STARTCHAR jisx0208_3075
ENCODING 12405
SWIDTH 960 0
DWIDTH 24 0
BBX 24 24 0 -2
BITMAP
00E000
01F000
37F60E
3F87FF
3C07FF
38070E
38070E
38070E
38E70E
3FF70E
3FF70E
38070E
38070E
38070E
38070E
38E70E
3FF77E
3FF77E
38071C
380700
000700
000700
000700
000000
ENDCHAR

STARTCHAR jisx0208_3076
ENCODING 12406
SWIDTH 960 0
DWIDTH 24 0
BBX 24 24 0 -2
BITMAP
00600E
007FFF
677FFF
7F700E
7F73CE
7773CE
77738E
7773EE
777F6E
777FEE
77738E
77738E
77738E
7777CE
7F76EE
7F76EE
777E6E
776E6E
707C6E
00780E
0077FE
007FFE
00700E
000000
ENDCHAR

STARTCHAR jisx0208_3077
ENCODING 12407
SWIDTH 960 0
DWIDTH 24 0
BBX 24 24 0 -2
BITMAP
060070
07FFF8
07FFF8
070070
07FFF0
07FFF0
0F0078
0CFF9C
0FFFFC
0E0038
0FFFF8
0FFFF8
0E0038
0FFFF8
0FFFF8
0E0038
0FFFF8
0FFFF8
0E0038
01F3C0
07F0FC
3F803C
3C001C
000000
ENDCHAR

STARTCHAR jisx0208_3078
ENCODING 12408
SWIDTH 960 0
DWIDTH 24 0
BBX 24 24 0 -2
BITMAP
30000E
3FFFFF
3FFFFF
38000E
381E0E
381E0E
381C0E
381CEE
3FFFEE
37FFEE
381C0E
38360E
38770E
38738E
38F3CE
39E1EE
3BC1EE
3F80EE
36006E
38000E
3FFFFE
3FFFFE
38000E
000000
ENDCHAR

STARTCHAR jisx0208_3079
ENCODING 12409
SWIDTH 960 0
DWIDTH 24 0
BBX 24 24 0 -2
BITMAP
180000
1E300E
1E3FFF
1C3FFF
1DB80E
7FF9EE
7FF9EE
1DB9CE
1DBFBE
1DBFFE
39B9CE
39B9CE
3BB9CE
3BB9EE
73BB6E
7F3B6E
6FBB3E
77BF3E
0DB62E
1DBC0E
38BBFE
703FFE
60380E
000000
ENDCHAR

STARTCHAR jisx0208_307A
ENCODING 12410
SWIDTH 960 0
DWIDTH 24 0
BBX 24 24 0 -2
BITMAP
00381E
7FFC1E
7FFC1C
00381C
00381C
18381C
1FF81C
1FF81C
1C381C
1C001C
1C001C
3C381C
3BFC1C
3FFC1C
38381C
00381C
00381C
00381C
00781C
00701C
0FF01C
0FE01C
03C01C
000000
ENDCHAR

STARTCHAR jisx0208_307B
ENCODING 12411
SWIDTH 960 0
DWIDTH 24 0
BBX 24 24 0 -2
BITMAP
030300
03C3C0
07C3C0
07A380
0EF700
1F770E
3BF6FF
7F8FFF
5FEDCE
1C7DDC
1FF9D8
1FF1C0
1C71C0
1FF3E0
1FF360
1C7370
1D8770
1CE738
1FEF3C
7B7E1E
7E5C1F
38380F
306006
000000
ENDCHAR

STARTCHAR jisx0208_307C
ENCODING 12412
SWIDTH 960 0
DWIDTH 24 0
BBX 24 24 0 -2
BITMAP
18001C
1E007E
0F03FE
077FE0
077E0E
60071E
78739C
3C3BB8
1F3BB0
1B3808
0703FC
067FFC
0E7F80
0E0380
1C038E
7DFFFF
79FFFF
380380
1C0380
1C039C
1CFFFE
1CFFFE
1C0000
000000
ENDCHAR

STARTCHAR jisx0208_307D
ENCODING 12413
SWIDTH 960 0
DWIDTH 24 0
BBX 24 24 0 -2
BITMAP
1E3078
1E3878
1DBE70
1DF770
1CEF70
1CEE70
1C7D70
1F9B70
1BFF70
1DE370
1C0470
1DFF70
1DFF70
1DC770
1DFF70
1DFF70
1DC776
3DFF76
39FF76
39C777
31DF7F
71DF7F
61CE3E
000000
ENDCHAR

STARTCHAR jisx0208_307E
ENCODING 12414
SWIDTH 960 0
DWIDTH 24 0
BBX 24 24 0 -2
BITMAP
00F1E0
00F1EE
7FEFDF
7FFFFF
00E1C0
310300
3FE7C0
3FEFA0
39DEF8
3BBD7F
3BF7DF
3F682E
361FF0
3B807C
3B9FEE
39DFFE
39E001
3FBFFF
3FC380
3B877C
387EFE
387F8E
38380E
000000
ENDCHAR

STARTCHAR jisx0208_3121
ENCODING 12577
SWIDTH 960 0
DWIDTH 24 0
BBX 24 24 0 -2
BITMAP
6383C0
7FC3C0
7FF38E
73BFFF
73FFFF
77700E
76F00C
7E6030
6C1FFC
771FFC
770000
73800E
73FFFF
737FFF
738EE0
7F8EE0
6F8EE0
771EE6
701CE6
703CE7
7078FF
71F0FF
71C07E
000000
ENDCHAR

STARTCHAR jisx0208_3122
ENCODING 12578
SWIDTH 960 0
DWIDTH 24 0
BBX 24 24 0 -2
BITMAP
638300
7FC3C0
7FC7C0
738780
738EE0
771E78
773DBC
7E7FDF
6CF02F
77CFF6
771FF8
738070
73BFEC
73BFFC
738000
7FFFFE
6F7FFE
770700
700E78
701CBC
70FBFE
70FF8E
70780E
000000
ENDCHAR

STARTCHAR jisx0208_3123
ENCODING 12579
SWIDTH 960 0
DWIDTH 24 0
BBX 24 24 0 -2
BITMAP
63801C
7FC0FE
7FFFFE
73BFC0
73861C
773BBC
771FF8
7E1C64
6C239E
773FFE
77001C
73BFFC
73BFFC
73801C
73BFFC
7FBFFC
6F819C
776FC0
706EFE
70EE37
71EFF7
71CFF7
71C7F0
000000
ENDCHAR

STARTCHAR jisx0208_3124
ENCODING 12580
SWIDTH 960 0
DWIDTH 24 0
BBX 24 24 0 -2
BITMAP
07861C
0787FE
0767FE
7FF71C
7FF7FC
30C7FC
1CE71C
1DC802
63AFFF
7FEFFF
000E0E
3FEFFE
3FEFFE
38EE0E
38EFFE
3FEFFE
3FEE0E
38EFFE
38EFFE
3FE618
3FEF8F
38FE07
383807
000000
ENDCHAR

STARTCHAR jisx0208_3125
ENCODING 12581
SWIDTH 960 0
DWIDTH 24 0
BBX 24 24 0 -2
BITMAP
000078
000078
638070
7FC070
7FC070
73807E
73FFEF
737FFF
738070
73B070
73B870
739C70
739E70
738E70
7F8E70
7F8670
738070
738070
700070
000070
0007F0
0007F0
0000E0
000000
ENDCHAR

STARTCHAR jisx0208_3126
ENCODING 12582
SWIDTH 960 0
DWIDTH 24 0
BBX 24 24 0 -2
BITMAP
003000
003C00
003C00
003800
00780E
7FF7FF
7FFFFF
007000
00E000
01E000
03C000
038038
07FFFC
0FFFFC
1DC038
3DC038
71C038
61C038
01C038
01C038
01FFF8
01FFF8
01C038
000000
ENDCHAR

STARTCHAR jisx0208_3127
ENCODING 12583
SWIDTH 960 0
DWIDTH 24 0
BBX 24 24 0 -2
BITMAP
001E00
001E00
181C0E
1FFFFF
3FFFFF
78000E
78001C
7000F8
0FFFE0
0FFFF0
001C00
001C00
001C0E
7FFFFF
7FFFFF
001C00
001C00
001C00
001C00
001C00
01FC00
01FC00
003800
000000
ENDCHAR

STARTCHAR jisx0208_3128
ENCODING 12584
SWIDTH 960 0
DWIDTH 24 0
BBX 24 24 0 -2
BITMAP
003000
003C00
0C7C70
0FF3F8
0FFFF8
0E0070
0E0070
0FFFF0
0FFFF0
0E0070
0E000E
0FFFFF
0FFFFF
0E0000
0FFFFF
0FFFFF
0E000E
11B9CE
19DDCE
39DCDE
79DC3C
71C0FC
700038
000000
ENDCHAR

STARTCHAR jisx0208_3129
ENCODING 12585
SWIDTH 960 0
DWIDTH 24 0
BBX 24 24 0 -2
BITMAP
000000
00700E
7FF7FF
7FF7FF
00700E
00700E
18730E
1C738E
0E71CE
0E71CE
0E71CE
00700E
01702E
03706E
0F71EE
7E7FCE
7C6F8E
38770E
30760E
00700E
03F07E
03F07E
00E01C
000000
ENDCHAR

STARTCHAR jisx0208_312A
ENCODING 12586
SWIDTH 960 0
DWIDTH 24 0
BBX 24 24 0 -2
BITMAP
000000
30001C
3C7FFE
1E7FFE
0E0380
0E0380
000380
000380
00038E
0EFFFF
7FFFFF
7F0380
0E0380
0E0380
0E0380
0E0380
0E0380
0E1F80
1F1F80
7BC700
79F8FF
30FFFF
303FFE
000000
ENDCHAR

STARTCHAR jisx0208_312B
ENCODING 12587
SWIDTH 960 0
DWIDTH 24 0
BBX 24 24 0 -2
BITMAP
00000E
7FFFFF
7FFFFF
001C00
001C00
301C0E
3FFFFF
3FFFFF
381C0E
3B1D8E
3B9DCE
39DCEE
39DCEE
39DCEE
381C0E
3B1D8E
3B9DCE
39DCEE
39DCEE
39DCEE
381C1E
381C7E
381C1C
000000
ENDCHAR

STARTCHAR jisx0208_312C
ENCODING 12588
SWIDTH 960 0
DWIDTH 24 0
BBX 24 24 0 -2
BITMAP
007000
19FB0E
1FFBFF
1F83FF
1C7B8E
1C7B8E
1C738E
1C738E
1C738E
1C738E
1C738E
1C738E
1C738E
1CF38E
1FF38E
7B738E
7EF3FE
38E37E
31E39C
03C380
078380
1F0380
1C0380
000000
ENDCHAR

STARTCHAR jisx0208_312D
ENCODING 12589
SWIDTH 960 0
DWIDTH 24 0
BBX 24 24 0 -2
BITMAP
30C0C0
38E0E0
1DE5FC
1D879E
03F7FE
7F771C
7FF7FC
0777FC
3FF71C
3FF7FC
3777FC
370702
7FF7FF
7FF7FF
677700
0F77FF
1FF7FF
1EF80E
376AEE
771EDE
671C3C
0718FC
070038
000000
ENDCHAR

STARTCHAR jisx0208_312E
ENCODING 12590
SWIDTH 960 0
DWIDTH 24 0
BBX 24 24 0 -2
BITMAP
001E00
181E0E
1FFDFF
3FFFFF
79870E
7FE73C
7787F8
0E03F0
390C0C
07CFFE
3EEFFE
3FEE1C
070FFC
076E1C
7FEFFC
7FEE1C
070FFC
0FCFFC
0EE372
1EE776
3CEF7F
781E7F
60783E
000000
ENDCHAR

STARTCHAR jisx0208_312F
ENCODING 12591
SWIDTH 960 0
DWIDTH 24 0
BBX 24 24 0 -2
BITMAP
0000E0
1FFFF0
1FFFF0
00E0E0
00E0E0
00E0E0
00E0E0
01E0E0
01C0E0
01C0EE
7FFFFF
7FFFFF
01C1C0
01C1C0
01C1C0
03C1C0
0381C0
0381C0
0381C0
0381DC
3FFFFE
3FFFFE
000000
000000
ENDCHAR

STARTCHAR jisx0208_3130
ENCODING 12592
SWIDTH 960 0
DWIDTH 24 0
BBX 24 24 0 -2
BITMAP
000630
0067BC
7FF7BC
7FF778
0E0F76
0E0EEF
0E0FFF
1E1E70
1DDE70
1FFE76
1FAFFF
3DEFFF
3DCE70
7DCE70
5DCE76
1DCFFF
1DCFFF
1DCE70
1FCE70
1FCE76
1DCFFF
1C0FFF
000E00
000000
ENDCHAR

STARTCHAR jisx0208_3131
ENCODING 12593
SWIDTH 960 0
DWIDTH 24 0
BBX 24 24 0 -2
BITMAP
007000
00F800
1BF81C
1FC7FE
1F07FE
1C001C
1C001C
1C001C
1C001C
1C001C
1CE01C
1FF7FC
1FF7FC
1C001C
1C001C
1C001C
1C001C
1C001C
1C001C
1FFFFC
1FFFFC
1C001C
1C001C
000000
ENDCHAR

STARTCHAR jisx0208_3132
ENCODING 12594
SWIDTH 960 0
DWIDTH 24 0
BBX 24 24 0 -2
BITMAP
183038
1E3FFC
0F3FFC
073838
073B38
603BF8
783BF8
3DBB38
1FBB38
1B3B3E
06FFF7
06FFFF
0EE00E
0EEFEE
1CEFEE
7CECCE
78ECCE
38EFCE
1CEFCE
1CECCE
1CEC3E
1CE07E
1CE01C
000000
ENDCHAR

STARTCHAR jisx0208_3133
ENCODING 12595
SWIDTH 960 0
DWIDTH 24 0
BBX 24 24 0 -2
BITMAP
0003C0
0003CC
6703BE
7F83FE
7FE380
777FFF
777FFF
77738E
7773BC
7773F2
777FF6
777F87
7773FF
7F71FE
7FF200
76EB6E
70DB6E
70DB7C
01CB58
01CB7E
03B7E7
077FFF
060000
000000
ENDCHAR

STARTCHAR jisx0208_3134
ENCODING 12596
SWIDTH 960 0
DWIDTH 24 0
BBX 24 24 0 -2
BITMAP
00301C
003FFE
63BFFE
7FB81C
7FB81C
73B81C
73BFFC
73BFFC
73B81C
73B81C
73BFFC
73BFFC
73B81C
73B81C
7FB81C
7FBFFC
73BFFC
70381C
700F60
003F3E
00FC1F
03F00F
038007
000000
ENDCHAR

STARTCHAR jisx0208_3135
ENCODING 12597
SWIDTH 960 0
DWIDTH 24 0
BBX 24 24 0 -2
BITMAP
0E3638
0FBE3E
7DDDF7
7FF5FF
0E7238
3B9EEF
6FFDBF
6C75B6
138A48
1FFFFC
1CE39C
1FFFFC
1FFFFC
000000
1FF81F
1C3FFB
1FF7FF
1C381C
1FFBDC
1C61DC
7FF83C
7F38FC
383838
000000
ENDCHAR

STARTCHAR jisx0208_3136
ENCODING 12598
SWIDTH 960 0
DWIDTH 24 0
BBX 24 24 0 -2
BITMAP
00F3C0
00F3CE
7FEFBF
7FFFFF
00E380
18FF9E
1F1C1E
1FFE1C
1C1C1F
1FFFFB
1FFBFF
1C001C
1BFB1C
1C039C
1FFDDC
1FFDDC
1CE1DC
1EDC1C
36EE1C
36EE1C
7FE6FC
6BE0FC
00C038
000000
ENDCHAR

STARTCHAR jisx0208_3137
ENCODING 12599
SWIDTH 960 0
DWIDTH 24 0
BBX 24 24 0 -2
BITMAP
0E0C1C
0F8FFE
0DCFFE
1FCE1C
198FFC
3B6E1C
37FFFC
7FF002
5B5FFF
1B5FFF
1FDD6E
1FDFFE
1B5FFE
1B7C00
1FE3FE
1FDFFE
18631C
2303BC
2B71F8
2FF1F0
7DB2FF
758FBF
701E0E
000000
ENDCHAR

STARTCHAR jisx0208_3138
ENCODING 12600
SWIDTH 960 0
DWIDTH 24 0
BBX 24 24 0 -2
BITMAP
0C078C
0F078F
0F070F
0E07DE
1FBEDC
7DFFFC
7FE738
1DC778
1DC776
3DFFFF
39FFFF
39C1C0
3B878C
7B8F1E
739E7E
7FFFF8
6F6FC0
078E06
0FCE06
1DCE07
39CFFF
71CFFF
6007FE
000000
ENDCHAR

STARTCHAR jisx0208_3139
ENCODING 12601
SWIDTH 960 0
DWIDTH 24 0
BBX 24 24 0 -2
BITMAP
000000
18000E
1FFFFF
1FFFFF
1C0000
1DFBFE
1DFBFE
1D99B0
1DF9B0
1DF9B0
1D99B0
1D99B6
1DFFFF
1DFFFF
1D9860
1DA0F8
1DB8F0
399CB0
39BDB6
31FDB6
77EFB7
67833F
03061E
000000
ENDCHAR

STARTCHAR jisx0208_313A
ENCODING 12602
SWIDTH 960 0
DWIDTH 24 0
BBX 24 24 0 -2
BITMAP
1803B8
1E03B8
0F039E
07FFE7
06FFFF
600380
78638E
3C7FFF
1F7FFF
1B738E
07738E
067FFE
0E7FFE
0E738E
1C738E
7C7FFE
787FFE
38738E
1C738E
1C738E
1C73FE
1C737E
1C701C
000000
ENDCHAR

STARTCHAR jisx0208_313B
ENCODING 12603
SWIDTH 960 0
DWIDTH 24 0
BBX 24 24 0 -2
BITMAP
00001C
0C01FE
0FFFFE
0FFFB0
0E1830
0E1E30
0E1C30
0E1C30
0E1C30
0E1C38
0E1C38
0E1C18
0E1C18
0E1C1C
0E1C1C
1E1D9C
1C1DCE
1C1CEE
1C1FEE
3BFBFF
3BFE77
71F067
618006
000000
ENDCHAR

STARTCHAR jisx0208_313C
ENCODING 12604
SWIDTH 960 0
DWIDTH 24 0
BBX 24 24 0 -2
BITMAP
30E30E
3FF3FF
3FF3FF
38E38E
3FE3FE
3FE3FE
38E38E
3FE3FE
3FE3FE
38E38E
38000E
39FFCE
39FFCE
381C0E
39FFCE
39FFCE
381C0E
381CCE
3BFFEE
3BFFEE
38001E
38007E
38001C
000000
ENDCHAR

STARTCHAR jisx0208_313D
ENCODING 12605
SWIDTH 960 0
DWIDTH 24 0
BBX 24 24 0 -2
BITMAP
001830
671E38
7F8E7E
7FF7E7
76FFFF
770580
777FFE
777FFE
77759C
777D5C
776DDC
77723C
777FFC
7F701C
7F7FFC
777072
708FFF
73FFFF
000070
007870
003BF0
0003F0
0000E0
000000
ENDCHAR

STARTCHAR jisx0208_313E
ENCODING 12606
SWIDTH 960 0
DWIDTH 24 0
BBX 24 24 0 -2
BITMAP
000038
1FFFFC
1FFFFC
000000
000000
000000
000000
00000E
7FFFFF
7FFFFF
003800
007800
007000
007000
00E000
00E060
01C070
018038
0383FC
3F7FFC
3FFF1E
1F000E
18000E
000000
ENDCHAR

STARTCHAR jisx0208_313F
ENCODING 12607
SWIDTH 960 0
DWIDTH 24 0
BBX 24 24 0 -2
BITMAP
00600E
307FFF
3CFFFF
1DE00E
0FC3DC
0E3FBE
00FFFE
000380
003FFC
0E3B9C
7F3FFC
7F3FFC
0E3B9C
0E3FFC
0E3FFC
0E3B82
0EC7FF
0EFFFF
1F0380
7BC380
79FC7F
30FFFF
303FFE
000000
ENDCHAR

STARTCHAR jisx0208_3140
ENCODING 12608
SWIDTH 960 0
DWIDTH 24 0
BBX 24 24 0 -2
BITMAP
000070
07FFF8
07FFF8
181C06
1FFFFF
3FFFFF
781C0E
7FDFFC
2FDBF8
001C00
0FDFF8
0FDBF8
001C00
0FE3F8
0FFFF8
000006
7FFFFF
7FFFFF
007180
00EEF8
1FDFFC
1FF83C
0F001C
000000
ENDCHAR

STARTCHAR jisx0208_3141
ENCODING 12609
SWIDTH 960 0
DWIDTH 24 0
BBX 24 24 0 -2
BITMAP
00F3C0
00F3CE
7FEFBF
7FFFFF
00E380
00E380
06E380
070078
0783FC
0F7FFC
0E7F80
1F0380
1F0380
3E038E
6FFFFF
6DFFFF
0E0380
0E0380
0E0380
0E039C
0EFFFE
0EFFFE
0E0000
000000
ENDCHAR

STARTCHAR jisx0208_3142
ENCODING 12610
SWIDTH 960 0
DWIDTH 24 0
BBX 24 24 0 -2
BITMAP
030000
03C00E
07DFFF
07BFFF
0EE71C
1F771C
3BF71C
7F87FC
5FF7FC
1C771C
1FF71C
1FF7FC
1C77FC
1FF71C
1FF71C
1C771F
1D87FB
1CDEFF
1FFF9C
7B701C
7E701C
38301C
30001C
000000
ENDCHAR

STARTCHAR jisx0208_3143
ENCODING 12611
SWIDTH 960 0
DWIDTH 24 0
BBX 24 24 0 -2
BITMAP
03C000
03C000
03B00E
1BFBFF
1F9FFF
3FFD8E
781D8E
77F98E
2FF18E
10019E
1BF9DC
3FDCDC
76FCDC
6E70FC
19BCB8
7FFC78
5C6C70
1FF0F8
1C70DC
1FF1DE
1C738F
1FF70F
1C7606
000000
ENDCHAR

STARTCHAR jisx0208_3144
ENCODING 12612
SWIDTH 960 0
DWIDTH 24 0
BBX 24 24 0 -2
BITMAP
0C6060
0F7878
07BCF8
039CE0
1B9DCE
1C63BF
3FFFFF
78000E
7BFFFC
33FFF0
0380E0
0380E0
03FFE0
03FFE0
0C1C18
0FFBFC
0FFFFC
0E0038
0E0038
0E0038
0FFFF8
0FFFF8
0E0038
000000
ENDCHAR

STARTCHAR jisx0208_3145
ENCODING 12613
SWIDTH 960 0
DWIDTH 24 0
BBX 24 24 0 -2
BITMAP
18E31C
1FF3FE
1FF3FE
1CE39C
1FE3FC
1CE39C
1FE3FC
1CE39C
1FE3FC
0CC318
1E778E
3C7F0E
300C0C
007802
7FF7FF
7FFFFF
00E1C0
03DBC0
03FF80
038F70
007DFC
3FF07C
3F801C
000000
ENDCHAR

STARTCHAR jisx0208_3146
ENCODING 12614
SWIDTH 960 0
DWIDTH 24 0
BBX 24 24 0 -2
BITMAP
303818
3FFC1C
3FFC3C
383878
3FF8F0
3839E0
3FFFCC
3B870E
47F81E
7FFC3C
000078
3FFCF0
3FFDE6
383BC7
3FF70F
3FF81E
03803C
1B7078
3BB8F0
3BBBE0
77BF80
6F8E00
030000
000000
ENDCHAR

STARTCHAR jisx0208_3147
ENCODING 12615
SWIDTH 960 0
DWIDTH 24 0
BBX 24 24 0 -2
BITMAP
0003C0
0003C0
670380
7FB3B8
7FBFFC
773FFC
773BB8
773BB8
773BB8
7F3BB8
7F3BB8
773BBE
77FFF7
77FFFF
770380
7F07C0
7F06E0
770F70
771E38
703C3C
00F81F
03E00F
038006
000000
ENDCHAR

STARTCHAR jisx0208_3148
ENCODING 12616
SWIDTH 960 0
DWIDTH 24 0
BBX 24 24 0 -2
BITMAP
007800
007800
307070
3FFFF8
3FFFF8
387070
387070
3FFFF0
3FFFF0
387070
387070
3FFFF0
3FFFF0
383870
383880
003CF0
001DF3
001FC3
000F07
00FFE6
07FBFF
7FC0FF
7C003F
000000
ENDCHAR

STARTCHAR jisx0208_3149
ENCODING 12617
SWIDTH 960 0
DWIDTH 24 0
BBX 24 24 0 -2
BITMAP
186030
1E783C
0F3C7C
071C70
1F1CEE
18E3DF
3FFFFF
78000E
781E1C
701C18
001C04
3FFFFE
3FFFFE
003E00
00FB80
01DFC0
03DDE0
0F9CF8
1F1C7F
7C1C3F
701C0E
001C00
001C00
000000
ENDCHAR

STARTCHAR jisx0208_314A
ENCODING 12618
SWIDTH 960 0
DWIDTH 24 0
BBX 24 24 0 -2
BITMAP
006000
007800
003C00
001C00
001C00
000000
07FE18
07FE1E
001C3E
01DE78
7FDEF0
7FDBE0
01DF80
03DDC0
039DE0
079CF0
071CF8
0F1C7C
1E1C3F
3C1C1F
78FC0E
60FC00
003800
000000
ENDCHAR

STARTCHAR jisx0208_314B
ENCODING 12619
SWIDTH 960 0
DWIDTH 24 0
BBX 24 24 0 -2
BITMAP
180C00
1E0F00
0F0780
070380
070380
600000
787FC0
3B7FC0
1B0386
1B1BCF
07FFDF
06FFFE
0E1BF8
0E3B60
1C3BF0
7C3BB8
7873BC
38739E
1CE39F
1DC38F
1D9F86
1C1F80
1C0700
000000
ENDCHAR

STARTCHAR jisx0208_314C
ENCODING 12620
SWIDTH 960 0
DWIDTH 24 0
BBX 24 24 0 -2
BITMAP
3003C0
3C03C0
1E639C
0E7FFE
0E7FFE
60739C
78739C
3C7FFC
1F7FFC
1B739C
07739C
067FFC
0E7FFC
0E739C
1C73C0
7C01FC
7801BF
3801F3
1C00E7
1C07F6
1C1F7F
1DFE3F
1DF00F
000000
ENDCHAR

STARTCHAR jisx0208_314D
ENCODING 12621
SWIDTH 960 0
DWIDTH 24 0
BBX 24 24 0 -2
BITMAP
001E78
031E78
7F9C74
7FFFEE
1CFFFE
1C1C70
1C1BF0
1C2388
1F3FFC
7BBFFC
7FBBB8
1C3BB8
1C3BB8
1C3BBE
1DFFF7
1DFFFF
1E06C0
7B8F70
7E1E78
383C3C
30F81F
03E00F
038006
000000
ENDCHAR

STARTCHAR jisx0208_314E
ENCODING 12622
SWIDTH 960 0
DWIDTH 24 0
BBX 24 24 0 -2
BITMAP
0001C0
3FFFE0
3FFFE0
0701C0
0701DC
073BFE
07FBFE
0FFB9C
0E3B9C
0FB81C
1DF03C
1C7DF8
3BDFF8
778E70
680008
0FFFFC
0FFFFC
0E7738
0E7738
0E773E
7FFFF7
7FFFFF
000000
000000
ENDCHAR

STARTCHAR jisx0208_314F
ENCODING 12623
SWIDTH 960 0
DWIDTH 24 0
BBX 24 24 0 -2
BITMAP
3C000E
3DDFFF
3BFFFF
3FE0E0
3F0DCE
386FBF
3FEFFF
1FEE0E
000E0E
07EFFE
7FEFFE
7F0E0E
076FFE
7FEFFE
7FEE0E
0F0E0E
1FEFFE
1EEFFE
377E0E
777398
670F8F
073E07
073807
000000
ENDCHAR

STARTCHAR jisx0208_3150
ENCODING 12624
SWIDTH 960 0
DWIDTH 24 0
BBX 24 24 0 -2
BITMAP
3C000E
3DCFFF
3BEFFF
3FE0E0
3F05CE
3877BF
3FF7FF
3FF70E
1FE70E
0007FE
3FE7FE
3FE70E
0007FE
7FF7FE
7FF70E
07070E
36E7FE
3777FE
37770E
7771D8
6F07CF
1F1F07
061C07
000000
ENDCHAR

STARTCHAR jisx0208_3151
ENCODING 12625
SWIDTH 960 0
DWIDTH 24 0
BBX 24 24 0 -2
BITMAP
01E1E0
01E1EE
7FDFDF
7FFFFF
01C1C0
01DDC0
01DDC0
061C30
07FFF8
07FFF8
071C70
071C70
071C76
7FFFFF
7FFFFF
003600
007B80
00F3C0
01E1E0
03C0F8
0F807F
7E003F
78000E
000000
ENDCHAR

STARTCHAR jisx0208_3152
ENCODING 12626
SWIDTH 960 0
DWIDTH 24 0
BBX 24 24 0 -2
BITMAP
0C3800
0E3F06
1EF77F
1CFF7F
387780
75FEE0
67FFE0
0F0006
0EFFFF
1EFFFF
1CE39C
3EFF9C
7CFF9C
5CEE1C
1C0F9C
1CFDDC
1CFFDC
1CEE1C
1FFFDC
1BFFDC
1C0E3C
1C0EFC
1C0E38
000000
ENDCHAR

STARTCHAR jisx0208_3153
ENCODING 12627
SWIDTH 960 0
DWIDTH 24 0
BBX 24 24 0 -2
BITMAP
030700
3F87C0
3F83C0
0001C0
7FC000
7FDFE0
001FE0
3F81C6
3F8DE7
007FEF
3FFFFE
3F8DDC
000DB8
338DB0
3FDDF8
3FDDDC
3B9DDC
3BB9DE
3BB9CF
3FF1CF
3F6FC6
3B8FC0
380380
000000
ENDCHAR

STARTCHAR jisx0208_3154
ENCODING 12628
SWIDTH 960 0
DWIDTH 24 0
BBX 24 24 0 -2
BITMAP
0C1860
0F1C78
0F0E78
1E0E70
1B8EE0
39B6FC
39B9DE
763FFE
5FB81C
0E381C
0FB81C
7DB81C
7FBFFC
0E3FFC
6DF6DC
6DC6E0
3F8EE6
3F0EE6
2E1EE6
0FBCE7
7DF8FF
7F70FF
39C07E
000000
ENDCHAR

STARTCHAR jisx0208_3155
ENCODING 12629
SWIDTH 960 0
DWIDTH 24 0
BBX 24 24 0 -2
BITMAP
300780
3C0780
1E070E
0FFFFF
0DFFFF
600000
7839E0
3C39DC
1F79FE
1B73FE
07F39C
06E7DC
0FF6FC
0DEF78
1AEBB8
7CE1F0
78E170
38E0E0
1CE1F8
1CE3BC
1CE79F
1CEF0F
1CEC06
000000
ENDCHAR

STARTCHAR jisx0208_3156
ENCODING 12630
SWIDTH 960 0
DWIDTH 24 0
BBX 24 24 0 -2
BITMAP
000F00
000F00
060E0E
07FFFF
07FFFF
670000
771FF0
371FF6
371CE6
371CE7
0738FF
0738FF
1FF07E
7EE000
771FFC
377FFC
071838
0E0EF0
0E07E0
1C03D0
1C3EFF
39FC7F
31E01E
000000
ENDCHAR

STARTCHAR jisx0208_3157
ENCODING 12631
SWIDTH 960 0
DWIDTH 24 0
BBX 24 24 0 -2
BITMAP
030180
0381E0
01C1E0
01C3C0
01C39C
3E3F7E
3FFFFE
030180
03C0E0
0780F0
0F007C
1E003F
7C005F
77FFF6
07FFF8
077770
077770
077770
077770
077770
077776
7FFFFF
7FFFFF
000000
ENDCHAR

STARTCHAR jisx0208_3158
ENCODING 12632
SWIDTH 960 0
DWIDTH 24 0
BBX 24 24 0 -2
BITMAP
306C0E
3FEFFF
3FEFFF
3B8E0E
3BEE0E
3F6E0E
3FEE0E
3B8E0E
3F6FFE
3FEFFE
3B8E6E
3BEE60
3F6E60
3FEE70
306E70
0AEE30
2BFE38
6F5C38
7CDC1C
70DC1E
6FF80F
0FB80F
03B006
000000
ENDCHAR

STARTCHAR jisx0208_3159
ENCODING 12633
SWIDTH 960 0
DWIDTH 24 0
BBX 24 24 0 -2
BITMAP
0F1830
0F1C3C
0E0E7C
0E0E70
0F3EEC
2FB1DE
2DBFFE
2DB81C
6FB81C
6E381C
6E381C
0E3FFC
0E3FFC
0E36DC
0E06E0
0E0EE0
0E0EE0
0E1EE6
0E1CE6
0E3CE7
0E78FF
0FF0FF
0DC07E
000000
ENDCHAR

ENDFONT
